<?xml version="1.0" encoding="utf-8"?>
<!-- Generator: Adobe Illustrator 23.0.1, SVG Export Plug-In . SVG Version: 6.00 Build 0)  -->
<svg version="1.1" id="Layer_1" xmlns="http://www.w3.org/2000/svg" xmlns:xlink="http://www.w3.org/1999/xlink" x="0px" y="0px"
	 viewBox="0 0 355.06 163.09" style="enable-background:new 0 0 355.06 163.09;" xml:space="preserve">
<g>
	<g>
		<rect x="175.63" width="2.86" height="111.3"/>
		<path d="M124.61,67.52h-21.47l10.78-28.12L124.61,67.52z M143.8,87.39l-24.92-64.91h-1.51L92.45,87.39h3.11l6.57-17.17h23.57
			l6.57,17.17H143.8z"/>
		<polygon points="221.68,23.91 209.14,23.91 231.03,57.25 210.48,87.39 214.02,87.39 232.71,59.86 250.9,87.39 263.44,87.39 
			239.53,51.02 258.39,23.91 254.85,23.91 237.76,48.41 		"/>
	</g>
	<g>
		<polygon points="107.01,138.4 107.01,163.09 108.18,163.09 108.18,140.75 124.49,163.09 125.54,163.09 125.57,138.4 124.39,138.4 
			124.39,155.91 111.52,138.4 		"/>
		<rect x="134.11" y="138.4" width="4.19" height="24.69"/>
		<polygon points="286.3,138.4 286.3,163.09 287.48,163.09 287.48,140.75 303.79,163.09 304.84,163.09 304.87,138.4 303.69,138.4 
			303.69,155.91 290.82,138.4 		"/>
		<g>
			<path d="M31.11,149.82v-10.35h2.1c3.6,0,5.17,2.26,5.17,5.17c0,2.91-1.57,5.17-5.17,5.17H31.11z M39.33,163.09h4.75L37,150.61
				c3.34-0.69,5.76-2.62,5.76-5.96c0-4.19-3.8-6.25-8.38-6.25h-7.47v24.69h4.19v-12.18h1.54L39.33,163.09z"/>
		</g>
		<polygon points="339.77,138.4 339.77,163.09 355.06,163.09 355.06,162.04 343.96,162.04 343.96,150.71 351.52,150.71 
			351.52,149.66 343.96,149.66 343.96,139.44 355.06,139.44 355.06,138.4 		"/>
		<polygon points="163.44,138.4 163.44,163.09 178.63,163.09 178.63,162.04 167.63,162.04 167.63,150.71 175.16,150.71 
			175.16,149.66 167.63,149.66 167.63,139.44 178.63,139.44 178.63,138.4 		"/>
		<polygon points="248.94,138.4 248.94,149.89 238.76,149.89 238.76,138.4 234.57,138.4 234.57,163.09 238.76,163.09 238.76,150.94 
			248.94,150.94 248.94,163.09 253.13,163.09 253.13,138.4 		"/>
		<polygon points="69.84,138.4 63.06,156.57 55.96,138.4 51.28,138.4 51.28,163.09 52.46,163.09 52.46,140.75 60.87,162.5 
			62.02,162.5 70.1,140.75 70.1,163.09 74.3,163.09 74.3,138.4 		"/>
		<g>
			<path d="M208.65,150.74c0,7.11,4.49,12.87,10.77,12.87c3.8,0,6.38-2.13,7.76-4.19l-0.92-0.62c-1.28,1.8-3.47,3.77-6.48,3.77
				c-5.11,0-6.58-6.42-6.58-11.82c0-5.4,1.47-11.82,6.58-11.82c3.01,0,5.21,1.96,6.48,3.77l0.92-0.62
				c-1.38-2.06-3.96-4.19-7.76-4.19C213.14,137.87,208.65,143.64,208.65,150.74"/>
			<path d="M317.18,150.74c0-5.4,1.47-11.82,6.65-11.82c3.01,0,5.24,1.96,6.52,3.77l0.92-0.62c-1.38-2.06-3.99-4.19-7.79-4.19
				c-6.32,0-10.84,5.76-10.84,12.87c0,7.11,4.58,12.87,10.94,12.87c5.66,0,8.51-5.73,8.51-5.73v-4.62h-7.56v1.11h3.44v4.78
				c0,1.41-1.47,3.41-4.13,3.41C318.65,162.56,317.18,156.14,317.18,150.74"/>
		</g>
		<path d="M8.35,144.42l4.16,10.94H4.16L8.35,144.42z M15.49,163.09h4.49l-9.69-25.25H9.69L0,163.09h1.21l2.55-6.68h9.17
			L15.49,163.09z"/>
		<path d="M89.07,144.42l4.16,10.94h-8.35L89.07,144.42z M96.21,163.09h4.49L91,137.84h-0.59l-9.69,25.25h1.21l2.55-6.68h9.17
			L96.21,163.09z"/>
		<path d="M268.3,144.42l4.16,10.94h-8.35L268.3,144.42z M275.43,163.09h4.49l-9.69-25.25h-0.59l-9.69,25.25h1.21l2.55-6.68h9.17
			L275.43,163.09z"/>
		<polygon points="188.67,138.4 183.79,138.4 192.3,151.36 184.31,163.09 185.69,163.09 192.96,152.38 200.03,163.09 204.91,163.09 
			195.61,148.94 202.95,138.4 201.57,138.4 194.92,147.92 		"/>
	</g>
</g>
</svg>
