<?xml version="1.0" encoding="utf-8"?>
<!-- Generator: Adobe Illustrator 27.5.0, SVG Export Plug-In . SVG Version: 6.00 Build 0)  -->
<svg version="1.1" id="Layer_1" xmlns="http://www.w3.org/2000/svg" xmlns:xlink="http://www.w3.org/1999/xlink" x="0px" y="0px"
	 viewBox="0 0 357 141.4" style="enable-background:new 0 0 357 141.4;" xml:space="preserve">
<g>
	<g>
		<path d="M36.7,91.8L36.7,91.8L36.7,91.8l-5.4,0c-0.7,0-1.2-0.5-1.2-1.2V72.3c0-0.5,0.4-0.9,0.9-0.9h5.7c6,0,10,3.7,10,10.2
			C46.6,88,42.7,91.8,36.7,91.8 M30,51.1c0-0.8,0.6-1.4,1.3-1.5c1-0.1,2.2-0.2,3.2-0.2c5.5,0,9,3.4,9,9.3c0,5.8-3.8,8.9-9.3,8.9
			h-3.3c-0.5,0-0.9-0.4-0.9-0.9V51.1z M46.2,68.9c-0.4-0.2-0.5-0.7-0.2-1c2.4-2.3,3.9-5.5,3.9-9.4c0,0,0.8-13.4-15.1-13.4
			c-6.1,0-11.4,1.6-14.6,3.5v0.7c0,0,2.7,0.9,2.7,3.7v14.5v3.8v19.5c0,2.8-2,3.8-2,3.8v0.9h2h3.3H30H40c7.9,0,14.3-5.1,14.3-14
			C54.3,75.4,51,70.9,46.2,68.9"/>
		<path d="M113.7,69.7h-2.7c-0.5,0-0.9-0.4-0.9-0.9V53.4v-2c0-0.8,0.6-1.4,1.3-1.5c1-0.1,2.1-0.2,3-0.2c5.9,0,9.7,3.7,9.7,10
			C124,66.7,119.9,69.7,113.7,69.7 M134.1,90.9l-12.2-17.4c-0.2-0.3-0.1-0.8,0.3-0.9c5.6-2,9.3-7,9.3-13c0,0,0.9-14.6-16.5-14.6
			c-6,0-11.2,1.4-14.7,3.2V49c0,0,2.7,0.9,2.7,3.7v16.9v3.8v17.4c0,2.8-2,3.8-2,3.8v0.9h2h3.5h3.5h1.6v-0.9c0,0-1.6-0.9-1.6-3.8
			V74.4c0-0.5,0.4-0.9,0.9-0.9h2.1c0.5,0,1,0.2,1.3,0.7l14.8,21.1c0.2,0.2,0.5,0.4,0.8,0.4h2.7h4.8h0.8v-0.9
			C138.1,94.7,136,93.7,134.1,90.9"/>
		<path d="M158.5,91.8L158.5,91.8L158.5,91.8l-5.4,0c-0.7,0-1.2-0.5-1.2-1.2V72.3c0-0.5,0.4-0.9,0.9-0.9h5.7c6,0,10,3.7,10,10.2
			C168.5,88,164.6,91.8,158.5,91.8 M151.9,51.1c0-0.8,0.6-1.4,1.3-1.5c1-0.1,2.2-0.2,3.2-0.2c5.5,0,9,3.4,9,9.3
			c0,5.8-3.8,8.9-9.3,8.9h-3.3c-0.5,0-0.9-0.4-0.9-0.9V51.1z M168.1,68.9c-0.4-0.2-0.5-0.7-0.2-1c2.4-2.3,3.9-5.5,3.9-9.4
			c0,0,0.8-13.4-15.1-13.4c-6.1,0-11.4,1.6-14.6,3.5v0.7c0,0,2.7,0.9,2.7,3.7v14.5v3.8v19.5c0,2.8-2,3.8-2,3.8v0.9h2h3.3h3.7h9.9
			c7.9,0,14.3-5.1,14.3-14C176.2,75.4,172.9,70.9,168.1,68.9"/>
		<path d="M86,45.8v0.9c0,0,1.6,0.9,1.6,3.7v31c0,7.2-3.1,10.4-9.7,10.4c-6.6,0-9.6-3.4-9.6-11.3V50.5c0-2.8,1.6-3.8,1.6-3.8v-0.9
			h-1.6h-3.5h-3.9h-1.6v0.9c0,0,2,1,2,3.8v31.2c0,9.3,6.2,14.6,16.1,14.6c9.7,0,15-5.3,15-14.6V50.6c0-2.8,2-3.8,2-3.8v-0.9h-2H86z"
			/>
		<path d="M232.7,69.7H230c-0.5,0-0.9-0.4-0.9-0.9V53.4v-2c0-0.8,0.6-1.4,1.3-1.5c1-0.1,2.1-0.2,3-0.2c5.9,0,9.7,3.7,9.7,10
			C243,66.7,238.9,69.7,232.7,69.7 M253.1,90.9l-12.2-17.4c-0.2-0.3-0.1-0.8,0.3-0.9c5.6-2,9.3-7,9.3-13c0,0,0.9-14.6-16.5-14.6
			c-6,0-11.2,1.4-14.7,3.2V49c0,0,2.7,0.9,2.7,3.7v16.9v3.8v17.4c0,2.8-2,3.8-2,3.8v0.9h2h3.5h3.5h1.6v-0.9c0,0-1.6-0.9-1.6-3.8
			V74.4c0-0.5,0.4-0.9,0.9-0.9h2.1c0.5,0,1,0.2,1.3,0.7l14.8,21.1c0.2,0.2,0.5,0.4,0.8,0.4h2.8h4.8h0.8v-0.9
			C257.2,94.7,255.1,93.7,253.1,90.9"/>
		<path d="M274.7,69.7H272c-0.5,0-0.9-0.4-0.9-0.9V53.4v-2c0-0.8,0.6-1.4,1.3-1.5c1-0.1,2.1-0.2,3-0.2c5.9,0,9.7,3.7,9.7,10
			C285.1,66.7,281,69.7,274.7,69.7 M295.1,90.9L283,73.5c-0.2-0.3-0.1-0.8,0.3-0.9c5.6-2,9.3-7,9.3-13c0,0,0.9-14.6-16.5-14.6
			c-6,0-11.2,1.4-14.7,3.2V49c0,0,2.7,0.9,2.7,3.7v16.9v3.8v17.4c0,2.8-2,3.8-2,3.8v0.9h2h3.5h3.5h1.6v-0.9c0,0-1.6-0.9-1.6-3.8
			V74.4c0-0.5,0.4-0.9,0.9-0.9h2.1c0.5,0,1,0.2,1.3,0.7l14.8,21.1c0.2,0.2,0.5,0.4,0.8,0.4h2.8h4.8h0.8v-0.9
			C299.2,94.7,297.1,93.7,295.1,90.9"/>
		<path d="M327.3,45.8v0.9c0,0,2,0.7,0.3,3.7l-9.4,17c-0.2,0.4-0.8,0.4-1.1,0l-9.4-17c-1.7-3,0.3-3.7,0.3-3.7v-0.9h-2.8h-1.8h-2.1
			H297h-1.5v0.9c0,0,2.5,0.9,4.1,3.8l12.7,22.9c0.2,0.4,0.3,0.9,0.3,1.3v16.2c0,2.8-2,3.8-2,3.8v0.9h2h6.9h2v-0.9c0,0-2-1-2-3.8
			V74.7c0-0.5,0.1-0.9,0.3-1.3l12.7-22.9c1.6-2.9,4.1-3.8,4.1-3.8v-0.9H327.3z"/>
		<path d="M208.5,91.9h-15c-0.7,0-1.2-0.5-1.2-1.2V72.5c0-0.5,0.4-0.9,0.9-0.9h8.2c2.8,0,3.8,1.6,3.8,1.6h0.9v-7h-0.9
			c0,0-0.9,1.6-3.8,1.6h-8.2c-0.5,0-0.9-0.4-0.9-0.9v-16c0-0.7,0.5-1.2,1.2-1.2h13c2.8,0,3.8,2,3.8,2h0.9v-2v-3.8h-18.9h-3.5h-3.5
			h-2v0.9c0,0,2,1,2,3.8v17.2v3.8v19.4c0,2.8-2,3.8-2,3.8v0.9h8.9h21v-3.8v-2h-0.9C212.3,89.9,211.3,91.9,208.5,91.9"/>
	</g>
</g>
</svg>
