<?xml version="1.0" encoding="utf-8"?>
<!-- Generator: Adobe Illustrator 16.0.0, SVG Export Plug-In . SVG Version: 6.00 Build 0)  -->
<!DOCTYPE svg PUBLIC "-//W3C//DTD SVG 1.1//EN" "http://www.w3.org/Graphics/SVG/1.1/DTD/svg11.dtd">
<svg version="1.1" id="Layer_1" xmlns="http://www.w3.org/2000/svg" xmlns:xlink="http://www.w3.org/1999/xlink" x="0px" y="0px"
	 width="190.156px" height="22.965px" viewBox="0 0 190.156 22.965" enable-background="new 0 0 190.156 22.965"
	 xml:space="preserve">
<g>
	<path fill-rule="evenodd" clip-rule="evenodd" d="M189.053,18.818l0.024,0.564h-6.026v-0.564c1.624,0,1.452-0.469,1.452-2.51V5.067
		c0-0.861,0.024-1.476-0.074-1.747c-0.196-0.713-0.492-0.738-1.5-0.787V2.017l6.1-0.024v0.541c-1.599,0-1.55,0.517-1.55,2.534
		v11.241C187.479,18.177,187.405,18.818,189.053,18.818L189.053,18.818z M171.023,19.58c-6.445,0-6.002-0.959-7.011-2.533
		c-1.205-1.869-2.238-4.525-4.477-4.525c-0.59,0.023-2.558,0-2.927,0c-1.033,0-1.623,0.049-2.288,0c0,1.967,0,3.172,0,5.115
		c0.025,1.205,0.615,1.305,1.624,1.305v0.639h-6.149v-0.639c0.836,0.023,1.525,0.049,1.525-0.887c0-0.32,0-2.018,0-3V5.657
		c0-1.106,0-0.738,0-1.303c0-1.254-0.443-1.574-1.525-1.574V2.239h7.871c2.559,0,4.428-0.074,5.633,0.197
		c2.73,0.615,4.403,2.017,4.428,4.279c0,2.239-1.132,4.207-5.461,5.019c2.854,0.318,3.148,1.574,4.256,3.492
		c1.181,2.115,1.696,3.764,4.452,3.738C170.975,19.113,171.023,19.431,171.023,19.58L171.023,19.58z M154.321,10.798
		c2.238-0.024,5.51,0.147,7.503-0.369c1.131-0.418,2.632-1.058,2.632-3.493c0-1.722-0.861-2.288-1.895-2.779
		c-1.943-0.935-5.682-0.615-8.24-0.615V10.798L154.321,10.798z M133.021,15.152h-10.331l-1.009,1.771
		c-0.368,0.664-0.614,1.107-0.614,1.377c0.024,0.861,0.442,0.936,1.401,0.91l-0.024,0.566h-5.338v-0.492
		c1.182-0.025,1.378-0.418,1.723-1.008c0.295-0.566,0.541-0.984,1.181-2.215l7.157-13.626h2.264l7.551,13.775
		c1.353,2.484,1.279,2.902,2.805,2.902v0.664h-6.396v-0.615c1.451-0.074,1.672-0.566,0.86-1.918L133.021,15.152L133.021,15.152z
		 M132.11,13.208l-4.354-8.166l-4.133,8.166H132.11L132.11,13.208z M109.702,12.324c-1.771,0.023-1.894,0.098-1.845,1.82
		l0.049,2.484c-0.762,1.672-3.271,2.803-5.165,3.295c-1.279,0.346-2.977,0.615-4.624,0.615c-3.936,0-7.133-0.885-9.446-2.854
		c-1.918-1.623-3.099-3.689-3.099-5.951c0-2.756,1.181-4.969,3.567-6.79c2.361-1.82,5.288-2.755,8.904-2.73
		c1.378,0.025,2.854,0.172,4.305,0.517c1.328,0.32,2.73,0.812,3.862,1.5l0.909,3.862l-0.565,0.221
		c-0.565-1.181-2.091-2.779-3.518-3.566c-1.254-0.713-2.976-1.156-4.821-1.181c-2.14-0.024-4.304,0.738-5.583,1.624
		c-1.968,1.353-3.641,3.517-3.641,6.149c0,2.73,1.575,4.92,3.198,5.977c1.599,1.01,3.517,1.697,5.977,1.674
		c1.476-0.025,3.051-0.395,3.911-0.738c0.935-0.369,2.238-0.959,2.804-2.041l0.025-1.502c0-0.516,0.098-1.844-0.296-2.139
		c-0.418-0.271-0.885-0.246-1.574-0.246v-0.59c3.444,0,3.198,0,6.666,0V12.324L109.702,12.324z M67.739,2.878v0.542
		c-0.762,0.024-0.91-0.025-1.205,0.221c-0.197,0.197-0.344,0.443-0.344,1.254V18.3c1.648,0,2.41,0,3.665,0c0.738,0,3.837,0,4.477,0
		c2.14,0,3.493-0.936,4.083-1.895l0.566,0.223l-1.796,3.59H61.713v-0.564c1.058-0.025,1.5-0.223,1.5-1.354c0-7.133,0-3.443,0-4.305
		V5.657c0-0.959,0-1.5-0.246-1.82c-0.246-0.344-0.492-0.418-1.353-0.418V2.878H67.739L67.739,2.878z M35.714,3.025v0.64
		c-0.984,0-1.697,0.222-1.23,1.328C34.656,5.461,35,6.051,35.418,6.838l5.731,10.798c0.713-1.721,6.469-12.495,6.592-13.233
		c0.148-0.935-1.304-0.738-1.353-0.738V3.05l5.166-0.025v0.64c-0.394,0-1.009-0.099-1.23,0.172
		c-0.369,0.467-1.304,2.435-2.583,4.895c-1.894,3.714-4.354,8.632-5.878,11.66h-2.484L32,6.42c-0.59-1.156-1.082-2.288-1.476-2.533
		c-0.344-0.197-0.59-0.222-1.181-0.222v-0.64H35.714L35.714,3.025z M16.282,11.192c1.501,0.245,2.78,0.591,3.591,1.032
		c0.91,0.518,1.919,1.23,1.919,3.568c0.024,1.918-1.181,3.049-1.845,3.418c-1.722,1.354-5.928,1.426-8.486,1.426H2.114v-0.59
		c0.788,0.025,1.009-0.049,1.329-0.418c0.221-0.27,0.147-1.279,0.147-2.264V5.78c0-1.082-0.049-1.402-0.394-1.697
		c-0.369-0.295-0.59-0.271-1.206-0.271l0.025-0.565c6.051,0.024,8.486-0.049,12.151-0.024c2.46,0.123,5.658,1.058,5.658,4.009
		c0,1.131-0.517,2.263-1.304,2.829C17.758,10.651,17.487,10.774,16.282,11.192L16.282,11.192z M6.517,10.725
		c2.583,0,2.607,0,4.059,0c1.697,0,3.985-0.049,5.264-1.083c0.541-0.418,1.058-1.525,1.058-2.165c0-1.033-0.246-1.525-1.304-2.213
		c-1.082-0.689-3.345-0.566-5.289-0.566c-1.082,0-3.025,0-3.788,0V10.725L6.517,10.725z M6.517,18.718c1.673,0,3.025,0,4.895,0
		c3.518,0,7.084-0.197,7.084-3.049c0-1.033-0.64-1.895-1.304-2.387c-1.427-1.059-3.542-1.033-6.641-1.008
		c-1.328,0.023-2.706,0-4.034,0V18.718L6.517,18.718z"/>
</g>
</svg>
