<?xml version="1.0" encoding="utf-8"?>
<!-- Generator: Adobe Illustrator 16.0.0, SVG Export Plug-In . SVG Version: 6.00 Build 0)  -->
<!DOCTYPE svg PUBLIC "-//W3C//DTD SVG 1.1//EN" "http://www.w3.org/Graphics/SVG/1.1/DTD/svg11.dtd">
<svg version="1.1" id="Layer_1" xmlns="http://www.w3.org/2000/svg" xmlns:xlink="http://www.w3.org/1999/xlink" x="0px" y="0px"
	 width="191.5px" height="23.25px" viewBox="0 0 191.5 23.25" enable-background="new 0 0 191.5 23.25" xml:space="preserve">
<g>
	<path fill-rule="evenodd" clip-rule="evenodd" d="M2.834,3.605h2.497H5.5h3.435c4.318,0.038,7.847,3.849,7.847,8.504
		c0,4.674-3.529,8.484-7.847,8.521H5.5l0,0H5.181H2.834V3.605L2.834,3.605z M5.5,5.67v12.953h2.741
		c3.942-0.113,5.895-3.172,5.895-6.439c0-3.247-1.99-5.894-5.2-6.438L5.5,5.67L5.5,5.67z M27.051,3.211
		c5.181,0,9.405,4.017,9.405,8.916c0,4.9-4.224,8.898-9.405,8.898c-5.163,0-9.386-3.998-9.386-8.898
		C17.665,7.228,21.889,3.211,27.051,3.211L27.051,3.211z M27.089,5.37c3.754,0,6.814,3.022,6.814,6.74
		c0,3.697-3.06,6.721-6.814,6.721s-6.833-3.023-6.833-6.721C20.255,8.392,23.334,5.37,27.089,5.37L27.089,5.37z M37.188,3.643h2.515
		V18.66h4.806v1.953h-4.806h-1.145h-1.37V3.643L37.188,3.643z M52.676,3.117c1.952,0,3.773,0.582,5.275,1.558v3.098
		c-1.258-1.502-3.135-2.479-5.256-2.479c-3.754,0-6.814,3.06-6.814,6.815c0,3.736,3.06,6.795,6.814,6.795
		c2.121,0,3.999-0.977,5.256-2.477v3.135c-1.502,0.994-3.323,1.576-5.275,1.576c-5.181,0-9.405-4.055-9.405-9.012
		C43.271,7.172,47.495,3.117,52.676,3.117L52.676,3.117z M61.386,18.604h6.082v2.01h-6.082h-2.647v-2.01v-5.932v-2.064v-5.05V3.643
		h2.647h6.082v1.915h-6.082v5.05h6.082v2.064h-6.082V18.604L61.386,18.604z M77.042,19.543c-0.263,0.244-0.563,0.469-0.939,0.639
		c-0.356,0.188-0.713,0.318-1.107,0.375c-0.094,0.02-0.188,0.037-0.282,0.037c-0.094,0.02-0.188,0.02-0.281,0.02
		c-0.263,0-0.526-0.037-0.789-0.094c-0.244-0.076-0.488-0.188-0.713-0.357c-0.244-0.188-0.432-0.432-0.582-0.732
		c-0.169-0.281-0.263-0.582-0.3-0.9c0-0.037,0-0.074,0-0.113c-0.019-0.055-0.019-0.094-0.019-0.131s0-0.057,0.019-0.094
		c0-0.037,0-0.074,0-0.113c0,0,0-0.018,0-0.037c0.019-0.018,0.019-0.018,0.019-0.037s0-0.037,0-0.076c0-0.018,0-0.037,0-0.055
		c0.113-0.525,0.357-0.939,0.732-1.277c0.356-0.338,0.751-0.639,1.164-0.883c-0.225-0.262-0.432-0.545-0.619-0.826
		c-0.188-0.262-0.282-0.582-0.282-0.9c0-0.057,0-0.094,0-0.15c0.019-0.037,0.019-0.074,0.019-0.131c0.019,0,0.019-0.02,0.019-0.037
		v-0.02c0.019-0.037,0.019-0.057,0.019-0.076c0-0.018,0.019-0.037,0.019-0.055c0.094-0.414,0.3-0.732,0.638-0.959
		c0.319-0.205,0.676-0.338,1.051-0.355c0.019,0,0.019,0,0.038,0s0.038,0,0.057,0c0.037,0,0.056,0,0.075,0s0.056,0,0.075,0
		c0.451,0.037,0.882,0.207,1.258,0.506c0.375,0.283,0.563,0.695,0.563,1.24c0,0.506-0.169,0.92-0.469,1.219
		c-0.3,0.32-0.657,0.602-1.033,0.865l1.802,2.178c0.169-0.207,0.357-0.414,0.526-0.621c0.15-0.205,0.319-0.432,0.451-0.656
		l0.619,0.639c-0.112,0.207-0.244,0.412-0.394,0.582c-0.131,0.168-0.282,0.355-0.432,0.525c-0.038,0.037-0.075,0.074-0.113,0.113
		c-0.038,0.037-0.075,0.074-0.113,0.111l1.314,1.596h-1.164L77.042,19.543L77.042,19.543z M74.771,19.787
		c0.319-0.037,0.619-0.131,0.882-0.301c0.263-0.168,0.507-0.355,0.75-0.562c0.019,0,0.038-0.02,0.057-0.037
		c0.019,0,0.038-0.02,0.056-0.039l-2.046-2.439c-0.019,0-0.019,0.02-0.038,0.037c-0.019,0-0.038,0.02-0.057,0.037
		c-0.037,0.02-0.056,0.039-0.094,0.057c-0.019,0-0.037,0.02-0.056,0.037c-0.169,0.113-0.319,0.227-0.469,0.338
		c-0.15,0.113-0.282,0.264-0.395,0.414c-0.038,0.074-0.094,0.15-0.131,0.244c-0.038,0.074-0.075,0.168-0.094,0.262
		c-0.019,0.076-0.038,0.15-0.056,0.227c-0.019,0.074-0.019,0.15-0.019,0.225c0,0.395,0.15,0.752,0.451,1.07
		c0.282,0.301,0.657,0.469,1.107,0.469c0,0,0.019,0,0.019-0.018c0.019,0,0.038,0,0.056,0h0.019c0.019,0,0.019-0.02,0.038-0.02
		H74.771L74.771,19.787z M74.02,13.836v0.02c0,0.018,0,0.037,0,0.037c0,0.018-0.019,0.037-0.019,0.057c0,0,0,0.018,0,0.037
		c0,0.207,0.056,0.395,0.169,0.562c0.112,0.188,0.244,0.357,0.394,0.508c0.038,0.057,0.094,0.111,0.131,0.168
		s0.094,0.094,0.131,0.15c0.038-0.018,0.056-0.037,0.094-0.057c0.019-0.018,0.056-0.037,0.094-0.037
		C75.24,15.15,75.428,15,75.616,14.83c0.188-0.168,0.3-0.375,0.338-0.637c0-0.02,0-0.039,0-0.057c0-0.02,0-0.037,0-0.057
		s0.019-0.037,0.019-0.057c0-0.018,0-0.037,0-0.037c0-0.264-0.094-0.488-0.281-0.639c-0.188-0.168-0.395-0.262-0.62-0.281
		c-0.019,0-0.038,0-0.056,0c-0.019,0-0.038,0-0.057,0H74.94c-0.019,0-0.019,0-0.038,0c-0.188,0-0.375,0.074-0.544,0.188
		C74.17,13.385,74.058,13.572,74.02,13.836L74.02,13.836z M101.428,12.127c0,5.314-2.891,9.086-8.673,9.086
		c-5.801,0-9.48-4.092-9.48-9.086c0-4.993,4.261-9.085,9.48-9.085l0,0c3.379,0,6.364,1.727,8.035,4.299l-2.196,1.126
		c-1.221-1.934-3.38-3.21-5.82-3.21c-3.792-0.019-6.871,3.06-6.871,6.852c0,3.773,3.079,6.852,6.871,6.852
		c3.191,0,5.707-1.596,5.894-4.918h-5.481v-2.009h5.351c0-0.038,2.722,0,2.891,0 M100.001,20.613l7.021-17.027h1.67l7.078,17.027
		h-2.76l-1.952-4.807h-6.439l-1.915,4.807H100.001L100.001,20.613z M105.596,13.648l2.271-6.044l2.309,6.044H105.596L105.596,13.648
		z M140.437,20.613l7.021-17.027h1.671l7.077,17.027h-2.76l-1.952-4.807h-6.439l-1.914,4.807H140.437L140.437,20.613z
		 M146.05,13.648l2.253-6.044l2.309,6.044H146.05L146.05,13.648z M174.152,20.613l7.021-17.027h1.67l7.077,17.027h-2.759
		l-1.953-4.807h-6.438l-1.915,4.807H174.152L174.152,20.613z M179.747,13.648l2.271-6.044l2.31,6.044H179.747L179.747,13.648z
		 M121.853,5.576c1.671,0.188,2.29,0.901,2.29,2.572c0.019,1.671-1.127,2.553-2.591,2.553h-2.215V5.558h2.516V5.576L121.853,5.576z
		 M121.983,12.766c0.038,0,0.094,0,0.132,0c1.239,0,3.454,0.281,3.454,3.041c0,2.217-1.934,2.854-3.773,2.836l0.45,0.018h-2.909
		v-5.895h2.215H121.983L121.983,12.766L121.983,12.766z M118.718,20.613h0.619h3.754h0.02l0,0c3.003,0,5.162-1.971,5.162-4.807
		c0-2.178-1.352-3.848-3.267-4.505c1.089-0.694,1.709-1.934,1.709-3.51c0-2.572-1.728-4.149-4.281-4.205
		c-1.389-0.019-2.797,0-4.204,0c-0.019,0-0.057,0-0.075,0s-0.038,0-0.057,0c-0.037,0-0.057,0-0.075,0h-1.332v17.027H118.718
		L118.718,20.613z M134.749,5.576c1.671,0.188,2.29,0.901,2.309,2.572c0.02,1.671-1.126,2.553-2.59,2.553h-2.216V5.558h2.497V5.576
		L134.749,5.576z M134.899,12.766c0.037,0,0.075,0,0.131,0c1.221,0,3.454,0.281,3.454,3.041c0,2.217-1.952,2.854-3.772,2.836
		l0.432,0.018h-2.892v-5.895h2.216H134.899L134.899,12.766L134.899,12.766z M131.633,20.613h0.619h3.755h0.019l0,0
		c2.984,0,5.162-1.971,5.162-4.807c0-2.178-1.37-3.848-3.285-4.505c1.107-0.694,1.709-1.934,1.709-3.51
		c0-2.572-1.728-4.149-4.262-4.205c-1.408-0.019-2.815,0-4.224,0c-0.019,0-0.038,0-0.057,0s-0.057,0-0.075,0s-0.037,0-0.075,0
		h-1.313v17.027H131.633L131.633,20.613z M157.332,3.643h1.614l11.921,12.596V3.643h2.309v16.971h-1.764L159.735,8.148v12.465
		h-2.403V3.643L157.332,3.643z"/>
</g>
</svg>
