<?xml version="1.0" encoding="utf-8"?>
<!-- Generator: Adobe Illustrator 21.1.0, SVG Export Plug-In . SVG Version: 6.00 Build 0)  -->
<svg version="1.0" id="Livello_1" xmlns="http://www.w3.org/2000/svg" xmlns:xlink="http://www.w3.org/1999/xlink" x="0px" y="0px"
	 viewBox="0 0 469.9 55.3" style="enable-background:new 0 0 469.9 55.3;" xml:space="preserve">
<g>
	<g>
		<path d="M396.5,34.5l6.7-19.5l6.5,19.5H396.5L396.5,34.5z M327.3,26.9v-18h3.1c5.2,0,8.6,3.4,8.6,9.4c0,3.4-2.6,8.6-8.1,8.6H327.3
			L327.3,26.9z M293.6,34.5l6.7-19.5l6.5,19.5H293.6L293.6,34.5z M466.8,8.1H447v0.9h3.3v30.9L430.2,8.1h-8.6v0.9h3.3V48h-5.5
			l-14-41.8L390.9,48h-5.2V8.9h3V8.1h-7.8l-11.1,32.6L358.1,8.1h-7.9v0.9h3.3V48c-2.8,0-6,0-6,0c-2.1,0-3.8-1.8-3.8-4.7v-6.1
			c0-5-1.8-9-7.3-9.9c4.6-0.6,8.1-4.8,8.1-9.2c0-5.7-4.2-10.1-12.6-10.1h-12.5v0.9h3.3V48l-6.2,0l-14-41.8L287.9,48h-2.7v0.9h7.5V48
			h-3.8l4.3-12.7H307l4.2,12.7H306v0.9c15.9,0,10.9,0,26.4,0l0-0.9h-5V27.8h3.7c5.1,0,7.7,2.1,7.7,7.1v3.6c0,8.4,5.4,10.4,8.3,10.4
			h10.8V48h-3.6V11.8L368,49.3l13-38.7V48h-3.3v0.9h17.9V48h-3.8l4.3-12.7h13.7l4.2,12.7H409v0.9h20V48h-3.3V10.3l25.5,40V8.9h7.7
			V48h-3.3v0.9h11.2V48h-3.3V8.9l3.3,0V8.1"/>
		<path d="M23.3,8.9c6.9,0,8.7,4,8.7,9.8l0.8,0V8.1H5.4v0.9H9V48H5.4v0.9h27.3V37.1h-0.8c0,6.1-1.5,10.9-11.5,10.9h-6.7V28.7h2.9
			c4.5,0,6.6,2.3,6.6,6.3H24V21.6h-0.8c0,4-2.1,6.3-6.6,6.3h-2.9V8.9H23.3"/>
	</g>
	<path d="M201.2,49.1c-10.9,0-11.4-14.2-11.4-20.6c0-6.3,0.7-20.6,11.4-20.6c10.6,0,11.4,14.2,11.4,20.6
		C212.6,34.8,212,49.1,201.2,49.1L201.2,49.1z M201.2,7.1c-10.7,0-17.7,11.9-17.7,21.4c0,10.4,7.6,21.4,17.7,21.4
		c10.1,0,17.7-10.3,17.7-21.4C218.9,19,211.3,7.1,201.2,7.1"/>
	<path d="M120.7,49.1c-10.9,0-11.4-14.2-11.4-20.6c0-6.3,0.7-20.6,11.4-20.6c10.6,0,11.4,14.2,11.4,20.6
		C132.2,34.8,131.6,49.1,120.7,49.1L120.7,49.1z M120.7,7.1C110,7.1,103,19,103,28.5c0,10.4,7.6,21.4,17.7,21.4
		c10.1,0,17.7-10.3,17.7-21.4C138.4,19,130.8,7.1,120.7,7.1"/>
	<path d="M147.9,26.9v-18h3.1c5.2,0,8.6,3.4,8.6,9.4c0,3.4-2.6,8.6-8.1,8.6H147.9L147.9,26.9z M170.8,8.9l3.3,0V48h-6
		c-2.1,0-3.8-1.8-3.8-4.7v-6.1c0-5-1.8-9-7.3-9.9c4.6-0.6,8.1-4.8,8.1-9.2c0-5.7-4.2-10.1-12.6-10.1h-12.5v0.9h3.3V48h-3.3v0.9h13
		V48h-5V27.8h3.7c5.1,0,7.7,2,7.7,7.1v3.6c0,8.5,5.4,10.4,8.3,10.4c0,0,0.2,0,14.4,0V48h-3.3V8.9l3.3,0V8.1h-11.2V8.9"/>
	<path d="M85.4,31.1H83V8.9h2.4c5.9,0,9.6,3.1,9.6,11.2C95,27.5,92.2,31.1,85.4,31.1L85.4,31.1z M78.3,48h-7.7V8.9c0,0,1.8,0,7.7,0
		V48L78.3,48z M86.6,8.1H65.7L54.6,40.7L43,8.1h-7.9v0.9h3.3V48h-3.3v0.9h7.7V48h-3.6V11.8l13.7,37.5l13-38.7V48h-3.3v0.9h23.7V48
		H83V32h3.5c9.3,0,13.9-5.2,13.9-11.8C100.4,13.7,96.4,8.1,86.6,8.1"/>
	<path d="M261.1,13c0.3-1,1-1,2.2-1h2.9c-0.2-2.4-3-4-4.2-4l-11.4,0c-0.2,0-0.3,0.1-0.4,0.3c-0.1,0.1-1.4,2-1.4,4.5l0,0.1H261.1"/>
	<path d="M234.2,8.1h-20.5c-0.1,0.3-0.1,0.5-0.1,0.8c0,2.7,2.9,4.1,2.9,4.1h21.7L234.2,8.1"/>
	<path d="M240.2,15.3h-20.5c-0.1,0.3-0.1,0.5-0.1,0.8c0,2.7,2.9,4.1,2.9,4.1h21.7L240.2,15.3"/>
	<path d="M298.7,8.1h-20.5l-4.1,4.9h21.7c0,0,2.9-1.4,2.9-4.1C298.7,8.6,298.7,8.3,298.7,8.1"/>
	<path d="M272.2,15.3l-4.1,4.9h21.7c0,0,2.9-1.4,2.9-4.1c0-0.3,0-0.5-0.1-0.8H272.2"/>
	<path d="M231.8,29.6c-0.1,0.3-0.1,0.5-0.1,0.8c0,2.7,2.9,4.1,2.9,4.1h10.2c1-2,2.8-3.6,5.3-3.6c0.9,0,1.4,0.3,1.8,0.5
		c0.2,0.1,0.4,0.2,0.6,0.2c0.5,0,0.7-0.2,0.8-0.6l0-0.1h0.6v3.5h6.2c0.8-2.2,1.3-3.8,1.3-3.8l0.1-0.2c0,0,0.6,1.7,1.4,4h15
		c0,0,2.9-1.4,2.9-4.1c0-0.3,0-0.5-0.1-0.8H231.8"/>
	<path d="M250.1,31.6c-2,0-2.9,1.4-3.4,2.9h6.4C252.6,32.5,251.3,31.6,250.1,31.6"/>
	<path d="M246.3,38.3c0,1.3,0.1,2.5,0.3,3.4h5.9c0-0.7,0-1.7,0-1.8c-0.1,0-1.3,0-1.3,0v-0.6h4.3v0.6c0,0-1,0-1.1,0c0,0,0,0.8,0,1.8
		h3.1c0.5-1.4,1.1-3.2,1.7-4.9h-12.9C246.3,37.4,246.3,38,246.3,38.3"/>
	<path d="M271.8,41.7c0,0,2.9-1.4,2.9-4.1c0-0.3,0-0.5-0.1-0.8h-11.1c0.6,1.7,1.2,3.5,1.7,4.9H271.8"/>
	<path d="M244,36.8h-6.2c-0.1,0.3-0.1,0.5-0.1,0.8c0,2.7,2.9,4.1,2.9,4.1h4c-0.5-1.1-0.8-2.3-0.8-3.4
		C243.8,37.8,243.9,37.3,244,36.8"/>
	<path d="M249.9,45c0.9,0,1.7-0.4,2.1-1.1h-4.4C248.1,44.7,248.9,45,249.9,45"/>
	<path d="M267.8,44.7v0.6h-5.3v-0.6c0,0,1.5,0,1.7,0c0,0-0.1-0.3-0.2-0.7h-6.5c-0.1,0.4-0.2,0.7-0.3,0.7c0.2,0,1.2,0,1.2,0v0.6h-2.9
		v-0.6c0,0,0.9,0,1,0c0,0,0.1-0.3,0.3-0.7h-2.3c0,0.8,0,1.4,0,1.4h-0.6l0-0.1c0-0.5-0.3-0.8-0.6-0.8c-0.5,0-0.8,0.2-1.2,0.5
		c-0.5,0.3-1,0.7-2.2,0.7c-1.5,0-2.7-0.7-3.7-1.7h-2.3c-0.1,0.3-0.1,0.5-0.1,0.8c0,2.7,2.9,4.1,2.9,4.1h19.1c0,0,2.9-1.4,2.9-4.1
		c0-0.3,0-0.5-0.1-0.8H266c0.2,0.4,0.2,0.7,0.2,0.7C266.3,44.7,267.8,44.7,267.8,44.7"/>
	<polyline points="260.2,15.2 260,15.2 248.9,15.2 248.7,20.2 261.6,20.2 260.2,15.2 	"/>
	<path d="M266.2,22.4l-2,2.4l-2-2.4h-13.7l-0.3,2.3l-2-2.3h-20.5c-0.1,0.3-0.1,0.5-0.1,0.8c0,2.7,2.9,4.1,2.9,4.1h55.2
		c0,0,2.9-1.4,2.9-4.1c0-0.3,0-0.5-0.1-0.8H266.2"/>
	<polyline points="261.5,36.8 259.9,36.8 258.8,39.9 262.5,39.9 261.5,36.8 	"/>
	<polyline points="263.1,41.7 262.7,40.5 258.6,40.5 258.2,41.7 263.1,41.7 	"/>
</g>
</svg>
