<svg id="Layer_1" data-name="Layer 1" xmlns="http://www.w3.org/2000/svg" xmlns:xlink="http://www.w3.org/1999/xlink" viewBox="0 0 2551.18 742"><defs><style>.cls-1{fill:none;}.cls-2{clip-path:url(#clip-path);}.cls-3{fill:#231f20;}</style><clipPath id="clip-path" transform="translate(-141.73 -302.43)"><rect class="cls-1" width="2834.65" height="1346.86"/></clipPath></defs><title>250621_ Fendi logo</title><g class="cls-2"><path class="cls-3" d="M2129.28,302.44H1970.46a30.68,30.68,0,0,0-30.67,30.67v680.64a30.69,30.69,0,0,0,30.67,30.68h158.82c291.67,0,352.9-199.89,352.9-367.58,0-227.45-138.53-374.41-352.9-374.41m27.38,630.77h-88V414.63h58.52c145.06,0,231.66,98.23,231.66,262.77,0,176.45-118.22,255.81-202.16,255.81" transform="translate(-141.73 -302.43)"/><path class="cls-3" d="M2594.73,1044.43a30.68,30.68,0,0,1-30.68-30.68V333.11a30.68,30.68,0,0,1,30.68-30.68h67.51a30.67,30.67,0,0,1,30.67,30.68v680.64a30.67,30.67,0,0,1-30.67,30.68Z" transform="translate(-141.73 -302.43)"/><path class="cls-3" d="M1224.34,383.24a30.67,30.67,0,0,1-30.67,30.68h-344V606.74h295a30.68,30.68,0,0,1,30.68,30.67V687a30.68,30.68,0,0,1-30.68,30.68h-295V930h342.76a30.68,30.68,0,0,1,30.68,30.68v53.06a30.68,30.68,0,0,1-30.68,30.68H746a30.68,30.68,0,0,1-30.67-30.68V333.11A30.67,30.67,0,0,1,746,302.43h447.72a30.67,30.67,0,0,1,30.67,30.68Z" transform="translate(-141.73 -302.43)"/><path class="cls-3" d="M141.73,333.11a30.68,30.68,0,0,1,30.68-30.67H617.65a30.68,30.68,0,0,1,30.68,30.67v49.38a30.69,30.69,0,0,1-30.68,30.69l-349,0v192H504.16a30.68,30.68,0,0,1,30.68,30.67v53.39a30.69,30.69,0,0,1-30.68,30.69H268.62v293.87A30.68,30.68,0,0,1,238,1044.43H172.41a30.69,30.69,0,0,1-30.68-30.68Z" transform="translate(-141.73 -302.43)"/><path class="cls-3" d="M1440,545.66v468.09a30.68,30.68,0,0,1-30.68,30.68h-67.58a30.68,30.68,0,0,1-30.67-30.68V333.11a30.68,30.68,0,0,1,30.67-30.68h67.06c22,0,33.67,3.47,42.57,19.83l261,471.78V333.11A30.67,30.67,0,0,1,1743,302.43h66.56a30.68,30.68,0,0,1,30.68,30.68v680.64a30.68,30.68,0,0,1-30.68,30.68h-64.53c-22,0-33.67-3.46-42.58-19.82Z" transform="translate(-141.73 -302.43)"/></g></svg>