<?xml version="1.0" encoding="utf-8"?>
<!-- Generator: Adobe Illustrator 28.0.0, SVG Export Plug-In . SVG Version: 6.00 Build 0)  -->
<svg version="1.1" xmlns="http://www.w3.org/2000/svg" xmlns:xlink="http://www.w3.org/1999/xlink" x="0px" y="0px"
	 viewBox="0 0 417.5 566.9" style="enable-background:new 0 0 417.5 566.9;" xml:space="preserve">
<g id="Layer_1">
	<g>
		<path d="M417.5,62.6L208.8,27.1L0,62.6l0.5,34.2c0,0,0,0,0,0l1.6,105c0,48.2,15.8,253.4,206.7,365
			c191-111.7,206.7-316.8,206.7-365.1l1.6-105l0,0L417.5,62.6z M407.1,201.9c0,38.2-7.3,242.8-198.3,353.9
			c-191-111-198.3-315.7-198.3-353.9l-2.1-97.5c0,0,67.8-43.2,200.4-43.2c132.6,0,200.4,43.2,200.4,43.2L407.1,201.9z"/>
		<path d="M204.1,77.3c0,0-0.2,2.3-0.8,3.6c-0.5,1.2-1.8,2-1.7,2.9c0.1,0.8,1,1.8,2.3,2.4c1.3,0.7,1.8,1.2,3.2,1.5
			c1.2,0.3,2.8,1.2,3.3,0.2c0.5-1-0.2-2.3-1-3.6c-1.3-2.1-2-2.7-3.9-5.6C205,78.1,204.6,77.4,204.1,77.3L204.1,77.3z"/>
		<path d="M343.7,229.6c-1.4,2.1-2.2,6-4.4,9.4c-2.9,4.6-7.4,10.3-9.5,10.4c-1.2,0-1.5-2.7-1.5-2.7s-1.5-4.5,1.1-10.3
			c1.8-4,2.9-5.2,5.2-8.2c2.1-2.9,3.5-4.3,5.1-7.4c1.3-2.7,1.6-3.2,2.5-7.4c0.2-1-0.2-3.1-1.2-3.1c-1.4,0.1-4.9,8-8.9,12.5
			c-3.7,4.1-10.5,9.6-10.5,9.6s-0.7,0.4-0.7-0.8c-0.1-1.2-0.4-4.6,0.3-7.8c0.7-3.1,1.7-6.3,4.5-11.2c3.2-5.6,7.2-9.3,9.3-11.4
			c0.8-0.8,3.3-2.4,2.1-3.2c-1.1-0.7-4.6,2.4-7.3,4.3c-3.4,2.4-4.5,3.1-7.9,7.2c-3.4,4-4.2,5.7-4.2,5.7s-3.1,5.1-4,10.2
			c-0.9,5.1-0.9,7.9-0.9,7.9s0.1,4.5,0.4,7.3c0.4,2.8,1.5,7.2,1.5,7.2s1.6,4.9,2.3,7.9c0.7,3,1.8,11.9,1.8,11.9s0.8,6.4,0.4,12.4
			c-0.4,6-1,9.5-1.7,11.4c-0.7,1.8-2.6,6.7-5.5,10c-2.9,3.3-3.5,3.7-3.5,3.7s-3,2.5-5.5,3.8c-2.5,1.3-6.3,3-7.9,3.4
			c-1.6,0.4-4,0.6-4.2,0.6l-2.1-0.1c-0.2,0-0.5-0.3-0.7-0.5c-0.1-0.2-0.3-1.4-0.3-1.4s-1.6-6.5-3.6-10.7c-1.6-3.5-5.1-8.4-5.1-8.4
			s-6.1-8.1-10.7-12.7c-5.3-5.3-11.4-9.4-15-12.2c-1.3-1-4.4-2.8-4.4-2.8s-12.2-12.2-16.6-22c-3-6.7-5-11.6-4.2-19
			c0.2-1.7,0.9-4.8,1.2-4.8c0.3,0,1.9,0.5,2.2,0.6c0.2,0.1,2.2,1.9,4,2.6c1.1,0.4,2.9,0.7,2.9,0.7s1.5,0.1,2.3,0.4
			c0.8,0.3,2.3,0.8,3.4,1.4c1.1,0.5,2.6,1.5,2.6,1.5s2.5,1.9,2.9,2.1c0.3,0.2,3,2.4,3,2.4s1.7,1.2,2.2,1.4c0.5,0.2,0.9,0.4,1,0.4
			c0.2,0,0.6,0,0.6,0s0.7-0.1,0.8-0.9c0.1-0.8-0.8-0.2-2.4-1.8c-1.6-1.6-2.3-2.8-2.3-2.8s-0.4-1.4-1.6-2.9c-1.3-1.4-3-2.8-3-2.8
			s-1.1-0.9-2.9-1.3c-1.7-0.5-2.2-0.5-2.3-1.2c-0.1-0.7,2.1-0.4,2.1-0.4s2.5,0.3,4.5,1.3c2,1,3.2,2.1,3.2,2.1l1.4,1.1l0.9,0.8
			l0.9,0.5c0,0,0.9,0.8,1.1-0.3c0.2-1.1-0.2-1.8-0.3-2c-0.1-0.3-0.9-0.9-0.9-0.9l-3.3-2.8c-1-1-1.7-1.7-2.7-2.4
			c-1-0.6-2.6-1.7-4.3-2.4c-1.6-0.7-2.7-0.5-4.3-1.3c-1.2-0.6-2.1-0.9-2.8-1.8c-0.2-0.2-1-0.8,0.5-0.5c1.5,0.3,2.6,0.8,4.2,1.2
			c2.7,0.7,4.3,0.6,6.9,1.6c1,0.4,2.4,1,2.4,1l3.1,1.3c0,0,4.3,2.4,7.4,2.4c3.1,0.1,5.5-0.6,6.5-1c1-0.4,2.9-1.4,3.4-1.9
			c0.5-0.5,0.8-0.9,0.8-0.9s0.2-0.5,0.3-0.8c0-0.3,0.1-0.4,0-0.6c-0.8-1-2.5,1.7-5.3,2.2c-2.8,0.5-2.7,0.8-4.5,0.5
			c-2-0.3-3.2-0.9-4.8-2.3c-2.7-2.5-3.8-4.8-7.2-6.4c-1.6-0.7-4.2-1.3-4.2-1.3s-3.6-1.1-5.7-2.3c-1.5-0.9-4.7-1.3-3.7-2.7
			c0.5-0.7,4.5,1.7,7.5,2.1c2.1,0.3,3.6,0.2,5.4,0.1c1.8-0.1,4.1-0.5,4.4-0.5c0.3-0.1,1.7,0,2.8,0.3c1.2,0.3,1.8,0.8,2.9,1.3
			c1.1,0.5,2.6,1.3,2.8,1.3s0.7,0.1,0.7,0.1s0.3-0.2,0.4-0.4c0.1-0.2,0.1-0.4,0.1-0.4l-0.1-0.4l-0.5-0.4l-1-0.7c0,0-1.5-0.9-2.8-2.2
			c-1.3-1.3-2.6-2.8-4.6-3.5c-2-0.7-4.3-1-4.3-1l-2.3-0.2l-1-0.1c0,0-1.6-0.5-0.3-0.9c1.3-0.4,2.1-0.5,2.3-0.6
			c0.2-0.1,2.4-0.3,3.8,0.2c1.4,0.5,3.5,1.6,3.7,1.7c0.2,0.1,2.1,1.6,4.3,2.2c2.2,0.5,5.1,0.6,5.1,0.6s1.1-0.2,1.4-0.3
			c0.3-0.1,0.4-0.2,0.6-0.2c0.2,0,0.5-0.2,0.5-0.4c0-0.2-0.1-0.9-0.1-0.9s0.1-0.7-1-0.9c-1-0.1-2.9-0.5-4.8-1.9
			c-1.9-1.4-3.3-2.7-3.3-2.7s-1.4-1.2-3.9-1.8c-2.5-0.6-3.3-0.7-3.3-0.7l-0.9-0.3l-1.9-0.9c0,0-0.9-0.5-1.5-1.3
			c-0.6-0.8-1.7-2.4,1.1-1.4c2.8,0.9,3.4,1.3,3.4,1.3s1.5,1.5,2.8,1.6c0.8,0.1,1.5,0.3,2-0.3c0.8-0.9-1.6-1.9-3.3-3
			c-1.3-0.9-2.6-2.9-2.6-2.9s-1-0.9,0.5-0.5c1.5,0.4,4.2,1.9,4.2,1.9s1.4,0.6,1.9,0.9c0.5,0.2,1.9,1.1,2.4,1.3
			c0.5,0.2,2,0.4,3.1,1.1c1.3,0.8,2,2.1,2.7,2.7c0.7,0.5,1.2,1.3,1.9,1.5c0.8,0.2,1,0.5,1.6,0.2c0.5-0.3,0.6-0.6,0.6-0.6
			s0.1-0.4-0.6-0.9c-0.8-0.5-1.8-1.8-1.8-1.8l-0.3-0.7l-0.2-0.6l-0.9-1.3l-1.5-2.2c0,0-2.4-3.2-4.4-4.3c-2-1.1-3.4-1.8-3.4-1.8
			s-1-0.4-1.6-0.9c-0.8-0.6-1.1-1.2-1.8-1.9c-0.9-1-1.2-1.7-2.2-2.7c-1.8-1.9-7.6-2.8-5.3-4.2c1.1-0.7,2.7-0.4,3.4-0.2
			c0.7,0.2,2.2,0.9,3.6,1.3c1,0.3,1.7,0.3,2.7,0.6c1.1,0.3,2.2,0.5,2.7,0.9c0.5,0.3,1,1,1.3,1.1c0.2,0.1,1.5,2.3,3.9,3.4
			c2.4,1.2,3.5,1.9,5.9,2.1c1.9,0.2,4.8-0.6,4.8-0.6s0.9-0.4,0.1-1.2c-0.8-0.8-0.8-0.9-1.5-1.2c-2.6-1.1-4.8-0.7-6.8-2.7
			c-0.8-0.8-1.1-1-1.8-2.4c-0.6-1.3-0.3-1.6-0.8-2.5c-0.4-0.8-1.2-2-1.2-2s-2.4-2.9-5.3-4.5c-2.8-1.5-4.8-3-5.3-3.4
			c-0.5-0.4-1.5-1.7-1.5-1.7s-0.8-1-0.9-1.3c-0.1-0.3-0.4-0.6-0.5-1.1c-0.4-1.9,3,0.6,4.8,1.1c3.1,0.9,4.5,2.3,7.5,3.3
			c1.7,0.6,2.7,0.6,4.4,1.2c2.9,1.2,3.6,4,6.8,4.3c1.7,0.2,5,0.9,4.4-0.7c-0.7-1.7-4-1.6-5.7-3.6c-0.8-0.9-0.9-1.6-1.6-2.5
			c-1.4-1.6-4.5-3.2-4.5-3.2s-1.1-0.9-2.1-3.2c-1.1-2.4-3.6-4-8-6.2c-3-1.5-9-1.8-6.7-3.4c1.4-1,2.5-0.9,4.4-0.3
			c1.9,0.6,2.5,1.4,3.9,2.2c1.5,0.7,2.1,0.9,2.4,1c0.3,0.2,1.6,0.6,2,0.7c0.4,0.1,2.9,0.6,3.5,0.7c0.6,0.1,3.4,0.8,3.4,0.8l2.8,1
			c0,0,1.3,0.5,2.2,0.5c0.9,0,2.2-0.4,2.2-0.4l1-0.7l0.2-0.3c0,0,0.5-0.8-0.8-1c-1.2-0.2-1.8-0.2-1.9-0.2c-0.2,0-0.8-0.4-1.1-0.4
			c-0.3,0-0.5-0.2-0.5-0.2s-2.3-1.9-4.4-2.7c-2.1-0.9-2.6-1-2.6-1s-0.5-0.1-0.8-0.2c-0.3,0-1-0.2-1-0.2s-0.9,0-2.2-1.2
			c-1.4-1.2-1.8-1.8-3-3c-0.6-0.6-1.6-1.6-1.6-1.6s-1.4-1-1.3-1.9c0.1-1.3,3,1.4,3,1.4l1.9,1.3c0,0,1.6,1.2,4.7,1.3
			c3.1,0.1,6.7-0.9,6.7-0.9s0.5-0.4,2.2,0.2c1.7,0.5,3,1.5,3,1.5l1.3,1.1c0,0,1.9,2.3,2,2.2c0.2-0.1,0.1,0,0.3-0.2
			c0.2-0.2,1-1.1-0.5-2.9c-1.5-1.8-4.1-3.5-4.1-3.5s-3.4-2-6.7-2.7c-3.3-0.7-4.9-0.7-4.9-0.7s-2.5,0-4-1.7c-1.4-1.7-2.6-3.3-2.6-3.3
			l-1.1-0.8c0,0-0.9-1-2.4-1.7c-1.6-0.7-3.2-1.6-3.2-1.6s-2.4-0.9-2.6-2c-0.5-2.2,4.1,0,6.7,0.5c2.3,0.5,3.4,1.4,5.7,1.8
			c2,0.4,3.2,0.6,5.3,0.6c1.2,0,1.9-0.2,3.1-0.3c1.3-0.1,2-0.2,3.2,0c1.7,0.3,2.4,1.1,4,1.8c1,0.5,1.5,1.1,2.7,1.2
			c1,0.2,3,0.8,2.7-0.2c-0.1-0.3-0.3-0.4-0.4-0.7c-0.8-1.1-1.8-1.2-2.9-2c-2.2-1.6-3.2-3.1-5.6-4.3c-1.7-0.8-2.7-1.2-4.5-1.5
			c-1.4-0.2-2.3,0.2-3.6-0.2c-1.5-0.4-2.1-1.2-3.4-2c-2.4-1.4-3.6-2.5-6.2-3.6c-1.7-0.7-4.5-1.3-4.5-1.3l-1.2-0.2
			c0,0-0.3-0.1-0.5-0.1c-2.3-0.8,4.1-2.7,7.1-3.5c1.4-0.4,2.1-0.7,3.7-0.6c1.4,0.1,2.8,1.9,4.3,1.1c2.1-1.2-2.6-4.4-4-4.9
			c-2-0.8-5.5-0.1-5.5-0.1l-7.7-0.1l-2.1-0.3c0,0-1.3,0-2.3-1.1c-1-1.1-4.8-5.9-9.3-6.6c-4.4-0.7-5.9,0.1-6.2-0.4
			c-3.8-6-7.9-7.4-10.9-10.3c-0.9-0.8-2.2-2.7-2.5-2.4c-0.3,0.2-0.8,2.7-1.7,4.8c-1.1,2.4-0.4,3.7,0.2,4.6c0.6,0.9,1.5,1.6-0.1,2.7
			c-1.7,1-3.8,0.7-3.8,0.7s-1.9-0.4-3.4-1.1c-1.5-0.7-4.7-2.1-4.7-2.1s-3-0.9-5.1-0.7c-2.1,0.2-2.2,0.3-3.6,0.5
			c-0.8,0.1-1.2,0.1-2,0.3c-0.6,0.1-1.5-0.3-1.5,0.5c0,0.8,1.7,0.9,2.9,1.3c1.3,0.5,3.9,0.5,3.3,1.1c-0.6,0.6-3.1,0.8-3.3,0.7
			c-0.2-0.1-1.9-0.4-3.1-0.3c-2.2,0.1-2.3,0.2-5.5,1.7c-0.4,0.2-0.4,1.3,0.7,1c1.1-0.3,2.8-0.7,4.7-0.6c2,0.1,3.1,0.7,5.1,1.2
			c1.7,0.4,1.9,0.9,4.3,1.1c0.5,0.1,1.6-0.3,1.5,0.3c0,0.4-0.7,0.8-0.7,0.8s-1.6,0.3-1.3,0.9c0.3,0.7,1.8,0.1,2.4,0
			c0.7-0.1,1.7,0.2,1.5,0.9c-0.1,0.3-0.2,0.4-0.4,0.5c-1.8,0.5-2.8,0.8-4.6,1.5c-4.2,1.6-5.9,3.7-9.9,5.7
			c-3.8,1.9-10.1,4.2-10.1,4.2s-1.9,1-4.5,1.6c-2.6,0.6-2.9,0.6-4.7,0.8c-1.9,0.2-2.7,0.4-4.3,1.3c-1,0.6-1.5,1-2.4,1.8l-2.4,3.5
			l-1.3,2c-0.4,0.6-0.6,1-0.9,1.6c-0.4,0.8-0.6,1.2-0.7,2c-0.5,2-0.1,3.2,0.3,5.2c0.1,0.5,0.2,0.9,0.3,1.4c0.1,0.5,0.9,1,0.9,1
			l0.7,0.2c0,0,2.3-0.2,3.8-0.5c1.6-0.4,3.6-0.8,3.6-0.8s2.6-0.8,2.8-0.9c0.2,0,1.8-0.6,1.8-0.6s1.2,0,1.4,0.6
			c0.2,0.5-0.3,1.3-0.3,1.3s-1,0.5-1.8,0.8c-0.9,0.3-2.8,0.9-3,1c-0.2,0-2.2,0.6-2.2,0.6l-1.4,0.4c0,0-0.4,0.1-0.7,0.6
			c-0.3,0.5-0.2,0.5-0.2,0.9c0.3,0.4,0.5,0.6,0.8,0.9c0.6,0.5,1,0.8,1.8,1c1.1,0.4,1.8,0.4,3,0.4c1.7,0,2.7-0.3,4.3-1
			c1.3-0.8,1.8-0.9,3.6-1.5c0.5-0.2,1.4-0.4,1.9-0.4c3.2-0.3,5,0.2,8.2,0.7c3.1,0.5,4.7,1.4,7.9,2c3.4,0.6,5.4,1.5,8.8,0.7
			c1.7-0.4,2.7-1.1,3.6,0.5c0.9,1.6,0.7,2.4,0.7,2.4s0,1-1.2,4.2c-1.2,3.1-4.8,11-4.8,11l-2.5,5.1c0,0-2,3.9-6.7,9.2
			c-4.6,5.2-5,5.6-5,5.6s-2.4,1.8-5,4.9c-2.6,3.2-2.6,4.4-4.9,6.7c-1.5,1.5-2.3,2.4-4.2,3.4c-1.9,1.1-4,0.7-9.9,4.8
			c-5.1,3.5-7.6,6.3-8,6.2c-0.4-0.1-2.1-1.5-2.6-1.9c-0.5-0.3-10.2-6.9-10.2-6.9l-4.1-2.7l-1.8-1.1l-0.6-0.3l-0.9-1.4
			c0,0-1.4-1.8-3.3-3.4c-1.9-1.6-3.9-2.9-6.9-3.7c-2.8-0.8-4.7-1.3-7.5-0.4c-1.9,0.6-2.8,1.3-4.3,2.6c-1.7,1.6-2.1,3-3.4,5
			c-1.3,1.9-2.7,3.9-3.4,4.9c-0.7,1-2.1,3.8-2.1,3.8s-3.3,5.3-5.2,8.8c-2.1,3.8-3,6.1-5.1,9.9c-3.2,5.8-7.6,11.9-8.8,14.6
			c-1.2,2.6-1.3,2.9-1.3,2.9s-0.4,1.5-0.5,2.4c-0.1,0.9-0.1,2.6-0.3,3.4c-0.1,0.8-0.6,1.6-0.8,1.8c-0.2,0.2-2.1,4-2.7,6.5
			c-0.6,2.6-2.2,10.4-0.3,11.4c1.8,1,15.4-4.8,17.2-10.6c1.1-3.7-3.7-5.5-2.4-8.8c0.4-1.1,0.9-1.3,1.6-2.5c1.3-2.1,0.8-6.7,3.4-11
			c1.9-3,5.5-6.9,10.6-12.6c3.1-3.5,6.2-9.3,6.2-9.3s0.7-2,2.1-1.7c1.4,0.3,2.8,0.2,2.8,0.2s0.6,0.4,0.7,0.5
			c0.2,0.1,1.3,1.3,1.3,1.3l2.1,3.1c0,0,3.3,4.9,4.5,6.2c1.2,1.3,2.4,2.3,3.9,3.7c1.8,1.7,2.5,2.5,4.8,4.3c3.4,2.7,2.1,3.6-2.2,1.3
			c-1.5-0.8-3.8-1.6-5.7-2.1c-1.9-0.5-9.6-2.5-13.4-3c-3.7-0.5-4.3-0.4-4.3-0.4s-1.9-0.1-4,1.2c-2.1,1.3-3.4,2.4-3.4,2.4
			s-2.5,2.9-2.7,3.4c-0.2,0.5-1.4,2.5-1.4,2.5s-0.6,1-0.9,2.2c-0.3,1.2-0.2,2.4-0.2,2.4l0.1,2.5l0.2,2.4c0,0,0.4,5.8,1.8,11.8
			c0.4,1.7,0.7,4.4,0.7,4.4l0.8,6c0,0,0.6,6.4,1,8.4c0.4,2,0.8,2.2,1.1,3.6c0.6,2.5-0.6,3.7,0.7,6.7c1.3,2.9,2.2,2.6,3.4,4.4
			c0.8,1.3,1.1,1.6,1.8,3.4c0.7,1.7,2.8,7.1,5.4,11.3c2.6,4.2,6.3,9.4,8.6,8.8c2.3-0.6,4-4.1,4-4.1s2.7-7.1,1-14.3
			c-1.7-7.2-9.4-3.8-10.3-9.1c-0.2-1.1-0.1-3-0.1-3s-0.2-2.2-0.5-2.8c-0.3-0.6-3.1-5.8-4.1-9.8c-0.8-3.1-0.7-13.3-1.4-16.2
			c-1.8-7.4-2.1-6.7-1-8c1.1-1.3,2.2-1,2.2-1s1.2,0.1,1.4,0.1c0.3,0,1.2,0.5,1.2,0.5s1.4,0.8,2.2,1.4c0.7,0.6,3,2.4,3,2.4l5.7,3.6
			c0,0,3.2,1.8,4.6,2.5c1.4,0.6,2.6,1.5,2.6,1.5l1.5,1l2.6,1.8c0,0,0.4,0.3,0.6,0.5c0.2,0.2,0.4,0.6,0.4,0.6s1.2,2.7,6.1,5.6
			c4.1,2.4,7.6,1.7,9.1,3.5c0.3,0.3,3.1,4.1,4.6,6.5c1.6,2.7,3.6,5.9,4.3,6.9c0.7,1,4.9,6.2,4.9,6.2l5.4,6l7.2,6.6l6.5,5.5l4.1,3.3
			c0,0,3.7,3.6,7.9,6.4c4,2.7,4.2,3.1,6.8,4.8c2.1,1.4,4.7,3.1,7.3,5.2c2.6,2.2,5.6,6.1,4.5,7.5c-0.8,0.5-2.4-1.6-5.3-4.2
			c-2.4-2-3.5-3-5.9-4.8c-3-2.3-4.5-3.5-7.9-5.5c-1.6-1-4.7-2.9-4.8-2.5c-1.2,3.5-0.9,6.9-0.8,11.3c0.1,3,0.7,6.1,1.6,9.8
			c0.9,3.7,1.7,5.6,3,9.2c1.4,3.6,3.9,9,3.9,9l3.9,7.7l3.5,5.9l1.9,3.1l0.6,0.9c0,0,0.8,2,0,3.3c-0.8,1.3-1.9,4.1-3.3,4.4
			c-1.4,0.3-5,0.6-5,0.6l-19.9-0.3l-10.4-0.9c0,0-1.1-0.7-7.2-0.6c-3.5,0.1-6.4,1.4-8.4,1.6c-1.6,0.1-9.9-0.5-15.4,1.7
			c-5.1,2.1-7.6,2.6-9.4,6c-1.4,2.5,6.5,6.5,13,8c10.6,2.4,7.5-2.2,11.5-5c0.5-0.3,0.7-0.7,1.2-0.9c2.7-0.8,4.1,1.3,6.9,1.4
			c3,0,4.6-1,7.6-1.5c15.2-2.1,38.9,5.1,38.9,5.1s5.8,1.9,8.6,1.3c3.2-0.7,2.6-1.8,3.6-3.6c0.8-1.5,0.5-1.9,0.6-3.5
			c0.1-1-0.2-1.5-0.4-2.5c-0.6-2.8-2.4-6.8-2.4-6.8s-1.3-3-1.8-4.6c-0.7-2.2-1.3-3.5-1.6-5.8c-0.9-6.3-0.8-5.6-0.8-9.2
			c0-6.3,0.7-9.9,2.4-16c2.5-9,7.2-12.8,10.6-21.5c0.9-2.3,1-5.8,2.3-6c1.3-0.2,1.2,4.2,0.5,6.7c-2.2,8.8-7.6,12.5-10,21.3
			c-1.8,6.8-2.8,10.9-2.4,17.9c0.2,3.9,1.7,9.9,1.7,9.9s2,6.7,3,9.2c1,2.5,2.9,6.8,2.9,6.8l4.5,8.1l2.4,3.8c0,0,1.7,1.6,0.9,4
			c-0.9,2.5-2.6,4-4.5,6.2c-5.7,6.6-18.9,16.5-22.2,19c-4.7,3.5-4.5,4.4-4.9,5.6c-1.9,5.3-7.2,5.5-13.1,11.9c-1.3,1.4-4.9,5-4.1,8.1
			c0.3,1.1,14.8,3.7,23.2,0.1c6.5-2.8,0.9-6,2.6-9.2c1.3-2.3,4.7-2.3,6.2-4.3c2.5-3.3,0.8-3.1,3.1-5.9c7.3-8.7,11.8-13.7,24.7-21.5
			c1.2-0.7,3.3-1.7,3.3-1.7s1.8-0.9,2.5-1.9c0.9-1.3,0.6-2.5,0.6-4.1c0-1-0.1-1.6-0.2-2.6c-0.1-1.2,0.1-1.9-0.1-3
			c-0.4-1.8-1.6-3.4-2.2-4.3c-0.6-0.9-1.8-2.4-2.6-5.6c-0.8-3.2-0.9-5.9,0.5-9.4c1.4-3.5,4.4-6.4,4.4-6.4l7.6-5c0,0,6.5-4.7,8.6-6.5
			c2.1-1.8,6.3-5.7,9.4-10.1c3.4-4.9,5.4-7.9,6.8-13.7c0.5-2.1,0.9-5.5,0.9-5.5s-0.1-2.4,1.3-2.5c1.3-0.1,1.6,0.4,1.6,0.4
			s1.2,0.6,1.4,4c0.2,3.4-0.9,7.1-0.9,7.1s-1,3.8-1.3,6.2c-0.2,1.5-0.2,2.4-0.2,3.9c0,2.8,1.2,5.1,1.2,5.1s0.7,0.5,0.7-0.7
			c0-1.3,0.3-3.4,0.9-5.4c0.5-1.7,0.8-1.3,1.8-4.2c1.3-3.7,0.1-3.3,0.9-5.5c0.4-1.1,1.1-2,2.1-2c1-0.1,1.1,1.4,1.1,1.4
			s1,4.4,0.1,8.4c-0.9,4-3.8,9.5-3.8,9.5l-2.4,4.1c0,0-1.6,2.8-2.3,4.7c-0.7,2-0.9,2.8-0.5,4.6c0.4,1.9,2,4.7,2.8,4.2
			c0.7-0.5-1-2.3,1-6.3c2-4,4.7-6.5,4.7-6.5s3.7-4.4,5.4-7.6c1.5-2.9,2.9-7.9,2.9-7.9s1.1-4.4,0.9-8c-0.2-3.6-0.8-5.4-0.8-5.4
			s-1.3-2.4-1.5-2.7c-0.2-0.3-0.9-1.6-0.9-1.9c0-0.4,0-1.1,0.4-1.2c0.4-0.1,1.5,0.6,2.5,2c1,1.4,1.9,3.1,2.6,5.3
			c0.5,1.7,0.6,3.2,0.7,4.6c0,1.4-0.4,6.8,1.6,10.4c0.9,1.6,2.9,5.5,3,3.8c0.3-3.9-1.3-5.7-1.1-9.1c0.2-4,1.1-3,1.5-5
			c0.4-2.1,0.9-2.7,0.5-5.5c-0.4-2.7-1.5-6.2-1.5-6.2s-1-2.4-1.1-2.7c-0.1-0.3-0.5-1-0.5-1s0.3-0.4,0.8-0.6c0.5-0.1,4-1.4,4-1.4
			s5.1-2.4,7.3-4c2.1-1.6,4.7-4.2,4.7-4.2s3.4-4.2,5-7.2c3.9-7.5,4.1-17.1,3.9-21.4c-0.2-4.2-1.3-9.8-1.3-9.8s-1.3-6.7-1-11
			c0.3-4.4,0.7-6.4,0.7-6.4s-0.1-4.4,3.5-9.1c3.6-4.7,5.3-7.8,6-11.1C346.1,232.5,345,227.7,343.7,229.6z M232.9,199.5
			c-0.5-0.1-1.2-0.6-1.2-0.6s-0.1-0.2,0.3-0.5c0.5-0.3,1.1-0.1,1.1-0.1s0.2,0.1,0.4,0.2c0.2,0.2,0.8,0.8,0.8,1.2
			C234.4,200,233.4,199.5,232.9,199.5z M235,194c-0.6-0.1-1.4-0.7-1.4-0.7s-0.2-0.3,0.4-0.6c0.5-0.3,1.3-0.2,1.3-0.2
			s0.3,0.1,0.5,0.3c0.2,0.2,0.9,1,1,1.4C236.8,194.6,235.6,194.1,235,194z M236.8,188.2c-0.7-0.1-1.7-0.9-1.7-0.9s-0.2-0.3,0.5-0.7
			c0.6-0.4,1.6-0.2,1.6-0.2s0.3,0.1,0.6,0.3c0.3,0.3,1.2,1.2,1.2,1.7C239,189,237.5,188.3,236.8,188.2z M238.3,183
			c-0.7-0.1-1.7-0.9-1.7-0.9s-0.2-0.3,0.5-0.7c0.6-0.4,1.6-0.2,1.6-0.2s0.3,0.1,0.6,0.3c0.3,0.3,1.2,1.2,1.2,1.7
			C240.5,183.8,239,183.1,238.3,183z M239.8,176.8c-0.8-0.1-1.9-1-1.9-1s-0.2-0.4,0.5-0.8c0.7-0.5,1.8-0.2,1.8-0.2s0.4,0.1,0.7,0.4
			c0.3,0.3,1.3,1.3,1.4,1.9C242.3,177.7,240.5,176.9,239.8,176.8z M240.9,170.2c-1-0.2-2.3-1.2-2.3-1.2s-0.3-0.4,0.6-1
			c0.9-0.5,2.2-0.3,2.2-0.3s0.4,0.1,0.8,0.5c0.4,0.3,1.5,1.6,1.6,2.3C243.9,171.2,241.8,170.4,240.9,170.2z M241.5,163.4
			c-1.2-0.2-2.8-1.4-2.8-1.4s-0.3-0.5,0.7-1.2c1.1-0.7,2.6-0.3,2.6-0.3s0.5,0.1,1,0.5c0.5,0.4,1.9,2,2,2.8
			C245.2,164.7,242.7,163.6,241.5,163.4z M242.5,155.8c-1.3-0.2-3.2-1.7-3.2-1.7s-0.4-0.6,0.9-1.4c1.2-0.8,3-0.4,3-0.4
			s0.6,0.1,1.2,0.6c0.5,0.5,2.2,2.3,2.3,3.3C246.7,157.2,243.9,156,242.5,155.8z M241.8,124.7c-1-0.1-2.4-1.1-2.4-1.1
			s-0.3-0.4,0.7-0.9c0.9-0.5,2.3-0.2,2.3-0.2s0.5,0.1,0.9,0.4c0.4,0.3,1.6,1.5,1.7,2.2C245,125.7,242.9,124.8,241.8,124.7z
			 M245.5,132.3c0.1,0.7-2.2-0.2-3.3-0.4c-1.1-0.2-2.6-1.3-2.6-1.3s-0.3-0.5,0.7-1.1c1-0.6,2.4-0.3,2.4-0.3s0.5,0.1,0.9,0.5
			C244.1,130.2,245.4,131.5,245.5,132.3z M240.6,144.6c1.1-0.7,2.6-0.3,2.6-0.3s0.5,0.1,1,0.5c0.5,0.4,1.9,2,2,2.8
			c0.1,0.8-2.4-0.2-3.6-0.4c-1.2-0.2-2.8-1.4-2.8-1.4S239.6,145.3,240.6,144.6z M242.8,139c-1.2-0.2-2.8-1.4-2.8-1.4
			s-0.3-0.5,0.7-1.2c1.1-0.7,2.6-0.3,2.6-0.3s0.5,0.1,1,0.5c0.5,0.4,1.9,2,2,2.8C246.5,140.2,244,139.1,242.8,139z M244.9,113.8
			c1.4,0.4,1.6,1.1,1,1.2c-0.7,0.2-1,0.1-1.5,0.1c-1.4-0.1-1.4-0.6-3.4,0.4c-2,1-0.5,0.5-3.3,1.5c-2.8,1-2.1-1.7-2.1-1.7
			s0.2-0.5,0.6-1.8c0.4-1.3,1.9-0.1,3.2-0.1C241.6,113.5,243.5,113.4,244.9,113.8z M237.5,103.4c0,0,0.4,0.1,0.8,0.4
			c0.4,0.3,1.5,1.6,1.6,2.3c0.1,0.7-2-0.2-2.9-0.3c-0.9-0.2-2.3-1.2-2.3-1.2s-0.3-0.4,0.6-1C236.2,103.2,237.5,103.4,237.5,103.4z
			 M231.4,95.4c0.9-0.5,2.1-0.3,2.1-0.3s0.4,0.1,0.8,0.4c0.4,0.3,1.5,1.6,1.6,2.3c0.1,0.7-2-0.2-2.9-0.3c-0.9-0.2-2.3-1.2-2.3-1.2
			S230.5,95.9,231.4,95.4z M229.7,203.7c0.5-0.3,1.1-0.1,1.1-0.1s0.2,0.1,0.4,0.2c0.2,0.2,0.8,0.8,0.8,1.2c0,0.4-1-0.1-1.5-0.2
			c-0.5-0.1-1.2-0.6-1.2-0.6S229.3,204,229.7,203.7z M162.7,124.2c-0.6,0.4-0.9,0.6-1.5,1c-0.9,0.7-1.6,2.4-2.2,1.8
			c-0.6-0.6-0.3-2.3-0.3-2.3s0.4-1.4,1.2-2.7c0.8-1.4,1.9-1.4,1.9-1.4c1.1-0.1,2.8,0.7,2.9,2.2C164.7,124.3,163.5,123.6,162.7,124.2
			z M176.4,129.4c0,0-0.7,0.2-0.9-1c-0.2-1.2,0.8-1.4,0.8-1.4s1.9-1,2.1,0.3C178.5,128.5,176.4,129.4,176.4,129.4z M194.3,106.5
			c0,0-2.2,3.6-5.1,4.9c-3,1.3-5.1,2-10.7,2.5c-0.8,0.1-0.5-0.6-0.5-0.6s6.5-1.8,10.3-3.8c2.1-1.1,4.4-2.7,5-3.3
			C195.5,104.3,194.3,106.5,194.3,106.5z M81.8,251.4c-0.1,0.8-1,2.3-1.3,2.3c-0.3,0-1-1.6-0.8-2.4c0.2-0.8,0.4-3.2,1.6-2.9
			C82.3,248.8,81.8,250.7,81.8,251.4z M86.2,232.6c0,0-1.5,3.1-2.1,1.9c-0.6-1.2,0.6-3.4,0.6-3.4c1.4-1.2,1.8-2.8,2.4-2.2
			C87.7,229.5,86.2,232.6,86.2,232.6z M107,199.9c-1.4,1.6-6.1,10.5-7.3,9c-1-1.2,4.5-9.5,5.7-11.3c1.2-1.8,2.2-1.5,2.2-1.5
			c0.3,0,0.3,0.4,0.3,0.4S108.4,198.2,107,199.9z M119.5,186.7c0,0-3.4,0.7-2.8-0.5c0.6-1.2,3-1.6,3-1.6c1.8,0.4,2.1,0.5,2.1,1.4
			C121.8,186.8,119.5,186.7,119.5,186.7z M133,210.2c-1.4,1.4-2-0.6-4.3-3c-2.2-2.4-1.7-4.3-1.7-4.3c0.2-0.1,0.3,0,0.3,0l0.4,0.2
			l0.8,0.4l0.6,0.5c0,0,0.7,0.7,1.6,1.6C131.6,206.5,133.4,209.8,133,210.2z M107.2,260.2c-0.6,0.1-1.1-1-1.1-1s-1.3-2-1.8-3.5
			c-0.4-1.3-0.7-3.5-0.7-3.5s-0.4-2.8-0.3-3.8c0.2-1.3,0.1-2.5,0.3-3.1c0.2-0.7,0.8-0.5,0.8-0.5c0.9,0,0.9,0.8,0.9,0.8l0,0.5
			c0,0,0,3,0.2,5.4c0.1,0.8,1.9,8.1,1.9,8.1S107.8,260.1,107.2,260.2z M106.8,225c-1.2,1.8-1.9,1.9-2,1.8c-0.1-0.1-0.3-0.9,0.7-2.9
			c0.9-2,2-1.8,2-1.8c0.3,0,0.3,0.4,0.3,0.4S108,223.2,106.8,225z M118.7,295.1c0.3-0.7,2.5,1.1,2.5,1.1c0.9,0.2,1.6,1.7,1.6,1.7
			s0.4,1.1-0.6,1.6c-1,0.5-1.7-0.5-1.7-0.5S118.4,295.8,118.7,295.1z M134.4,243.9c-2.4-0.4-7.3-4.3-9.4-5.4c-2-1.1-5.3-1.4-3.9-2.6
			c0.2-0.2,0.3-0.4,0.7-0.4c0.4,0,1.8,0.5,1.8,0.6c0.1,0,3.6,1.5,3.7,1.5c0.1,0.1,2.1,0.9,3.5,1.7c1.4,0.8,3.7,2.4,3.7,2.4l1,0.8
			C135.5,242.5,136.8,244.3,134.4,243.9z M154.8,210.7c0,0-2.9,3.8-4.5,6.1c-2.2,3.1-4.8,8.1-5.3,7.6c-0.6-0.5,2.3-5.8,3.8-8.8
			c1.7-3.4,4.2-5.3,5.1-5.7C156.1,208.9,154.8,210.7,154.8,210.7z M145.8,378.1c0,0,0,0.7-1.2,1.5c-1.2,0.8-1.6,0.3-1.8,0.3
			c-0.2,0-1.4-0.7-1.3-1.3c0.1-0.7,2-1.1,2-1.1C146.6,377.2,145.8,378.1,145.8,378.1z M171.8,377.1c-1.2-0.1-1.3-0.4-1.3-0.6
			c0-0.2,0.3-0.4,1.6-0.5c1.3-0.1,1.3,0.6,1.3,0.6C173.5,377.1,173,377.2,171.8,377.1z M201.5,378.7c-2.4,0.7-3.5,0.3-5.7,0.5
			c-1.8,0.1-2.8,0.3-4.5,0.3c-3.2-0.1-3.4,0.2-8.1-1.2c-0.9-0.3-1.8-1.3-1.6-1.7c0.3-0.5,1-0.3,1-0.3s5.7,0.9,9.4,1.2
			c2.6,0.2,4.1,0.3,6.7,0.1c1.5-0.1,0.7-0.2,3.1-0.1C202.7,377.4,202.1,378.5,201.5,378.7z M217.3,374c-0.2,0.1-1.1,0.6-2.1,0.7
			c-1,0.1-0.5-0.6-0.5-0.6s0.6-1.1,1.6-1.6c1-0.5,1.5,0.1,1.5,0.1C218.3,373.2,217.6,373.9,217.3,374z M229.8,341.9
			c-1.1,2.5-1.4,3.3-1.7,5.6c-0.3,2.5,1.1,9.6-1.2,6.8c-0.9-1.1-1.6-6.7-1-9.4C227.1,339.1,231.9,337.5,229.8,341.9z M195.9,444.1
			c-1.1,0.7,1,2.7-2.1,2.5c-1.8-0.1-0.9-1.8-0.8-2.1c0.2-0.3,1-1.4,1.2-1.6c0.8-1.1,1.3-1.3,2.2-1.8c0.9-0.5,1.6,0.7,1.6,0.7
			s0.4,0.5,0.4,1.2C198.4,443.6,196.8,443.5,195.9,444.1z M213.6,427.3c0,0-1.4,1.1-1.5,1.1c-0.2,0-1.2,0.8-1.5,0.3
			c-0.3-0.5,0.1-1.1,0.2-1.3c0.1-0.1,0.9-1.3,1.8-1.7c0.8-0.4,1.3,0,1.3,0C214.4,426.8,213.6,427.3,213.6,427.3z M221.3,134.3
			c0,0-0.7,2.3-2,2.6c-1.6,0.5-8.1,0.6-8.2,0.2c-0.1-0.5,7.3-1.1,10.3-4.1C222.1,132.3,221.3,134.3,221.3,134.3z M219.1,128.7
			c0.5-0.8,0.2,1.3,0.2,1.3s-0.4,2.2-1.6,2.8c-1.5,0.8-5.3,1.9-5.5,1.4C212,133.8,216.9,132.3,219.1,128.7z M208.7,103.6
			c0,0,0.7,0,1.7,0.6c0.9,0.6,1.6,2.7,1.6,2.7s0.2,0.3-0.6,0.3c-0.6,0-0.5-0.8-1-1.2c-0.6-0.6-1.1-0.7-1.9-1.1
			c-0.8-0.4-2.1,0.2-2.2-0.7C206.2,103.2,208.7,103.6,208.7,103.6z M201.1,109.2c0,0,0.4-1.1,1.8-1.9c1.4-0.8,3.2-0.8,3.2-0.8
			s1-0.1,2.2,0.8c1.2,0.8,2.2,3.7,2.2,3.7s0.3,1.8-0.5,2.5c-0.8,0.7-2.1-0.5-2.8-1.4c-0.8-1-1.4-1.3-2.5-1.7c-1.4-0.5-3.3,1-3.7,0
			C200.8,109.9,201.1,109.2,201.1,109.2z M200.5,132.2c-1.1,0.1-0.3-0.9-0.3-0.9s2.9-1.2,4.7-2.2c2.9-1.6,8.7-7.6,7.2-4.6
			c-0.7,1.4-2.7,3.1-2.7,3.1s-2.3,3.4-2.8,3.8C204.3,133,201.6,132.1,200.5,132.2z M177,197l0.2-0.3c0,0,5.1-3.3,12.9-2.3
			c4.7,0.6,9.2,4.8,8.6,5.3c-0.6,0.6-1.7,0-1.9-0.1c-0.2-0.1-1.4-0.6-1.7-0.8c-0.4-0.1-2.5-0.7-2.5-0.7s-4.5-1-7.8-0.8
			c-3.3,0.1-6.4,1.3-6.4,1.3s-1.4,0.7-1.7-0.2C176.2,197.6,177,197,177,197z M189.2,291.3c-11.5-8.9-25.6-27-23.8-28.6
			c1.5-1.3,7.2,7,15.7,16.1c9,9.8,19.6,18.9,19.9,20.1C201.7,300.9,193.6,294.6,189.2,291.3z M215.5,166.3
			c-4.8,8.3-11.6,14.7-11.6,14.7c-2.3,1.7-0.9-1.3-0.9-1.3s6.5-9,9.5-15.3c2.1-4.4,3.5-10.5,4.6-11.8
			C219.6,149.8,218.3,161.4,215.5,166.3z M228.9,257.9c-5-6.1-8.7-12.5-9.9-20.8c-0.3-1.9-0.3-4.5,1.4-4.2c1.5,0.2,1.3,3,1.4,3.6
			c0.5,4.8,2.5,9.8,6.2,15.6c5.3,8.2,13.6,14.6,13.2,15C240.3,268.2,232,261.6,228.9,257.9z M237.8,406.6c0,0-4.3,4.9-7.3,7.7
			c-2.8,2.7-7.7,6.4-7.7,6.4s-0.4,0.3-0.6,0.1c-0.3-0.2,0-0.5,0-0.5s0.1-0.1,0.1-0.3c0-0.1,0.1-0.2,0.1-0.3c0-0.1,0.3-0.4,0.3-0.4
			s0.2-0.3,0.3-0.4c0.1-0.1,0.3-0.5,0.3-0.5l1-1.1l2.3-2.2l2.3-2.2l3.7-3.6c0,0,1.4-1.5,1.9-1.8c0.4-0.4,0.8-0.7,1.4-1
			c0.7-0.3,1.5-0.8,1.8-0.5C238.1,406.2,237.8,406.6,237.8,406.6z M240.8,290.5c-2.2,1.6-3.1,1.3-4.4,2.9c-1.6,1.8-2,8-3.4,5.5
			c-1.5-2.6-0.6-6,1.9-8.7C238,286.8,244.6,287.8,240.8,290.5z M248.6,400.6c1-0.4,1.4-0.1,1.4-0.1s0.3,0.4,0.3,0.6
			c0,0.2-1.3,2.1-2,2c-0.8-0.1-0.6-1.2-0.6-1.2S247.7,401,248.6,400.6z M277.4,332.6c-1.5-1,0.9-4,0.9-6.6c0-2-0.4-3.5-0.4-5.2
			c0-1.7,1.7-2.2,1.7-2.2c0.3,0,1,0.3,1.8,2.1C282.3,322.5,280,334.3,277.4,332.6z M328.4,284.8c-0.3,7-0.7,12-4.8,17.4
			c-5,6.5-13.8,13.3-11.8,7.9c1.1-3.2,8.9-7.2,11.9-16.1c1.7-5.3,2.1-10.4,2.1-10.4l-0.3-10.2c0,0-0.1-0.9-0.2-2
			c0.5-1.3,1.2-0.3,1.2-0.3l0.3,0.6C326.7,271.8,328.6,279.7,328.4,284.8z"/>
		<path d="M170.4,423.5c0,0-0.8-1.1-1.6-0.3c-0.8,0.8-1.8,2.1-3.7,1.9c-1.9-0.1-2.7-0.4-3.7-0.9c-1-0.5-2.5-1.1-2.5-1.1
			s-3.8-1.5-7-1.5c-3.2-0.1-8.4,1.3-11,4c-2.5,2.7-3.2,5.6-3.2,5.6s-0.8,5,0.6,7.3c1.4,2.3,3,4.8,6.5,6.9c3.5,2.2,5.1,3,5.1,3
			l6.1,2.8l5.7,2.1c0,0,8.2,2.4,9.2,8.6c1,6.2-2.7,14.2-14,14.9c-11.1,0.7-16.5-4.7-18.2-8.1c-1.7-3.5-0.7-6.4-0.7-6.4l0.5-0.9
			l0.4-0.2c0,0,1.7,1.2,3.4,0.9c1.7-0.2,4.8-2.2,4.1-5.6c-0.6-3.3-3.6-4.1-5.1-3.9c-1.4,0.1-7.8,1.8-7.9,11
			c-0.1,9.2,8.3,14.2,8.3,14.2s6,3.7,12.7,3.4c6.7-0.3,12.3-3,12.3-3s10-5,10.2-15.8c0.3-10.8-6.6-14.6-6.6-14.6s-2.5-1.7-4.7-2.8
			c-2.2-1-7.6-3.6-7.6-3.6l-5.5-2.5l-3.3-1.9l-1.9-1.3c0,0-4.5-3.5-2.1-7.3c2.4-3.8,9.2-2.4,9.2-2.4s5.3,1.1,9.5,4.1
			c4.1,3,6.6,6.6,6.6,6.6l1.7,2.8l0.2,0.4l1.5-0.5c0,0-2.3-6.4-2.7-9.1C170.8,427.6,170.4,423.5,170.4,423.5L170.4,423.5z"/>
		<path d="M236.2,460.1c0,0,1.5,1.6,3.5,1.6c2,0,4.8-1.4,4.8-5c0-3.6-3.7-4.5-3.7-4.5s-5.5-1.3-8.2,4.3c-2.7,5.6-1.2,10.4-1.2,10.4
			s1.3,7.5,9.2,12c8,4.4,16.5,1.2,16.5,1.2s6.4-2.1,11.9-8.3c5.5-6.2,8.2-13.6,8.2-13.6l1.9-4.8l2.3,0c0,0,3.2,0.3,5.5-1.6
			c2.3-1.9,3.7-4.4,3.7-4.4l0.3-0.8l-1.5-0.7c0,0-1.7,2.2-4,2.4c-2.3,0.2-4.8-0.2-4.8-0.2l2.2-6c0,0,2.6-5.2,3.3-6.4
			c0.7-1.2,3.8-5.1,3.8-5.1s6.2,0,12.2-1.3c6-1.3,9.7-2.8,9.7-2.8l7.4-3.1l1.8-1l-0.6-1.5c0,0-6.7,2.4-16.6,3.5
			c-9.9,1.1-16.1-0.1-16.1-0.1l-11.2-1.7c0,0-3.4-0.6-6-0.6c-2.6,0-8,0.9-8,0.9s-5.4,1.2-7.8,3c-2.4,1.8-8.2,6.1-5.5,12.5
			c2.6,6.5,13.4,3,14.9-1.8c0,0,0.6-1.5,0.6-1.5l0.2-0.9l-0.9-0.3l-1.1,1.3c0,0-4,3.4-7.1,1.2c-3.1-2.2-1-5.2-0.7-5.5
			c0.3-0.3,2-2.4,6-3.3c4-0.9,10.1,0.6,10.1,0.6l6.6,1.2c0,0,3.6,0.7,3.8,0.7c0.2,0,1.3,0.2,1.3,0.2l-2.3,2.5c0,0-3.3,3.2-5.7,7.8
			c-2.3,4.6-3.4,7-3.4,7l-0.2,0.3c0,0-2.9,0.3-4.8,1.5c-1.9,1.1-3.1,2.9-3.1,2.9l-0.9,1.6l1.2,1c0,0,1.3-1.5,3-1.9
			c1.6-0.4,2.9,0.2,2.9,0.2s-2.4,5.9-3.5,8c-1.1,2.1-3,6-5.7,8.9c-2.7,2.9-4.6,5.4-10.8,6.3c-6.1,0.9-10.5-3.1-12.1-5
			c-1.6-1.9-2.5-4.9-2.6-7C235,462.2,236.2,460.1,236.2,460.1L236.2,460.1z"/>
		<polygon points="0,52.2 0,39.7 208.8,0 417.5,39.7 417.5,52.2 208.8,13.6 0,52.2 		"/>
	</g>
</g>
<g id="Livello_1">
</g>
</svg>
