<?xml version="1.0" encoding="UTF-8"?><svg id="Layer_1" xmlns="http://www.w3.org/2000/svg" viewBox="0 0 442.99 64.39"><defs><style>.cls-1{fill:#1d1d1b;}</style></defs><g><path class="cls-1" d="M43.63,39.58h-14.77v-9.62h25.63V62.73h-5.14l-2.49-7.55c-4.65,5.81-11.45,9.21-19.74,9.21C10.12,64.39,0,52.11,0,32.86,0,13.7,11.86,1.18,29.03,1.18c11.53,0,20.74,5.56,24.39,15.6l-9.04,5.23c-2.32-6.97-7.55-11.2-15.59-11.2-12.03,0-17.59,9.04-17.59,22.06,0,12.69,5.31,22.23,17.17,22.07,7.05-.08,13.27-4.65,15.26-12.19v-3.15Z"/><path class="cls-1" d="M66.91,2.84h11.12V62.73h-11.12V2.84Z"/><path class="cls-1" d="M130.35,39.58h-14.77v-9.62h25.63V62.73h-5.14l-2.49-7.55c-4.65,5.81-11.45,9.21-19.74,9.21-17,0-27.12-12.28-27.12-31.52,0-19.16,11.86-31.69,29.03-31.69,11.53,0,20.74,5.56,24.39,15.6l-9.04,5.23c-2.32-6.97-7.55-11.2-15.59-11.2-12.03,0-17.59,9.04-17.59,22.06,0,12.69,5.31,22.23,17.17,22.07,7.05-.08,13.27-4.65,15.26-12.19v-3.15Z"/><path class="cls-1" d="M153.63,2.84h11.12V62.73h-11.12V2.84Z"/></g><path class="cls-1" d="M408.02,43.29c0,11.53-8.85,20.38-20.7,20.38-12.32,0-20.54-9.8-20.54-21.01,0-11.53,8.85-20.38,20.7-20.38,12.32,0,20.54,9.79,20.54,21.01Zm-7.9,4.58c0-9-5.13-23.93-14.85-23.93-4.74,0-10.58,2.76-10.58,14.14,0,9.01,5.13,23.94,14.85,23.94,4.74,0,10.58-2.76,10.58-14.14Z"/><path class="cls-1" d="M358.21,60.67l6.16,.24v1.74h-19.43v-1.74l6.16-.24v-28.2c0-1.26,0-1.42-1.26-2.05l-4.9-2.45v-.55l13.27-5.92V60.67Zm-3.71-60.67c2.69,0,4.82,2.13,4.82,4.82,0,2.76-2.13,4.82-4.82,4.82-2.77,0-4.82-2.05-4.82-4.82,0-2.69,2.05-4.82,4.82-4.82Z"/><path class="cls-1" d="M327.53,57.43c-2.76,3.87-6.87,6.24-12.32,6.24-8.45,0-17.77-7.11-17.77-20.62,0-12.56,9.24-20.78,18.8-20.78,4.66,0,8.93,1.9,11.3,4.82V3l-7.74-.24V1.03h14.85V59.8h6.16v1.42l-13.27,2.29v-6.08Zm0-3.48V30.65c0-2.69-1.82-3.87-3.55-4.66-1.66-.71-3-1.03-5.06-1.03-6.24,0-13.11,5.77-13.11,17.22,0,10.82,5.92,17.77,13.59,17.77,1.5,0,3.48-.4,5.13-1.26,1.03-.55,3-2.05,3-4.74Z"/><path class="cls-1" d="M288.79,59.72h6.16v1.42l-13.27,2.29v-8.77c-1.74,5.29-6.87,9.01-12.56,9.01-8.45,0-11.69-4.58-11.69-15.01V24.96l-5.16-.24v-1.74h12.27v25.75c0,7.58,2.37,11.22,7.9,11.22,3.71,0,7.19-2.29,9.24-7.11V24.96l-5.16-.24v-1.74h12.27V59.72Z"/><path class="cls-1" d="M225.49,28.04h-8.69l15.8-14.22v9.16h16.94l-3.16,5.06h-13.78v23.54c0,6.16,3.4,8.37,6.71,8.37s6.24-1.9,7.58-5.61l.79,.32c-1.58,5.77-6.4,9.01-11.93,9.01-5.69,0-10.27-2.77-10.27-11.06V28.04Z"/><path class="cls-1" d="M208.75,49.85c0-6.4-6.64-10.82-12.32-13.19l-5.61-2.37c-9.64-4.03-14.93-9.64-14.93-16.9,0-11.38,10.59-16.27,20.62-16.27,4.27,0,9,1.03,12.24,2.84l4.42,18.17h-.95l-7.43-12.17c-3.48-5.61-4.74-7.03-10.27-7.03-6.32,0-12.09,3.71-12.09,10.66,0,6.24,5.06,10.11,10.9,12.56l5.61,2.37c8.93,3.79,16.98,7.9,16.98,17.38,0,10.9-11.53,17.77-21.64,17.77-4.98,0-10.43-.79-15.25-3.08l-4.27-17.93h.95l8.06,12.96c3.08,4.9,4.42,6.24,10.66,6.24,7.74,0,14.3-4.19,14.3-12.01Z"/><path class="cls-1" d="M412.97,45.64h.95l5.85,11.14c2.21,4.27,4.58,5.45,8.53,5.45,5.06,0,8.21-2.92,8.21-7.03,0-4.58-4.66-7.19-9-8.77l-4.9-1.74c-5.29-1.9-9.48-5.13-9.16-11.69,.32-6.64,7.5-10.74,13.67-10.74,4.03,0,8.61,.71,11.69,2.29l2.53,13.03h-.95l-6.24-9.08c-2.53-3.71-3.63-4.74-7.58-4.74-3.87,0-7.35,2.29-7.35,6.71,0,3.63,2.29,6.08,5.85,7.35l4.9,1.74c6.63,2.37,13.03,5.13,13.03,11.85,0,7.11-6.16,12.24-15.01,12.24-4.9,0-9.32-.87-12.56-2.21l-2.45-15.8Z"/></svg>