<?xml version="1.0" encoding="utf-8"?>
<!-- Generator: Adobe Illustrator 16.0.0, SVG Export Plug-In . SVG Version: 6.00 Build 0)  -->
<!DOCTYPE svg PUBLIC "-//W3C//DTD SVG 1.1//EN" "http://www.w3.org/Graphics/SVG/1.1/DTD/svg11.dtd">
<svg version="1.1" id="Layer_1" xmlns="http://www.w3.org/2000/svg" xmlns:xlink="http://www.w3.org/1999/xlink" x="0px" y="0px"
	 width="2500px" height="309.03px" viewBox="0 1024.297 2500 309.03" enable-background="new 0 1024.297 2500 309.03"
	 xml:space="preserve">
<g>
	<path d="M721.299,1309.064c11.621,1.945,19.364-1.92,25.175-5.798v-1.919c-3.865,1.919-7.743,3.852-15.499,3.852
		c-23.242,1.945-19.364-32.904-21.296-61.957c0-60.023-32.918-69.712-54.227-71.645c0,0,9.688-1.933,21.309-5.811
		c17.419-5.811,36.796-21.31,36.796-54.227c0-30.984-19.377-56.159-60.037-56.159h-91.022v1.933h21.297v247.865h-21.297v1.945
		h69.713v-1.945h-17.432v-131.695h21.297c38.728,0,38.728,32.918,40.673,67.78C678.693,1276.16,688.369,1305.187,721.299,1309.064
		L721.299,1309.064z M614.791,1057.321h23.242c29.053-1.933,44.538,21.296,42.605,52.281c0,11.621-1.932,63.901-48.402,61.97
		h-17.432v-114.251H614.791L614.791,1057.321z M1722.487,1309.064c11.62,1.945,19.351-1.92,25.174-5.798l-1.945-1.919
		c-1.919,1.919-5.798,3.852-13.554,3.852c-23.229,1.945-19.351-32.904-21.309-61.957c0-60.023-32.904-69.712-54.214-71.645
		c0,0,9.675-1.933,19.351-5.811c19.377-5.811,38.728-21.31,38.728-54.227c0-30.984-19.351-56.159-60.037-56.159h-92.94v1.933h23.229
		v247.865h-23.229v1.945h71.632v-1.945h-17.432v-131.695h21.31c38.728,0,38.728,32.918,40.686,67.78
		C1679.881,1276.16,1689.557,1305.187,1722.487,1309.064L1722.487,1309.064z M1615.967,1057.321h23.254
		c29.027-1.933,44.539,21.296,42.58,52.281c0,11.621-1.919,63.901-50.335,61.97h-15.499V1057.321L1615.967,1057.321z
		 M337.861,1177.382c0,71.658,48.403,135.561,108.439,135.561c58.092,0,108.44-67.78,108.44-135.56
		c0-69.713-46.471-127.805-108.44-129.75C390.155,1047.633,337.861,1107.67,337.861,1177.382L337.861,1177.382z M372.724,1177.382
		c0-50.349,7.743-127.804,73.591-127.804c63.901,0,71.645,77.469,71.645,127.805c1.933,44.538-7.756,133.627-71.645,133.627
		C388.21,1311.01,372.724,1235.474,372.724,1177.382L372.724,1177.382z M1019.525,1177.382c0,71.658,48.417,135.561,108.44,135.561
		c60.037,0,108.453-67.78,108.453-135.56c0-69.713-46.471-127.805-108.453-129.75
		C1073.739,1047.633,1019.525,1107.67,1019.525,1177.382L1019.525,1177.382z M1054.389,1177.382
		c1.933-50.349,9.676-127.804,73.577-127.804c65.848,0,73.591,77.469,73.591,127.805c0,44.538-7.756,133.627-73.591,133.627
		C1069.875,1311.01,1054.389,1235.474,1054.389,1177.382L1054.389,1177.382z M227.488,1309.064v-104.562h19.364v-1.945h-71.658
		v1.933h21.309v58.104c0,25.148-29.052,46.458-52.294,46.458c-60.024,0-71.645-75.523-71.645-133.615
		c0-27.106,0-125.871,73.59-125.871c48.417,0,69.713,69.712,69.713,69.712v-69.712c-3.865,7.756-11.621,11.621-19.364,11.621
		c-17.431,0-21.309-13.554-50.349-11.621c-54.227,0-108.44,54.227-110.385,125.871c0,96.833,73.59,137.493,108.44,137.493
		c27.12,0,40.673-15.474,50.349-21.31C208.125,1287.755,227.488,1309.064,227.488,1309.064z"/>
	<path d="M916.883,1309.064v-104.562h19.364v-1.945h-71.646v1.933h21.31v58.104c0,27.106-27.106,46.458-52.281,46.458
		c-60.037,0-71.645-73.578-71.645-131.683c0-29.052,0-125.871,73.591-125.871c50.349,0,69.712,69.712,69.712,69.712v-71.645
		c-3.878,9.688-11.621,11.621-19.363,11.621c-17.432,0-21.31-11.621-50.349-11.621c-56.159-1.933-108.453,54.227-108.453,127.804
		c-1.933,96.819,71.645,135.561,106.507,135.561c27.107,0,40.661-15.474,52.281-19.352
		C899.452,1287.755,916.883,1309.064,916.883,1309.064L916.883,1309.064z M2123.331,1221.92h-79.389l40.687-121.993
		L2123.331,1221.92L2123.331,1221.92z M2237.607,1307.132v-1.945h-21.31v-234.312l152.979,240.135h1.945v-253.688h19.351v-1.933
		h-44.538v1.933h23.229v191.719l-123.926-195.597l-54.24,1.933v1.933h23.255v247.865h-31.011l-83.24-255.608h-1.919l-87.144,255.608
		h-42.606v-247.853h25.175v-1.933H1941.3l-67.767,201.382l-71.658-201.395h-50.335v1.933h21.309v247.865h-21.309v1.945h48.402
		v-1.945h-23.229v-222.691l81.32,226.569h1.945l75.511-228.502v224.624h-21.31v1.945h123.952v-1.945h-23.255l27.133-81.334h83.266
		l25.174,81.334h-29.052v1.945h116.209V1307.132L2237.607,1307.132z M1470.744,1221.92h-81.334l42.606-121.993L1470.744,1221.92z
		 M1563.686,1305.187H1532.7l-85.211-255.608h-1.92l-87.144,255.608h-23.229v1.945h50.335v-1.945h-23.229l27.106-81.334h83.267
		l27.106,81.334h-30.984v1.945h94.887V1305.187L1563.686,1305.187z M2411.882,1305.187h-21.31v1.945h71.672v-1.945h-21.31v-247.865
		h21.31v-1.933h-71.672v1.933h21.31V1305.187z M961.435,1305.187h-21.31v1.945h71.646v-1.945h-19.364v-247.865h19.364v-1.933
		h-71.646v1.933h21.31V1305.187z M273.959,1305.187H252.65v1.945h71.658v-1.945h-19.364v-247.865h19.364v-1.933H252.65v1.933h21.309
		V1305.187z"/>
</g>
</svg>
