<?xml version="1.0" encoding="utf-8"?>
<!-- Generator: Adobe Illustrator 22.0.1, SVG Export Plug-In . SVG Version: 6.00 Build 0)  -->
<svg version="1.1" id="Layer_1" xmlns="http://www.w3.org/2000/svg" xmlns:xlink="http://www.w3.org/1999/xlink" x="0px" y="0px"
	 viewBox="0 0 792 144" style="enable-background:new 0 0 792 144;" xml:space="preserve">
<style type="text/css">
	.Arched_x0020_Green{fill:url(#SVGID_1_);stroke:#FFFFFF;stroke-width:0.25;stroke-miterlimit:1;}
	.st0{fill:#FFFFFF;}
</style>
<linearGradient id="SVGID_1_" gradientUnits="userSpaceOnUse" x1="0" y1="385" x2="0.7071" y2="384.2929">
	<stop  offset="0" style="stop-color:#20AC4B"/>
	<stop  offset="0.9831" style="stop-color:#19361A"/>
</linearGradient>
<path class="st0" d="M763,118c0,6.6-5.4,12-12,12H52c-6.6,0-12-5.4-12-12V40c0-6.6,5.4-12,12-12h699c6.6,0,12,5.4,12,12V118z"/>
<g>
	<path d="M115.2,65.6V53.8c0,0-30-17.5-54.6,0c0,0-11.8,9.3-11.8,26.7c0,17.4,13.6,26.7,13.6,26.7s22.1,15.5,53.7,0V77.4H82v11.2
		h21.8v11.2c0,0-40.7,14.3-40.1-19.6c0,0-1.9-18.8,18.3-21.3C82,58.8,95.4,55.1,115.2,65.6z"/>
	<rect x="155.5" y="46.1" width="12.4" height="67.9"/>
	<polygon points="199.6,46.1 213.8,46.1 234.3,95.4 255.4,46.1 270.3,46.1 239.9,112.5 228.7,112.5 	"/>
	<polygon points="300,46.1 300,114 355.2,114 355.2,101.6 313.7,101.6 313.7,85.4 342.8,85.4 342.8,74.9 313.7,74.9 313.7,58.8 
		355.2,58.8 355.2,46.1 	"/>
	<polygon points="391.2,112.5 404.2,112.5 404.2,68.7 444.5,112.5 455.7,112.5 455.7,46.1 443.3,46.1 443.3,91.6 402,46.1 
		391.2,46.1 	"/>
	<path d="M550.6,67.5c0,0-4.3-8.7-26-9.3c0,0-26.7-0.2-25.4,21.9c1.2,22.1,25.7,20.9,25.7,20.9s22.7-0.6,25.8-8.1v14
		c0,0-5,5.6-25.8,7.1c0,0-39.4,1.2-39.4-31.1c0,0-2.5-37.8,36.6-36.9c0,0,21.7-0.3,28.5,5.9V67.5z"/>
	<polygon points="585.9,46.1 599.6,46.1 599.6,74.3 634.9,74.3 634.9,46.1 648,46.1 648,112.5 635.5,112.5 635.5,86.1 599,86.1 
		599,112.5 585.9,112.5 	"/>
	<polygon points="700.7,85.4 700.7,112.5 714.3,112.5 714.3,85.4 745.3,46.1 729.2,46.1 707.5,73.7 687,46.1 670.3,46.1 	"/>
</g>
<g>
</g>
<g>
</g>
<g>
</g>
<g>
</g>
<g>
</g>
<g>
</g>
</svg>
