<?xml version="1.0" encoding="utf-8"?>
<!-- Generator: Adobe Illustrator 24.1.2, SVG Export Plug-In . SVG Version: 6.00 Build 0)  -->
<svg version="1.1" id="Layer_1" xmlns="http://www.w3.org/2000/svg" xmlns:xlink="http://www.w3.org/1999/xlink" x="0px" y="0px"
	 viewBox="0 0 52.6 8.7" style="enable-background:new 0 0 52.6 8.7;" xml:space="preserve">
<g id="svg-icon-garden">
	<g>
		<path d="M15.3,0.4c-0.3,0.2-0.4,0.5-0.4,0.8l0,0v4.7l0,0c0.1,0.7,0.6,1.4,1.3,1.6c1,0.4,2.2,0.3,3.2-0.3l0,0
			c0.4-0.3,0.6-0.8,0.7-1.3V1.2c0-0.3-0.2-0.6-0.4-0.8h1.2c-0.3,0.2-0.4,0.5-0.4,0.8v4.7l0,0c-0.1,0.8-0.6,1.6-1.3,1.9l0,0
			c-1.3,0.6-2.8,0.6-4.1,0l0,0c-0.8-0.3-1.3-1.1-1.4-1.9V1.2l0,0c0-0.3-0.2-0.7-0.4-0.8L15.3,0.4"/>
		<path d="M25.1,4.2c0-1.9,1.4-3.6,3.3-4C28.7,0,29,0,29.4,0c1.1,0,2.1,0.3,3,1c0,0,0.5,0.3,0.5,0.7V3c-0.4-0.9-1-1.7-1.9-2.2
			c-0.5-0.3-1.1-0.4-1.6-0.4l0,0c-0.9,0-1.7,0.5-2.1,1.3l0,0.1c-0.8,1.5-0.8,3.2,0,4.7l0,0.1c0.4,0.8,1.2,1.3,2.1,1.3l0,0
			c0.6,0,1.1-0.2,1.6-0.4c1-0.5,1.7-1.3,2.1-2.3l-0.2,1.5c0,0.3-0.5,0.6-0.5,0.6c-0.9,0.6-1.9,1-2.9,1c-0.4,0-0.7,0-1.1-0.1
			C26.4,7.8,25.1,6.1,25.1,4.2"/>
		<path d="M2.7,6.8c0.4,0.7,1.2,1.1,2,1.1c0.4,0,0.8-0.1,1.1-0.3C6.1,7.4,6.4,7.2,6.7,7c0.2-0.1,0.2-0.4,0.2-0.6V5.4
			c0-0.3-0.2-0.7-0.4-0.9h2.2C8.4,4.7,8.2,5,8.2,5.4v1.2c0,0.2-0.1,0.3-0.2,0.5L8,7.2c-0.9,0.7-2,1.1-3.2,1.1c-0.3,0-0.7,0-0.7,0
			C2.3,8.1,0.9,6.8,0.5,5C0,2.8,1.5,0.6,3.7,0.1C4,0.1,4.4,0,4.8,0c1.1,0,2.1,0.3,3,0.9c0,0,0.5,0.3,0.5,0.7v1.4
			c-0.4-0.9-1-1.7-1.9-2.3C5.8,0.6,5.2,0.4,4.7,0.4l0,0c-0.9,0-1.7,0.5-2.1,1.3l0,0.1C2.1,2.5,1.9,3.3,1.9,4.2
			C1.9,5.1,2.2,6,2.7,6.8z"/>
		<path d="M37.9,4.2c0-1.9,1.4-3.6,3.3-4C41.5,0,41.9,0,42.2,0c1.1,0,2.1,0.3,3,1c0,0,0.5,0.3,0.5,0.7V3c-0.4-0.9-1-1.7-1.9-2.2
			c-0.5-0.3-1.1-0.4-1.6-0.4l0,0c-0.9,0-1.7,0.5-2.1,1.3l0,0.1c-0.8,1.5-0.8,3.2,0,4.7l0,0.1c0.4,0.8,1.2,1.3,2.1,1.3l0,0
			c0.6,0,1.1-0.2,1.6-0.4c1-0.5,1.7-1.3,2.1-2.3l-0.2,1.5c0,0.3-0.5,0.6-0.5,0.6c-0.9,0.6-1.9,1-2.9,1c-0.4,0-0.7,0-1.1-0.1
			C39.3,7.8,37.9,6.1,37.9,4.2"/>
		<path d="M52.4,0.3c-0.3,0.2-0.4,0.5-0.4,0.8v6.3c0,0.3,0.2,0.6,0.4,0.8h-2.1c0.3-0.2,0.4-0.5,0.4-0.8V1.2c0-0.3-0.2-0.6-0.4-0.8
			H52.4"/>
	</g>
</g>
</svg>
