<svg width="180" height="30" viewBox="0 0 180 30" fill="none" xmlns="http://www.w3.org/2000/svg">
<mask id="mask0_1925_223" style="mask-type:luminance" maskUnits="userSpaceOnUse" x="0" y="0" width="180" height="30">
<path d="M180 0H0V30H180V0Z" fill="white"/>
</mask>
<g mask="url(#mask0_1925_223)">
<path d="M175.428 19.6538C175.428 13.3785 171.808 9.39128 165.51 9.39128C159.913 9.39128 155.676 14.0451 155.676 19.6538C155.676 25.2625 159.75 29.752 165.51 29.752C171.271 29.752 175.428 25.3059 175.428 19.6538ZM159.627 18.1997C159.627 14.5008 161.028 10.6377 165.225 10.6377C170.205 10.6377 171.479 16.8293 171.479 21.2753C171.479 24.351 169.957 28.5056 166.293 28.5056C161.273 28.5056 159.627 22.2303 159.627 18.1997ZM155.464 0.291443H154.641C154.312 3.44771 150.815 0 145.178 0C136.455 0 129.706 6.35593 129.706 15.2914C129.706 25.0982 137.072 30 145.261 30C148.141 30 152.915 29.0854 156.907 23.4766L156.207 22.8131C153.615 26.0531 150.447 28.4653 145.632 28.4653C139.089 28.4653 134.729 23.2286 134.729 14.6279C134.729 8.06428 138.143 1.54093 145.592 1.54093C150.53 1.54093 154.233 4.7809 155.344 9.55871H156.167L155.467 0.294545L155.464 0.291443ZM110.571 5.15296C110.571 3.32369 111.599 1.49752 113.779 1.49752C116.331 1.49752 116.948 3.32679 116.948 4.86461C116.948 8.02087 114.642 9.72613 112.011 11.3043C111.105 9.22695 110.571 7.10624 110.571 5.15606M119.828 10.802V11.6329C121.268 11.6329 122.257 12.0887 122.257 13.6699C122.257 15.9952 119.582 20.0258 118.305 21.7311C116.165 19.2383 113.534 14.8326 112.502 12.5475C116.822 9.97107 119.334 8.14179 119.334 4.7778C119.334 1.90988 117.028 0.248037 114.191 0.248037C109.665 0.248037 106.947 3.07255 106.947 7.39458C106.947 9.30446 107.565 11.3012 108.387 13.087C104.024 15.2046 99.5415 18.0725 99.5415 23.2255C99.5415 27.5475 103.205 29.7489 107.07 29.7489C110.936 29.7489 113.859 28.4188 116.533 25.802C118.631 28.0033 121.182 29.7489 124.228 29.7489C126.697 29.7489 129.082 27.3801 130.4 25.4702L129.783 24.9308C129.783 24.9711 129.743 24.9711 129.743 25.0145C128.671 26.4686 127.397 26.9244 126.08 26.9244C123.651 26.9244 121.019 24.8873 119.168 22.7697C120.279 21.6474 122.459 17.9082 123.282 16.4138C124.434 14.3365 125.422 11.6763 128.22 11.636V10.8051H119.825L119.828 10.802ZM103.782 21.1079C103.782 17.8245 106.088 15.8712 108.925 14.2931C110.531 17.7005 112.999 22.1869 115.631 24.847C113.985 26.3849 112.051 27.4235 109.953 27.4235C106.29 27.4235 103.782 24.7633 103.782 21.1079ZM69.5369 1.49752C72.3341 1.49752 73.2828 2.32844 76.4915 6.8148L82.5004 15.2077L74.9286 24.2673C72.4999 27.1755 71.2256 28.3382 69.0855 28.5056V29.3365H78.8803V28.5056C77.1516 28.5056 75.7116 28.2141 75.7116 27.1755C75.7116 26.3446 76.3687 25.4733 78.4289 22.9372L83.6549 16.5378L87.5237 21.9822C89.1694 24.3076 90.6924 26.5523 90.6924 27.1352C90.6924 28.1335 89.4182 28.4219 87.278 28.5056V29.3365H100.116V28.5056C97.8527 28.5056 96.4127 26.6763 94.1897 23.6441L86.4951 13.1304L92.9154 5.56842C95.3012 2.7439 96.5355 1.49752 99.17 1.49752H99.4586V0.666598H89.0896V1.49752C89.8296 1.49752 92.1355 1.53783 92.1355 2.7439C92.1355 3.86627 90.0353 6.35903 87.6926 9.09983L85.5125 11.5926L81.8924 6.64737C80.4923 4.73439 79.4238 3.44771 79.4238 2.57648C79.4238 1.49752 81.1924 1.49752 82.5925 1.49752V0.666598H69.5492V1.49752H69.5369ZM36.6092 29.3365H46.0324V28.5056H45.7039C43.1124 28.5056 42.7409 27.6344 42.7409 26.76C42.7409 25.5974 44.8411 21.2753 45.2925 19.9049H57.6787C58.3788 21.4427 60.5189 25.3059 60.5189 26.7197C60.5189 27.5103 59.9847 28.5056 57.6388 28.5056H57.2274V29.3365H69.368V28.5056C66.9393 28.5056 65.8277 26.884 64.9649 25.0145L53.4845 0.251138H52.4559L40.7697 24.8905C39.5753 27.4266 39.0011 28.3816 36.6153 28.5056V29.3365H36.6092ZM51.4641 6.23191L56.8958 18.1563H46.1154L51.4641 6.23191ZM0 1.49752C3.7429 1.49752 3.94862 3.11906 3.94862 6.89851V22.6891C3.94862 26.8871 3.94862 28.3816 0 28.5056V29.3365H9.75181V28.5056C5.80011 28.3816 5.80011 26.884 5.80011 22.6891V6.06759H5.88302L16.8292 29.3365H17.5293L28.3926 5.11265H28.4755V23.5201C28.4755 26.636 28.3097 28.5056 24.4839 28.5056V29.3365H36.9531V28.5056C32.9615 28.3816 32.7158 27.0918 32.7158 23.5201V5.61182C32.7158 2.37185 33.7045 1.49752 36.9531 1.49752V0.666598H28.5983L18.4351 22.5217L8.22885 0.666598H0V1.49752Z" fill="#1D1D1B"/>
<path d="M177.553 29.7613C178.91 29.7613 179.982 28.6823 179.982 27.3088C179.982 25.9353 178.913 24.8563 177.553 24.8563C176.193 24.8563 175.124 25.9353 175.124 27.3088C175.124 28.6823 176.193 29.7613 177.553 29.7613Z" fill="#E84427"/>
</g>
</svg>
