<?xml version="1.0" encoding="utf-8"?>
<!-- Generator: Adobe Illustrator 16.0.0, SVG Export Plug-In . SVG Version: 6.00 Build 0)  -->
<!DOCTYPE svg PUBLIC "-//W3C//DTD SVG 1.1//EN" "http://www.w3.org/Graphics/SVG/1.1/DTD/svg11.dtd">
<svg version="1.1" id="Layer_1" xmlns="http://www.w3.org/2000/svg" xmlns:xlink="http://www.w3.org/1999/xlink" x="0px" y="0px"
	 width="2489.443px" height="318.032px" viewBox="-1 1093.306 2489.443 318.032"
	 enable-background="new -1 1093.306 2489.443 318.032" xml:space="preserve">
<g>
	<path d="M1270.192,1160.055h-140.034v72.527h128.906v28.015h-128.906v78.985h141.824v28.378h-173.419v-235.907h171.629V1160.055
		L1270.192,1160.055z M1345.573,1132.053v207.529h119.944v28.378h-150.826v-235.907H1345.573L1345.573,1132.053z M1620.272,1132.053
		v114.186l113.81-114.186h44.149l-98.013,95.873l100.516,140.034h-40.557l-83.317-118.505l-36.601,35.927v82.578h-32.321v-235.907
		H1620.272L1620.272,1132.053z M1803.367,1168.667c-16.161,22.619-24.423,49.558-24.423,81.151c0,31.957,8.262,58.883,24.423,81.502
		c20.466,28.729,50.283,43.086,90.489,43.086c40.232,0,70.011-14.357,89.777-43.086c16.873-22.619,25.135-49.545,25.135-81.502
		c0-31.594-8.262-58.532-25.135-81.152c-19.753-28.715-49.545-43.085-89.777-43.085
		C1853.65,1125.594,1823.833,1139.951,1803.367,1168.667L1803.367,1168.667z M1893.856,1153.596c25.136,0,44.889,9.701,59.96,28.002
		c14.721,17.6,21.905,40.219,21.905,68.221c0,28.365-7.198,51.711-21.905,68.935c-15.071,18.663-34.837,27.639-59.96,27.639
		c-25.835,0-45.602-8.963-59.959-27.639c-14.721-17.224-21.893-40.583-21.893-68.935c0-28.002,7.172-50.621,21.893-68.221
		C1848.969,1163.297,1868.722,1153.596,1893.856,1153.596z M2050.752,1132.053v235.907h31.62v-101.255h77.184
		c28.015,0,42.385,13.631,42.385,41.996c0,28.728,1.777,48.48,5.02,59.246h39.493v-5.396c-7.898-4.307-11.479-12.205-11.479-23.333
		l-2.529-42.735c-0.35-14.721-3.566-26.212-9.325-32.684c-3.242-4.306-9.701-8.612-18.663-12.204
		c21.529-12.556,32.295-31.595,32.295-56.004c0-42.723-25.836-63.552-77.184-63.552h-108.816V1132.053L2050.752,1132.053z
		 M2082.372,1158.979h78.986c28.728,0,43.085,13.28,43.085,39.492c0,27.651-16.16,41.296-47.754,41.296h-74.317V1158.979
		L2082.372,1158.979z M2367.811,1153.596c-36.627,0-54.59,13.645-54.59,41.296c0,15.434,9.702,25.135,28.379,29.454l67.507,15.434
		c35.188,8.976,53.15,29.792,53.15,62.826c0,25.861-10.052,44.175-30.881,56.742c-16.16,10.415-36.627,15.071-61.049,15.071
		c-30.53,0-54.563-7.898-71.438-22.619c-16.16-14.357-23.708-34.124-23.708-59.959h29.816c0,19.727,7.173,34.123,20.816,43.799
		c11.479,7.548,25.836,11.141,43.799,11.141c41.297,0,61.763-12.944,61.763-39.869c0-12.204-3.593-21.18-10.415-26.575
		c-6.459-5.369-19.753-10.765-39.492-14.721l-48.481-11.479c-33.385-7.898-50.258-26.225-50.258-55.666
		c0-19.74,6.809-36.626,19.377-49.544c14.72-15.798,35.187-23.333,62.112-23.333c58.182,0,88.687,25.136,92.279,75.394h-30.168
		c-0.35-16.16-7.521-28.729-20.09-37.34C2395.826,1157.188,2382.882,1153.596,2367.811,1153.596L2367.811,1153.596z
		 M230.731,1169.756l-66.418,198.204h-31.607L67,1169.756h-1.439L67,1367.96H35.756v-235.907h45.602l66.781,199.28h1.44
		l66.781-199.28h45.602v235.907h-31.244l0.727-198.204H230.731L230.731,1169.756z M446.158,1177.654
		c-14.721,16.511-21.893,39.856-21.893,70.012c0,65.691,25.485,98.726,77.546,98.726c36.627,0,59.246-21.53,67.858-65.329h30.881
		c-5.746,37.69-22.619,64.615-50.271,80.05c-15.435,8.987-33.385,13.294-53.138,13.294c-29.454,0-53.863-9.701-72.89-28.729
		c-22.27-22.269-33.034-54.563-33.034-96.949c0-36.626,9.688-66.431,29.441-88.687c19.74-23.333,46.678-34.474,80.062-34.474
		c28.728,0,52.061,8.262,70.011,24.422c15.434,13.645,24.409,31.231,27.639,52.774h-31.231
		c-6.472-33.034-28.715-49.194-66.432-49.194C478.479,1153.596,460.516,1161.494,446.158,1177.654L446.158,1177.654z
		 M671.288,1132.053v97.662h123.16v-97.662h31.231v235.907h-31.231v-110.243h-123.16v110.243h-32.321v-235.907H671.288
		L671.288,1132.053z M944.885,1132.053l-89.4,235.907h33.034l24.409-68.221h94.796l23.695,68.221h34.11l-84.744-235.907H944.885
		L944.885,1132.053z M961.045,1167.24l35.188,104.121h-72.891l36.99-104.121H961.045L961.045,1167.24z M315.112,1132.053h31.957
		v235.907h-31.957V1132.053L315.112,1132.053z"/>
</g>
</svg>
