<svg xmlns="http://www.w3.org/2000/svg" viewBox="0 0 569.54 129.48"><path d="M33.66 51.76c-2.91.16-7.67 1.82-7.82 5.8l-.04 40.15c-1.3 12.85-22.9 16.65-25.8-.99l.09-44.38c-.69-7.62 12.9-18.01 29.13-20.17 10.71-1.42 19.86 2.31 28.87 8.33 7.92-5.3 16.81-7.75 26.91-7.83 19.56.07 27.43 16.29 27.27 22.99l-.03 41.55c-2.16 14.22-22.83 16.33-25.8-.48l.05-37.43c-2.88-9.64-14.72-9.52-17.48-2.3l-.02 39.64c-.68 15.16-23.91 17.02-25.89-.07l-.05-37.89c-.79-4.25-6.38-7.22-9.41-6.92ZM155.69 14.63c0-7.52-6.1-13.62-13.62-13.62s-13.63 6.1-13.63 13.62 6.1 13.63 13.63 13.63 13.62-6.1 13.62-13.63ZM140.74 36.92c5.15.1 11.71 1.09 12.14 8.6v52.26c-2.49 11.36-19.89 12.72-21.73-1.23V44.91c-.01-4.64 3.81-8.92 9.59-7.99ZM217.85 51.15c-6.45.45-20.36 1.43-20.42 6.03l-.53 41.55c-1.05 11.89-23.07 14.04-25.44-1.2l-.03-43.61c-.16-5.72 6.87-15.21 13.19-16.37 3.27-2.63 24.42-5.63 27.71-4.39 6.16.92 10.07 4.75 9.95 9.27.52 5.06-.94 8.28-4.43 8.73ZM256.9 79.44c-1.38.55-2.17 1.17-2.97 1.89-1.28 1.67-1.6 1.9-1.69 3.81.09 1.97.68 2.18 1.22 3.1.86.73 1.81 1.53 6.42 2.5 4.65.98 8.63-.6 9.17-.77 2.81-.6 5.4-3.89 5.37-6.88l-.16-14.05c.05-1.68.14-6.27.14-6.72 0-5-3.48-7.72-7.19-8.94-3.5-1.15-.68-.89-7.14-1.75-5.74-.76-7 .18-10.23.77-5.18.94-8.2 4.02-11.07 3.02-5.51-.51-8.69-9.1-6.06-13.64 3.29-5.19 3.59-4.21 7.44-6.28 3.55-1.91 5.97-2.59 11.14-3.21 4.99-.59 10.32-.69 16.56-.28 6.29.42 10.96 1.62 14.84 3.08 3.86 1.45 7.3 4.06 9.14 6.23 1.88 2.21 4.26 5.11 5.25 8.4.6 1.99 1.73 4 1.78 9.4l.21 25.64c.06 7-2.53 9.77-3 10.7-.55 1.08-3.72 6.12-12.38 10.15-2.88 1.47-6.34 2.53-10.44 3.41-6.61.96-5.83.73-10.21 1.01-9.74.64-21.6-4.63-21.95-4.98l-4.49-2.68c-6.51-5.06-9.91-11.28-9.58-17.31.35-6.42 1.79-9.33 4.07-12.29.34-.45 3.4-3.89 7.38-6.2 2.76-1.6 6.54-2.88 9.88-3.65 2.44-.56 6.98-1.47 11.78-.52 8.58 1.7 8.41 6.42 8.67 6.48l.11.62c.16.39.27 2.37-.68 4.28-.49.96-2.11 3.08-4.42 4.16-1.47.69-2.67.99-4.23 1.08-.94-.08-1.66.12-2.69.39M366.12 22.22c-.72.51-1.87 1.02-2.74 1.17-.44.07-1.18.2-2.15.11-.37 0-.94-.12-1.63-.33-2.97-.51-8.23-.95-9.95-.83-2.29-.06-5.7.67-7.47 1.72-1.78 1.05-2.8 3.16-2.8 4.42l-.03 6.07 15.89-.14c14.21-.13 15.01 22.09 1.22 22.15l-15.56.07v59.57c-.7 5.21-3.22 8.22-5.46 10.06-3.23 2.6-6.21 3.12-8.52 3.22-2.92.17-7.34-.83-10.32-3.63-2.11-1.99-4.63-5.55-4.92-9.86V30.01l-.05-.82c1.25-9.19 1.68-7.97 2.82-10.58.74-1.69 2.14-4.25 4.18-6.51 1.95-2.17 4.25-4.24 6.42-5.68 1.44-.96 2.91-1.56 3.9-2.03 1.27-.61 2.89-1.3 4.49-1.84 3.07-1.04 6.61-1.79 10.96-2.22 2.56-.25 5.52-.47 8.54-.21 2.4-.02 4.69.46 5.89.8 4.95 1.42 9.69 5.4 10.99 10.15.67 2.73.34 5.81-1.3 8.53-.59.96-1.43 2.11-2.4 2.62m-54.32 7.43-.3-.1m.16-.05.1-.16M392.16 8.75c.7.01 1.69.01 2.83 0 3.71-.05 11.82 4.11 11.17 12.16l-.03 75.66c-1.05 15.06-26.81 19.59-28.52-1.92V17.57c.35-3.15 1.9-6.26 5.14-7.66 1.81-1.25 5.69-1.27 9.41-1.16M478.72 85.01c1.33.19 2.53.93 3.53 1.64 3.47 2.54 4.08 10.38 3.66 12.13-.48 4.13-5 6.28-6.95 7.16-3.67 1.66-7.96 2.76-13.13 3.36-4.98.59-10.54.66-16.72.47-6.3-.19-11.43-1.08-14.96-2.92-3.65-1.9-7.25-4.38-9.08-6.54-1.87-2.21-4.41-5.11-5.81-8.24-.85-1.9-1.2-4.14-1.2-9.54V56.97c0-3.91 2.93-9.71 3.4-10.64.55-1.08 3.33-6.42 11.99-10.45 2.88-1.47 6.68-2.15 10.77-3.03 6.61-.96 5.51-.59 9.88-.87 9.74-.63 21.4 3.28 21.95 4.46l4.41 2.97c6.51 5.06 9.68 11.05 9.65 17.02-.02 6.43-1.74 9.4-3.84 12.45-.32.46-3.7 3.6-7.67 5.9-2.75 1.59-6.67 3-10.04 3.58-2.49.43-7.59 1.27-12.13.33-6.32-.86-6.98-4.11-7.25-4.18-.43-.7-.69-1.5-.78-2.44-.16-.39-.13-2.33.82-4.24.49-.96 2.39-3.29 4.44-4.27 1.45-.69 2.45-1.18 4.01-1.44 1.02-.2 2.23-.17 3.19-.2 1.41-.22 2.28-.78 3.08-1.5 1.28-1.67 1.39-1.94 1.49-3.85-.09-1.97-.97-2.91-1.51-3.83-.91-.69-1.62-1.57-6.35-2.51-4.67-.93-8.51.29-9.06.46-2.61 1.02-4.5 2.92-4.5 5.89v16.19c-.05 1.68.16 5.89.03 6.54-.32 5.5 4.02 7.64 6.01 8.72 2.1 1.14 5.93 1.33 7.14 1.38 3.43.15 8.78-.65 10.41-1.39 2.3-.66 4.19-1.44 5.61-2.24 1.39-.73 3.59-1.23 5.52-.78M560.88 108.81c-4.08 1.73-9.96 1.42-15.75-3.43l-8.7-12.01-3.94-5.35-12.73 17.32c-3.79 4.73-10.68 5.49-15.98 2.59-5.84-3.39-8.65-11.56-4.38-17.72l16.99-19.11-16.92-20.3c-2.92-6.34-.88-12.19 4.99-16.29 5.45-3.14 11.54-2.77 16.46 2.63l9.75 12.35 3.74 4.76 5.17-7.08 7.39-10.24c5.42-5.51 13.1-4.98 18.09-.39 5.44 4.73 5.7 11.96 1.94 16.15l-16.22 18.98 16.14 20.45c4.67 6.97 1.71 14.42-6.04 16.7"/></svg>