<?xml version="1.0" encoding="utf-8"?>
<!-- Generator: Adobe Illustrator 23.0.1, SVG Export Plug-In . SVG Version: 6.00 Build 0)  -->
<svg version="1.1" id="Layer_1" xmlns="http://www.w3.org/2000/svg" xmlns:xlink="http://www.w3.org/1999/xlink" x="0px" y="0px"
	 viewBox="0 0 643.47 142.49" style="enable-background:new 0 0 643.47 142.49;" xml:space="preserve">
<g>
	<g>
		<path d="M168.26,128.57h5.45v1.28h-6.81v-21.39h1.36V128.57z"/>
		<path d="M210.95,119.15c0,6.01-5.08,10.98-11.09,10.98c-6.01,0-11.09-4.97-11.09-10.98c0-6.01,5.05-10.98,11.09-10.98
			C205.87,108.17,210.95,113.14,210.95,119.15z M190.13,119.15c0,5.28,4.4,9.7,9.73,9.7c5.3,0,9.73-4.45,9.73-9.7
			c0-5.28-4.43-9.7-9.73-9.7C194.52,109.45,190.13,113.88,190.13,119.15z"/>
		<path d="M238.01,111.98c-0.96-1.53-2.33-2.52-4.34-2.52c-2.3,0-4.03,1.84-4.03,4.08c0,2.24,2.13,3.18,3.86,4l4.08,2.13
			c1.62,1.02,2.44,2.33,2.44,4.25c0,3.55-3.23,6.21-6.7,6.21c-2.98,0-5.3-1.84-6.3-4.59l1.19-0.54c0.91,2.27,2.58,3.86,5.16,3.86
			c2.81,0,5.28-2.21,5.28-5.05c0-2.41-2.47-3.43-4.31-4.34l-3.86-2.04c-1.42-0.88-2.21-2.13-2.21-3.83c0-3.18,2.27-5.42,5.48-5.42
			c2.15,0,4.2,1.16,5.22,3.01L238.01,111.98z"/>
		<path d="M279.61,122.81l-2.87,7.03h-1.39l8.96-22.1l8.93,22.1h-1.39l-2.87-7.03H279.61z M284.32,111.21l-4.2,10.33h8.37
			L284.32,111.21z"/>
		<path d="M328.86,130.56l-17.96-19.09v18.38h-1.36v-21.67l17.96,18.95v-18.66h1.36V130.56z"/>
		<path d="M367.35,119.55c0.06,2.69-0.34,5.05-2.24,7.12c-2.04,2.21-5.11,3.46-8.11,3.46c-5.93,0-10.98-4.99-10.98-10.89
			c0-6.13,5.02-11.06,11.15-11.06c3.89,0,7.04,1.93,9.28,4.99l-1.11,0.88c-1.9-2.84-4.79-4.59-8.25-4.59c-5.22,0-9.7,4.57-9.7,9.7
			c0,5.28,4.37,9.7,9.7,9.7c2.3,0,4.54-0.93,6.29-2.35c1.85-1.56,2.53-3.35,2.61-5.67h-7.66v-1.28H367.35z"/>
		<path d="M385.88,109.73v7.77h8.62v1.28h-8.62v9.79h8.85v1.28h-10.21v-21.39h10.21v1.28H385.88z"/>
		<path d="M414.12,128.57h5.45v1.28h-6.81v-21.39h1.36V128.57z"/>
		<path d="M437.27,109.73v7.77h8.62v1.28h-8.62v9.79h8.85v1.28H435.9v-21.39h10.21v1.28H437.27z"/>
		<path d="M474.04,111.98c-0.96-1.53-2.33-2.52-4.34-2.52c-2.3,0-4.03,1.84-4.03,4.08c0,2.24,2.13,3.18,3.86,4l4.08,2.13
			c1.62,1.02,2.44,2.33,2.44,4.25c0,3.55-3.23,6.21-6.7,6.21c-2.98,0-5.3-1.84-6.3-4.59l1.19-0.54c0.91,2.27,2.58,3.86,5.16,3.86
			c2.81,0,5.28-2.21,5.28-5.05c0-2.41-2.47-3.43-4.31-4.34l-3.86-2.04c-1.42-0.88-2.21-2.13-2.21-3.83c0-3.18,2.27-5.42,5.47-5.42
			c2.16,0,4.2,1.16,5.22,3.01L474.04,111.98z"/>
	</g>
	<g>
		<path d="M38.33,12.71c15.72,0,29.61,10.93,29.61,26.72c0,14.05-10.84,26.72-28.67,26.72c-15.72,0-29.61-10.93-29.61-26.72
			C9.67,25.39,20.51,12.71,38.33,12.71z M41.17,63.4c4.66,0,16.01-2.82,16.01-20.78c0-14.05-8-27.15-20.74-27.15
			c-4.66,0-16.01,2.82-16.01,20.78C20.44,50.29,28.44,63.4,41.17,63.4z"/>
		<path d="M72.75,63.04c4.73-0.07,6.04-1.81,6.04-5.87V21.69c0-4.05-1.31-5.79-6.04-5.86v-2.17c5.82,0.14,8.29,0.22,10.62,0.22
			c2.33,0,4.8-0.07,10.62-0.22v2.17c-4.73,0.07-6.04,1.81-6.04,5.86v35.48c0,3.77,2.11,5,8.15,5c9.6,0,14.41-1.23,15.86-10.21h2.47
			l-1.16,13.25c-7.35-0.07-21.25-0.22-35.14-0.22c-2.18,0-4.07,0.07-5.38,0.22V63.04z"/>
		<path d="M117.35,63.04c4.73-0.07,6.04-1.81,6.04-5.87V21.69c0-4.05-1.31-5.79-6.04-5.86v-2.17c5.82,0.14,8.3,0.22,10.62,0.22
			c2.33,0,4.8-0.07,10.62-0.22v2.17c-4.73,0.07-6.04,1.81-6.04,5.86v35.48c0,4.05,1.31,5.79,6.04,5.87v2.17
			c-5.82-0.15-8.29-0.22-10.62-0.22c-2.33,0-4.8,0.07-10.62,0.22V63.04z"/>
		<path d="M196.15,15.83c-5.46,0.07-6.4,0.72-9.61,8.4l-17.17,41.49h-1.89L146.6,21.04c-2.04-4.42-3.71-5.07-7.13-5.21v-2.17
			c5.02,0.14,8.37,0.22,11.64,0.22c3.35,0,6.62-0.07,11.71-0.22v2.17h-2.91c-2.62,0-3.78,1.01-3.78,2.75c0,0.72,0.22,1.3,2.77,6.95
			l13.02,28.89l10.99-30.92c0.65-1.96,1.24-3.62,1.24-4.92c0-2.24-1.97-2.75-5.09-2.75v-2.17c4.22,0.14,6.55,0.22,8.58,0.22
			c2.04,0,4.37-0.07,8.51-0.22V15.83z"/>
		<path d="M197.02,63.04c4.73-0.07,6.04-1.81,6.04-5.87V21.69c0-4.05-1.31-5.79-6.04-5.86v-2.17c2.47,0.07,6.04,0.22,9.75,0.22
			c11.13,0,20.08-0.14,26.85-0.22l0.29,12.16h-2.33c-1.17-6.95-4.29-9.41-13.02-9.41h-6.33v20.93h5.6c6.62,0,7.57-2.39,8.08-6.95
			h2.47c-0.07,2.82-0.15,5.5-0.15,7.82c0,3.4,0.07,6.16,0.15,9.05h-2.47c0-5.72-1.82-7.17-8.15-7.17h-5.53v17.23
			c0,3.33,1.38,5.14,8.22,5.14c7.42,0,12.59-1.38,14.34-10.5h2.47c-0.44,3.47-1.09,9.56-1.09,13.25c-7.06-0.07-16.3-0.22-27.72-0.22
			c-5.6,0-9.97,0.14-11.42,0.22V63.04z"/>
		<path d="M241.62,63.04c4.73-0.07,6.04-1.81,6.04-5.87V21.69c0-4.05-1.31-5.79-6.04-5.86v-2.17c3.42,0.07,6.33,0.22,9.02,0.22
			c4.73,0,9.53-0.22,14.26-0.22c12.66,0,16.66,6.3,16.66,13.39c0,4.92-3.06,10.43-10.12,12.6l9.1,16.65
			c3.27,6.01,5.02,7.38,9.17,7.96v1.74c-1.09,0.07-2.18,0.14-3.35,0.14c-9.68,0-13.68-3.33-17.75-11.95l-2.84-6.01
			c-3.06-6.44-4.08-6.95-8.95-7.02v16c0,4.05,1.31,5.79,6.04,5.87v2.17c-5.82-0.15-8.29-0.22-10.63-0.22
			c-2.33,0-4.8,0.07-10.62,0.22V63.04z M256.83,38.49c1.38,0.29,3.35,0.51,4.8,0.51c6.55,0,10.48-2.97,10.48-9.99
			c0-5.28-2.69-13.18-12.15-13.18c-1.31,0-2.11,0.07-3.13,0.29V38.49z"/>
		<path d="M311.98,63.04c4.73-0.07,6.04-1.81,6.04-5.87V21.69c0-4.05-1.31-5.79-6.04-5.86v-2.17c2.47,0.14,6.04,0.22,9.09,0.22
			c3.86,0,7.71-0.22,11.57-0.22c14.26,0,19.28,6.3,19.28,14.63c0,8.4-5.53,13.47-18.92,13.47c-2.11,0-4.66-0.07-5.82-0.22v15.64
			c0,4.05,1.31,5.79,6.04,5.87v2.17c-5.82-0.15-8.29-0.22-10.62-0.22c-2.33,0-4.8,0.07-10.62,0.22V63.04z M327.19,38.49
			c1.38,0.29,3.35,0.51,4.8,0.51c6.55,0,10.48-2.97,10.48-9.99c0-5.36-2.69-13.18-12.15-13.18c-1.31,0-2.11,0.07-3.13,0.29V38.49z"
			/>
		<path d="M355.28,63.04c4.73-0.07,6.04-1.81,6.04-5.87V21.69c0-4.05-1.31-5.79-6.04-5.86v-2.17c2.47,0.07,6.04,0.22,9.75,0.22
			c11.13,0,20.08-0.14,26.85-0.22l0.29,12.16h-2.33c-1.16-6.95-4.29-9.41-13.03-9.41h-6.33v20.93h5.6c6.62,0,7.57-2.39,8.08-6.95
			h2.47c-0.07,2.82-0.14,5.5-0.14,7.82c0,3.4,0.07,6.16,0.14,9.05h-2.47c0-5.72-1.82-7.17-8.15-7.17h-5.53v17.23
			c0,3.33,1.38,5.14,8.22,5.14c7.42,0,12.59-1.38,14.33-10.5h2.47c-0.44,3.47-1.09,9.56-1.09,13.25c-7.06-0.07-16.3-0.22-27.72-0.22
			c-5.6,0-9.97,0.14-11.43,0.22V63.04z"/>
		<path d="M430.29,12.71c15.72,0,29.61,10.93,29.61,26.72c0,14.05-10.84,26.72-28.67,26.72c-15.72,0-29.61-10.93-29.61-26.72
			C401.63,25.39,412.47,12.71,430.29,12.71z M433.13,63.4c4.66,0,16.01-2.82,16.01-20.78c0-14.05-8-27.15-20.74-27.15
			c-4.66,0-16.01,2.82-16.01,20.78C412.39,50.29,420.4,63.4,433.13,63.4z"/>
		<path d="M464.71,63.04c4.73-0.07,6.04-1.81,6.04-5.87V21.69c0-4.05-1.31-5.79-6.04-5.86v-2.17c2.47,0.14,6.04,0.22,9.1,0.22
			c3.86,0,7.71-0.22,11.57-0.22c14.26,0,19.28,6.3,19.28,14.63c0,8.4-5.53,13.47-18.92,13.47c-2.11,0-4.66-0.07-5.82-0.22v15.64
			c0,4.05,1.31,5.79,6.04,5.87v2.17c-5.82-0.15-8.29-0.22-10.62-0.22c-2.33,0-4.8,0.07-10.62,0.22V63.04z M479.92,38.49
			c1.38,0.29,3.35,0.51,4.8,0.51c6.55,0,10.47-2.97,10.47-9.99c0-5.36-2.69-13.18-12.15-13.18c-1.31,0-2.11,0.07-3.13,0.29V38.49z"
			/>
		<path d="M508,63.04c4.73-0.07,6.04-1.81,6.04-5.87V21.69c0-4.05-1.31-5.79-6.04-5.86v-2.17c5.82,0.14,8.3,0.22,10.63,0.22
			c2.33,0,4.8-0.07,10.62-0.22v2.17c-4.73,0.07-6.04,1.81-6.04,5.86v35.48c0,3.77,2.11,5,8.15,5c9.61,0,14.41-1.23,15.86-10.21h2.48
			l-1.17,13.25c-7.35-0.07-21.25-0.22-35.14-0.22c-2.18,0-4.07,0.07-5.39,0.22V63.04z"/>
		<path d="M552.6,63.04c4.73-0.07,6.04-1.81,6.04-5.87V21.69c0-4.05-1.31-5.79-6.04-5.86v-2.17c2.47,0.07,6.04,0.22,9.75,0.22
			c11.13,0,20.08-0.14,26.85-0.22l0.29,12.16h-2.33c-1.17-6.95-4.29-9.41-13.02-9.41h-6.33v20.93h5.6c6.62,0,7.57-2.39,8.08-6.95
			h2.47c-0.07,2.82-0.14,5.5-0.14,7.82c0,3.4,0.07,6.16,0.14,9.05h-2.47c0-5.72-1.82-7.17-8.15-7.17h-5.53v17.23
			c0,3.33,1.38,5.14,8.22,5.14c7.42,0,12.59-1.38,14.33-10.5h2.48c-0.44,3.47-1.09,9.56-1.09,13.25c-7.06-0.07-16.3-0.22-27.72-0.22
			c-5.6,0-9.97,0.14-11.42,0.22V63.04z"/>
		<path d="M598.66,51.23h2.84c1.75,8.4,8.88,12.17,13.9,12.17c7.13,0,10.62-4.56,10.62-8.54c0-11.59-26.56-11.01-26.56-27.08
			c0-3.69,2.11-15.06,18.34-15.06c3.93,0,9.39,0.43,13.46,1.88l0.44,12.82H629c-0.8-7.39-5.6-11.95-13.32-11.95
			c-5.89,0-9.38,3.77-9.38,7.68c0,10.57,26.99,11.51,26.99,27.66c0,8.54-6.11,15.35-18.19,15.35c-4.65,0-10.7-0.94-15.86-2.39
			L598.66,51.23z"/>
	</g>
</g>
</svg>
