<svg xmlns="http://www.w3.org/2000/svg" width="93" height="58" viewBox="0 0 93 58">
    <path fill="#1A1919" fill-rule="evenodd" d="M63.99 20.183v1.357c0 .923.845 4.528 1.131 5.275.339.888 1.326 3.89 2.592 3.89h.22c.637 0 1.199-.768 1.158-1.566-.02-.418.052-.013 0-1.462-.01-.246-.36-3.549-.91-5.64-.345-1.308-.606-1.906-.882-2.428-.783-1.486-1.496-1.697-1.654-1.697h-.386c-.896 0-1.268 1.744-1.268 2.271zM46.555 37.4c-.32.364-.693.678-1.143.907-.791.311-1.666-.08-2.227-.689-.764-.847-.592-2.1-.451-3.154.199-1.318.746-2.491 1.272-3.67l.095-.157.637-1.591c-.011-.193-.149-.318-.398-.318-.31 0-.56.212-1.008.212l-.12.05c-.643.122-1.297.2-1.954.095l-.701-.147c-.913-.364-1.737-1.021-2.095-1.618-1.161-1.937-1.008-2.067-1.326-2.067-.355 0-.34.54-.37.742-.118.703-.203 1.119-.293 1.803-.047.37-.39 2.553-.424 2.677l-.102.348c-.96 5.287-2.33 10.406-4.563 15.199-.653.926-1.31 1.74-2.412 1.67-.952.003-1.74-.692-2.2-1.458-.402-.811-.84-1.851-.346-2.73a274.394 274.394 0 0 0 4.8-3.499l.1-.059c.098-.057.663-.53.663-.53.613-.446 1.087-.732 1.087-1.75v-.875c0-1.064-.82-2.537-.822-2.546l-.012-.038a6.12 6.12 0 0 0-1.043-1.307c-.68-.727-1.72-.756-2.678-.587-2.394.411-4.364 2.125-5.807 4.245-1.957 3.207-2.95 7.579-1.644 11.4.708 1.554 2.298 2.997 4.057 3.155 2.648.425 5.018-1.304 6.527-3.341 2.282-3.362 3.38-7.19 4.397-11.056l.108-.428c.022-.167.331-1.307.45-1.83.196-.845.327-1.59.902-1.59.226 0 .807.424 1.485.424h.69c.342 0 .583.226.583.53 0 .6-.549 1.28-.954 2.466l-.087.272a20.167 20.167 0 0 0-.87 3.126c-.218 1.425-.39 3.234.451 4.455.524.68 1.338.944 2.254.9 2.644-.506 4.837-2.684 6.072-5.064.104-.252.296-.576.637-.53 1.056.47 2.111.987 3.368 1.088 2.639.27 5.183-.922 6.576-3.235 1.59-2.815.41-6.373-1.14-8.8-1.06-1.805-3.447-2.72-4.137-4.799a3.019 3.019 0 0 1-.143-.798l.018-.272c0-.824.659-1.491 1.472-1.491.56 0 1.065.317 1.314.783 0 0 1.204 1.639 1.555 2.07.252.143.544-.03.716-.266l1.459-2.73c.112-.34 0-.724-.292-.902-1.352-.882-2.843-1.379-4.535-1.325-2.39.125-4.658 1.801-5.568 3.976-1.25 3.125.381 6.147 2.387 8.458 1.214 1.743 3.587 2.936 3.95 5.168.12.585-.105 1.094-.423 1.538-.45.378-.934.761-1.565.69-.89-.243-1.617-.783-2.24-1.449v-.024c-.37-.517-.8-.971-1.06-1.406-.629-1.047-.77-1.246-1.008-1.246-.329 0-.35.262-.477.53-.122.257-.684 1.535-1.132 2.097l-.312.298zm-18.42.529c-.027-.75-.235-2.957-.976-2.957h-.187c-.498 0-1.06.858-1.348 3.265l.013.22c-.02.447-.024.896-.04 1.333.15.686-.223 1.875.674 2.005.76-.264 1.492-1.055 1.838-1.852.011-.477.056-.963.047-1.448l-.02-.566zM91.691 27.74c1.109-.812 1.505-1.736 1.22-2.522-.424-1.162-2.607-1.651-5.02-.617a7.957 7.957 0 0 0-1.62.801l-.183.11c-1.133.625-2.193 1.42-3.566 1.248-.912-.295-1.425-1.285-1.463-2.18a41.144 41.144 0 0 1 .16-6.035c.642-2.106 2.875-3.488 3.828-5.476 1.886-3.002 2.882-7.467 1.198-10.875C85.683 1.17 84.626.3 83.558.067c-1.935-.346-3.57.685-4.706 2.154-1.755 2.351-2.274 5.208-2.606 8.136-.446 5.603-.392 11.676.053 17.281.013.668.053 1.345.479 1.888.604.92 1.754 1.026 2.792.797 2.179-.662 4.213-1.745 6.116-3.19 1.056-.61 2.103-1.276 3.314-1.584l.132-.051c.977-.357 1.946-.166 2.16.424.215.59-.403 1.442-1.382 1.798l-2.576 1.274-17.55 7.657L33.75 52.337l-10.743 4.786c-.28.191-.8.166-.825.638.032.14.205.22.373.239 3.912-.247 7.734-.711 11.62-1.037l14.813-7.498 4.387-2.206 36.937-18.718c.2-.11 1.378-.801 1.378-.801zm-7.42-23.736c0-1.27-.705-2.298-1.576-2.298-.87 0-1.575 1.029-1.575 2.298l.014.193a95.346 95.346 0 0 0 .175 10.828c.006.144.1.315.32.328.31 0 .55-.265.786-.492 1.11-1.626 1.43-3.566 1.86-5.469.14-1.643.338-3.517.028-5.185l-.033-.203zM.863 53.392c-.139 1.249 1.119 2.134 1.914 2.925 2.167 1.623 5.627 2.334 8.127.94 5.834-3.548 6.719-10.3 6.922-16.77.262-4.663-1.284-9.282.21-13.604.144-.755.635-1.392.734-2.12l-.157-.028c-.774.293-1.436.863-2.124 1.342-4.914 4.14-6.244 10.183-5.716 16.636l.708 8.828c.154 1.431.156 2.726-.668 3.776 0 0-.495.948-1.86 1.06-1.002.111-1.765-.748-1.765-.748-1.697-1.386-2.264-3.729-3.022-5.638-.689-.87-1.101.027-1.101.027-.801 1.055-1.673 2.169-2.202 3.374zM89.587 2.56v-.853h.415c.212 0 .438.063.438.404 0 .423-.23.449-.488.449h-.365zm.34-.257h.393l.593 1.11h.38l-.638-1.126c.33-.048.583-.247.583-.705 0-.505-.263-.728-.795-.728h-.856v2.559h.34v-1.11zm-1.193.251c0-.97.75-1.7 1.712-1.7.95 0 1.7.73 1.7 1.7 0 .986-.75 1.712-1.7 1.712-.962 0-1.712-.726-1.712-1.712zm1.285 1.712a2.116 2.116 0 0 0 2.128-2.138C92.147.902 91.167 0 90.019 0c-1.158 0-2.138.902-2.138 2.127 0 1.235.98 2.138 2.138 2.138zM25.854 21.62c1.628 1.347 2.706 3.27 2.157 5.423-.735 2.406-3.325 3.842-5.512 4.46-.262.049-.534-.078-.56-.32.778-2.582 1.084-5.953-.878-8.067-1.466-1.892-3.855-2.306-6.1-1.817-4.464.773-8.065 5.293-9.027 9.51-1.387 4.456-.415 9.469 2.556 12.903.123.271-.19.445-.399.534-2.712.492-5.254-.77-6.764-2.991-1.16-2.058-1.56-4.582-1.199-7.08.485-3.658 2.975-6.541 5.62-9.217 4.476-3.987 10.18-6.324 16.404-4.941 1.284.386 2.541.86 3.702 1.603zm47.074-3.939c2.12 3.23 1.346 8.059-.16 11.337-1.158 2.513-3.56 5.116-6.261 5.906-1.688.238-3.166-.473-4.29-1.635-1.813-2.179-1.84-5.322-1.411-8.12.404-3.225 1.966-6.627 4.204-8.494 1.156-1.073 2.786-1.53 4.482-1.235 1.333.238 2.572 1.035 3.436 2.241z"/>
</svg>
