<?xml version="1.0" encoding="UTF-8"?>
<svg id="Layer_1" data-name="Layer 1" xmlns="http://www.w3.org/2000/svg" viewBox="0 0 532.58 83.44">
  <defs>
    <style>
      .cls-1 {
        fill: #231f20;
        fill-rule: evenodd;
        stroke: #231f20;
        stroke-miterlimit: 2.61;
        stroke-width: 1px;
      }
    </style>
  </defs>
  <path class="cls-1" d="M1.14,1.82L9.16,10.56v63.95l-5.95,8.37,36.44,.05-6.57-7.7-.68-23.03,35.14,.19c10.65-3.42,21.6-10.72,22.12-25.47-.17-14.29-9.21-23.46-19.71-25.28L1.14,1.82h0ZM31.1,5.91V47l26.96,.19c6.14-4.77,10.78-8.43,10.6-19.89-.09-9.35-2.13-17.5-11.16-21.38H31.1Z"/>
  <path class="cls-1" d="M106.53,1.36l8.03,8.74v63.95l-5.95,8.37,36.44,.05-6.57-7.7-.68-23.03h.15l37.65,31,31.24-.25-28.51-23.8h-23.8l-8.39-6.9,26.81,.14c10.65-3.42,21.6-10.72,22.12-25.47-.17-14.29-9.21-23.46-19.71-25.28l-68.82,.19h0Zm29.96,4.09V46.54l26.96,.19c6.14-4.77,10.78-8.43,10.6-19.89-.09-9.34-2.13-17.5-11.16-21.38h-26.4Z"/>
  <path class="cls-1" d="M236.91,1.27h31.42l40.9,73.25c1.77,5.66,7.06,4.96,10.6,7.44h-39.6l5.95-1.8-.37-5.45-10.22-15.8-34.77,.19-7.44,15.25c-.25,1.73-2.17,3.05-.74,5.21l2.79,2.6-17.1-.37,7.44-2.23,28.07-57.08v-3.9l-11.86-15.27-5.06-2.02h0Zm6.1,52.6l14.44-26.38,15.04,26.24-29.48,.15h0Z"/>
  <path class="cls-1" d="M449.37,1.42h31.42l40.9,73.25c1.77,5.66,7.06,4.96,10.6,7.44h-39.6l5.95-1.8-.37-5.45-10.22-15.8-34.77,.19-7.44,15.24c-.25,1.74-2.17,3.05-.74,5.21l2.79,2.6-17.1-.37,7.44-2.23,28.07-57.07v-3.9l-11.86-15.27-5.06-2.02h0Zm6.1,52.6l14.44-26.39,15.04,26.24-29.47,.15h0Z"/>
  <path class="cls-1" d="M330.69,.5l55.97,.3c18.02,4.07,29.49,14.7,33.05,33.24l-.15,14.46c-3.29,16.52-14.05,27.92-33.05,33.69l-56.12,.15v-1.75c8.52-.62,9.21-1.56,9.23-6.45V8.25c-.1-3.61-.84-5.86-9.08-6.11l.15-1.64h0Zm31.82,5.64l-.06,71.28c7.38,.03,13.78,.69,17.4-1.09,8.2-3.61,12.01-9.16,12.36-14.38l-.2-42.09c0-6.73-7.57-11.49-11.94-12.73-3.13-1.12-9.36-1.16-17.56-1h0Z"/>
</svg>