<?xml version="1.0" encoding="utf-8"?>
<!-- Generator: Adobe Illustrator 21.1.0, SVG Export Plug-In . SVG Version: 6.00 Build 0)  -->
<svg version="1.1" id="Layer_1" xmlns="http://www.w3.org/2000/svg" xmlns:xlink="http://www.w3.org/1999/xlink" x="0px" y="0px"
	 viewBox="0 0 397.6 34.9" style="enable-background:new 0 0 397.6 34.9;" xml:space="preserve">
<style type="text/css">
	.st0{fill:#231F20;}
</style>
<g>
	<g>
		<path class="st0" d="M15.1,6.8h3.3c3.9,0,5.2,2.5,5.2,4.9c0,3.4-2.1,5.3-6.3,5.3h-2.1V6.8z M17.8,29.6v-0.7h-2.7V17.6h0.1
			l9.1,11.9H30v-0.7h-1.8l-8.5-11.2c5.1-0.3,7.9-2.6,7.9-5.9c0-3-2.1-5.7-8.1-5.7H9.1v0.7h2.1v22H9.1v0.7H17.8z"/>
		<path class="st0" d="M51.7,9.4L51.7,9.4l3.5,9.9h-7L51.7,9.4z M48.2,29.6v-0.7h-3.4l3.1-8.7h7.5l2.9,8.7h-2.6v0.7h7.9v-0.7h-1.4
			l-7.9-23h-2.3l-8.3,23h-2.1v0.7H48.2z"/>
		<path class="st0" d="M83.7,28.8H89c2.4,0,3-0.4,5.2-8.7H95v9.4H77.7v-0.7h2.1v-22h-2.1V6.1h9.6v0.7h-3.6V28.8z"/>
		<path class="st0" d="M117,6.8h3.7c3.7,0,5.3,2.2,5.3,5.4c0,4.1-1.7,5.2-5.6,5.2H117V6.8z M120.3,29.6v-0.7H117V18.1h4.3
			c5.9,0,8.7-2.4,8.7-5.9c0-3.6-3.1-6.1-8.8-6.1H111v0.7h2.1v22H111v0.7H120.3z"/>
		<path class="st0" d="M150.3,17.8v11.1h2.4v0.7h-8.4v-0.7h2.1v-22h-2.1V6.1h8.4v0.7h-2.4V17h9.4V6.8h-2.4V6.1h8.4v0.7h-2.1v22h2.1
			v0.7h-8.4v-0.7h2.4V17.8H150.3z"/>
		<path class="st0" d="M208.9,28.8h5.3c2.4,0,3-0.4,5.2-8.7h0.8v9.4h-17.3v-0.7h2.1v-22h-2.1V6.1h9.6v0.7h-3.6V28.8z"/>
		<path class="st0" d="M243.5,9.4L243.5,9.4l3.5,9.9h-7L243.5,9.4z M240,29.6v-0.7h-3.4l3.1-8.7h7.5l2.9,8.7h-2.6v0.7h7.9v-0.7H254
			l-7.9-23h-2.3l-8.3,23h-2.1v0.7H240z"/>
		<path class="st0" d="M277.7,6.1v0.7h-2.6v17c0,4.1,2.5,5.5,4.7,5.5c3.4,0,5.8-2.2,5.8-5.7V6.8h-3.2V6.1h6.4v0.7h-2.1v16.8
			c0,3.9-2.8,6.4-6.9,6.4c-5.8,0-8.4-2.3-8.4-7V6.8h-2.1V6.1H277.7z"/>
		<path class="st0" d="M309.5,6.8h3.3c3.9,0,5.2,2.5,5.2,4.9c0,3.4-2.1,5.3-6.3,5.3h-2.1V6.8z M312.2,29.6v-0.7h-2.7V17.6h0.1
			l9.1,11.9h5.7v-0.7h-1.8l-8.5-11.2c5.1-0.3,7.9-2.6,7.9-5.9c0-3-2.1-5.7-8.1-5.7h-10.4v0.7h2.1v22h-2.1v0.7H312.2z"/>
		<path class="st0" d="M337.4,29.6v-0.7h2.1v-22h-2.1V6.1h18.1v7.5h-0.8c-1.9-6.4-2.5-6.8-4.2-6.8h-7.1V17h2.8
			c1.8,0,2.6-1.1,3.4-4.7h0.8v10.1h-0.8c-0.7-3.6-1.6-4.7-3.4-4.7h-2.8v11.1h6.3c2.6,0,3.3-0.9,5.4-7.9h0.8v8.7H337.4z"/>
		<path class="st0" d="M374.8,7.5L374.8,7.5l-0.1,21.3h3v0.7h-6.4v-0.7h2.4v-22h-2.4V6.1h6.9l10.5,17h0.1V6.8H386V6.1h6.2v0.7h-2.4
			v22.8h-1.2L374.8,7.5z"/>
	</g>
</g>
</svg>
