<svg xmlns="http://www.w3.org/2000/svg" fill="none" viewBox="0 0 122 28" aria-hidden="false"><path fill="currentColor" fill-rule="evenodd" d="M21.059 5.954 14.05 19.357s-.228-1.208-1.562-2.888L6.543 8.695C2.336 2.94 11.428-3.684 16.394 4.37l.553-2.056C11.694-2.136 4.414.288 3.485 5.718c-.096.641-.243 2.712 1.297 4.709l.413.493.1.112.165.194c.052.064.098.123.14.18l5.43 6.426C16.078 24.22 6.565 31.44.884 22.26L.206 24.42c4.274 3.883 10.625 4.222 13.308-1.253l3.964-8.414h3.78l1.856 6.89h2.005c-.185-.178-.435-.65-.56-1.106L21.072 5.969l-.014-.015Zm-3.198 7.84 2.011-4.325 1.12 4.325h-3.131Z" clip-rule="evenodd"></path><path fill="currentColor" d="M4.782 10.427c.125.162.265.331.413.493l-.413-.493ZM27.749 6.448l-.155 14.309c-.022.191.243.825.361.877H26.1L25.855 7.78c0-.493-.287-1.046-.574-1.333h2.468ZM91.743 20.72v-6.005h5.519v-.914h-5.52L91.89 7.2c3.699.022 5.372.848 5.372.848V6.499H89.37s.464.457.501 1.548l.155 13.557c-.214-.294-5.74-7.073-5.74-7.073 4.568-.87 7.84-9.918-5.335-7.987.244.302.457.744.465 1.606l-.361 12.239c-.06.508-.185.994-.34 1.215h2.056l.722-14.596c5.107-1.334 7.39 6.602.627 7.84.335.395 3.591 3.842 5.682 6.056h.001l.011.012c.94.994 1.642 1.737 1.733 1.838.834.907 2.967 1.729 3.788 2.045l.198.077c-1.208-.744-3.05-2.712-3.271-3.08.479.007 7.405 0 7.405 0l.64-1.43s-2.246.804-5.85.804h-.059c-.287.002-.64.005-.64-.443l-.015-.007ZM51.261 25.045c-.14.56-.103 1.047.833 1.061 2.88.044 8.812-.479 11.185-1.29l-1.105 1.924H48.867c.213-.273.405-.781.596-1.481l3.765-17.47c-1.422-.53-3.168-.56-4.774-.56l-.464 13.226c-.008.494.073.862.162 1.179h-2.034c.14-.383.192-.7.206-1.245l-.103-13.16h-2.52c-.695.018-.684.55-.677.906.002.067.003.127 0 .177l-.656 14.552L31.374 8.776v12.85h-1.451c.132-.206.339-.87.368-1.392l.413-12.372-1.098-1.422h2.638l9.615 13.263V6.44h11.679l.973-4.435c.103-.597.103-.958-.17-1.305h2.734L51.26 25.045ZM75.636 17.036c-.015 5.718-6.263 5.548-6.278.295l-.022-10.824H66.94c.317.17.486.78.53 1.525.025.174.076 2.97.123 5.56v.003c.038 2.134.075 4.125.091 4.391.361 5.424 8.18 6.44 8.65-.604.017-.294.09-1.802.167-3.405v-.002c.094-1.935.193-4.007.21-4.248.088-1.297.243-2.874.677-3.22H75.65l-.007 10.529h-.007Z"></path><path fill="currentColor" fill-rule="evenodd" d="m54.901 20.64 7.634-15.003h.007l3.485 14.759s.42 1.076.62 1.216h-1.82c-.133-.428-1.975-6.963-1.975-6.963h-3.898s-3.08 6.771-3.169 6.963H54.21c.162-.162.515-.678.692-.973Zm6.484-11.348-2.063 4.576h3.294l-1.23-4.576Z" clip-rule="evenodd"></path><path fill="currentColor" d="M110.613 6.588V19.85l-9.616-13.263h-2.638c.14.17.988 1.252 1.106 1.414 0 .384-.413 12.372-.413 12.372v.022c-.023.542-.04.963-.228 1.378h1.311V8.924s10.802 13.808 10.994 14.08c.022-.53.545-14.574.545-14.574 0-.317 0-1.201.855-1.201h2.741l.088 13.513c-.025.45-.078.617-.162.884l-.044.14h1.945c-.096-.353-.147-.545-.125-1.024l.486-13.52c1.636 0 2.66 0 4.126.442V6.58H110.62l-.007.008Z"></path></svg>