<?xml version="1.0" encoding="utf-8"?>
<!-- Generator: Adobe Illustrator 23.0.1, SVG Export Plug-In . SVG Version: 6.00 Build 0)  -->
<svg version="1.1" xmlns="http://www.w3.org/2000/svg" xmlns:xlink="http://www.w3.org/1999/xlink" x="0px" y="0px"
	 viewBox="0 0 440.48 230.76" style="enable-background:new 0 0 440.48 230.76;" xml:space="preserve">
<style type="text/css">
	.Voûte _x002D__x0020_Vert{fill:url(#SVGID_1_);stroke:#FFFFFF;stroke-width:0.25;stroke-miterlimit:1;}
</style>
<linearGradient id="SVGID_1_" gradientUnits="userSpaceOnUse" x1="31.5741" y1="-570.7163" x2="32.2813" y2="-571.4235">
	<stop  offset="0" style="stop-color:#20AC4B"/>
	<stop  offset="0.9831" style="stop-color:#19361A"/>
</linearGradient>
<g id="Calque_1">
</g>
<g id="Calque_3">
	<g>
		<g>
			<path d="M119.94,145.71h10.3c4.88,0,7.82,3.1,7.82,6.9c0,3.06-1.36,5.27-4.73,6.43l0.04,0.08c3.14,0.77,5.38,3.56,5.38,7.05
				c0,4.18-2.56,7.51-10.15,7.51h-8.68V145.71z M123.04,157.72h5.42c4.69,0,6.51-2.4,6.51-4.77c0-3.14-1.7-4.61-5.27-4.61h-6.66
				V157.72z M123.04,171.05h5.81c4.57,0,6.82-1.55,6.82-5.04c0-3.56-2.87-5.66-7.28-5.66h-5.35V171.05z"/>
			<path d="M157.32,145.71v27.97h-3.1v-27.97H157.32z"/>
			<path d="M182.88,145.33c6.86,0,10.92,5.04,10.92,14.37s-4.07,14.37-10.92,14.37c-6.86,0-10.92-5.04-10.92-14.37
				S176.02,145.33,182.88,145.33z M182.88,171.43c4.92,0,7.83-3.8,7.83-11.74s-2.91-11.74-7.83-11.74s-7.82,3.8-7.82,11.74
				S177.96,171.43,182.88,171.43z"/>
			<path d="M215.87,148.35v25.33h-3.1v-25.33h-8.37v-2.63h19.83v2.63H215.87z"/>
			<path d="M253.79,145.71v2.63h-13.67v9.37h9.72v2.63h-9.72v10.69h14.45v2.63h-17.55v-27.97H253.79z"/>
			<path d="M286.4,165.31c-1.24,5.19-4.11,8.75-9.84,8.75c-6.27,0-10.69-4.57-10.69-14.37c0-9.1,3.95-14.37,10.69-14.37
				c5.19,0,8.21,3.02,9.45,8.13l-2.87,0.85c-1.01-3.95-2.79-6.35-6.97-6.35c-4.03,0-7.21,3.72-7.21,11.74
				c0,8.1,3.18,11.74,7.82,11.74c4.3,0,5.97-3.25,6.82-6.66L286.4,165.31z"/>
			<path d="M319.44,145.71v27.97h-3.1v-13.32h-13.4v13.32h-3.1v-27.97h3.1v12.01h13.4v-12.01H319.44z"/>
		</g>
		<g>
			<path d="M152.08,230.37v-27.97h9.76c5.97,0,8.56,3.41,8.56,7.82c0,4.65-3.22,7.67-10.26,7.67h-4.96v12.47H152.08z M155.18,215.27
				h5.27c5.15,0,6.86-1.78,6.86-5.11c0-3.33-1.98-5.11-6.16-5.11h-5.96V215.27z"/>
			<path d="M178.42,230.37l8.6-27.97h4.61l8.6,27.97h-3.25l-2.63-8.75h-10.03l-2.63,8.75H178.42z M185.08,218.98h8.48l-4.03-14.41
				h-0.43L185.08,218.98z"/>
			<path d="M212.77,230.37v-27.97h8.99c6.04,0,9.34,2.71,9.34,7.36c0,3.95-2.29,6.2-5.58,7.28l5.93,13.32h-3.37l-5.66-12.71h-6.55
				v12.71H212.77z M215.87,215.03h5.62c4.26,0,6.51-1.59,6.51-5.11c0-3.76-2.56-4.88-6.55-4.88h-5.58V215.03z"/>
			<path d="M250.46,202.41v27.97h-3.1v-27.97H250.46z"/>
			<path d="M280.47,209.53c-0.7-2.71-2.91-4.88-6.51-4.88c-3.25,0-5.19,1.55-5.23,4.34c-0.08,6.12,15.73,4.57,15.73,13.56
				c0,4.07-2.29,8.21-9.41,8.21c-6.12,0-8.52-3.95-9.99-7.28l2.83-1.01c1.12,2.94,3.22,5.66,7.32,5.66c4.11,0,6.16-2.17,6.16-5.04
				c0-7.13-15.73-5.04-15.73-13.87c0-4.03,3.37-7.2,8.41-7.2c4.34,0,7.75,2.28,9.22,6.89L280.47,209.53z"/>
		</g>
	</g>
	<g>
		<polygon points="404.33,37.06 438.87,2.27 421.26,2.27 380.2,43.59 380.2,2.27 367.63,2.27 367.63,88.76 380.2,88.76 380.2,61.42 
			395.3,46.12 425,88.55 425.14,88.76 440.48,88.76 		"/>
		<path d="M172.15,2.59l-0.12-0.32h-9.54l-35.23,86.49h13.19l10.28-25.89h31.6l9.73,25.89h13.5L172.15,2.59z M178.04,51.69h-22.84
			l11.6-29.91L178.04,51.69z"/>
		<path d="M46.25,40.89l-20.19-5c-7.4-1.78-10.7-4.97-10.7-10.32c0-12.26,11.51-14.09,18.38-14.09c9.05,0,19.78,4.38,20.23,16.72
			l0.08,2.29h12.54l0.02-2.36c0.05-7.37-2.49-13.85-7.35-18.74C53.33,3.43,43.98,0,33.61,0C9.22,0,2.71,16.15,2.71,25.69
			c0,15.36,11.69,20.06,20.48,22.26l18.44,4.52C52.02,54.98,56.86,59,56.86,65.11c0,10.51-11.98,14.43-19.54,14.43
			c-9.34,0-16.11-2.07-20.1-6.14c-3.13-3.2-4.66-7.8-4.54-13.7l0.05-2.43H0.15l-0.1,2.27c-0.41,8.99,2,16.29,7.16,21.7
			c6.11,6.4,15.89,9.78,28.26,9.78c31.58,0,34.04-19.93,34.04-26.04C69.51,49.13,57.08,43.78,46.25,40.89z"/>
		<path d="M345.44,68.14c-2.68,4.34-8.81,11.62-19.86,11.62c-23.42,0-29.67-21.05-29.67-33.5c0-19.87,12.1-34.29,28.76-34.29
			c9.65,0,16.82,3.86,21.3,11.46l1.11,1.87l11.03-5.23l-1.4-2.26c-7.17-11.62-17.84-17.26-32.6-17.26c-24,0-40.77,18.81-40.77,45.74
			c0,12.29,3.88,23.47,10.92,31.48c7.64,8.69,18.47,13.29,31.32,13.29c13.19,0,24.42-6.27,30.82-17.2l1.31-2.24l-11.15-5.3
			L345.44,68.14z"/>
		<polyline points="97.92,88.77 112.07,88.77 112.13,15.59 139.63,15.59 139.63,2.27 70.98,2.28 70.98,15.59 97.98,15.59 		"/>
		<path d="M260.37,50.38c6.31-2.09,16.22-7.81,16.22-23c0-11.58-6.88-25.11-26.26-25.11h-38.55v86.5h12.57V52.5h23.42l18.05,36.28
			h14.17L260.37,50.38z M264.1,27.39c0,8.78-6,13.23-17.83,13.23h-21.84V14.15h23.1C258.99,14.15,264.1,18.24,264.1,27.39z"/>
	</g>
</g>
<g id="Layer_2">
</g>
</svg>
