<?xml version="1.0" encoding="utf-8"?>
<!-- Generator: Adobe Illustrator 27.6.1, SVG Export Plug-In . SVG Version: 6.00 Build 0)  -->
<svg version="1.1" id="Livello_1" xmlns="http://www.w3.org/2000/svg" xmlns:xlink="http://www.w3.org/1999/xlink" x="0px" y="0px"
	 viewBox="0 0 1491.5 269.2" style="enable-background:new 0 0 1491.5 269.2;" xml:space="preserve">
<path d="M1121.8,113c16.5,6.4,38.6,9.1,55.5,14.3c19.4,5.9,35.2,17.5,35.1,44.6c-0.1,32.2-23.3,59-69.2,58.8
	c-17.6,0.1-41.2-7-56.3-16.2l-3.8-45.1l4.5,0c5.8,31.4,27.3,51.4,58.6,51.5c24.1,0.1,43.4-11.1,47.8-32.6c6-29.3-16-36.5-21.6-38.5
	c-14.3-5.1-36.1-7.9-55.4-14.3c-20.8-6.9-34.9-20.1-34.8-43.6c0.1-33.3,30.6-53.7,69.7-53.4c24,0.2,43.6,8.1,46.5,9.7l3.1,39.5h-4
	c-4.6-25.6-24.5-40.2-50-40.3c-27.8-0.1-44.4,16.5-46.6,32.3C1098.2,98.5,1109,108.1,1121.8,113 M71.4,113
	c-12.8-5-23.6-14.5-21-33.3c2.2-15.8,18.8-32.4,46.6-32.3c25.5,0.1,45.4,14.7,50,40.3h4L148,48.2c-2.9-1.6-22.5-9.6-46.5-9.7
	c-39.2-0.3-69.7,20.1-69.7,53.4c-0.1,23.5,14,36.7,34.8,43.6c19.3,6.4,41.1,9.2,55.4,14.3c5.6,2,27.7,9.2,21.6,38.5
	c-4.4,21.5-23.7,32.7-47.8,32.6c-31.2-0.1-52.8-20.1-58.6-51.5l-4.5,0l3.8,45.1c15,9.1,38.7,16.3,56.3,16.2
	c46,0.2,69.2-26.6,69.2-58.8c0.1-27.1-15.8-38.6-35.1-44.6C110,122.1,87.9,119.5,71.4,113 M1441.4,57.8c0-12.4,11-12,18.3-12v-4
	h-59.2v4c7.3,0,18.4-0.4,18.4,12l0,154.3c0,12.4-11,12-18.3,12v4h59.2v-4c-7.3,0-18.4,0.5-18.4-12L1441.4,57.8z M924,69.2
	l57.7,158.9h17.1L1055.4,65c6.1-17.5,14.2-19.2,25.8-19.2v-4h-56.1v4c5.8,0,10.1,0.1,13.3,0.9c7.8,2,8.3,8.7,7.7,13.3
	c-0.6,4.4-2.4,8.9-3.6,12.4l-45.1,131.6h-0.5L951.9,80.5c-3.4-9.4-5.3-15.6-6-20.1c-1-6.5,1.4-10.6,4.2-12.4
	c2.8-1.7,5.6-2.2,12.4-2.2v-4h-65.2v4C912.5,45.8,917.9,52.3,924,69.2 M459.9,59.9c2.8-7.7-0.1-11.6-4.4-13.2
	c-2.6-0.9-5.8-0.9-8.8-0.9v-4h36.1l59.9,158.9c6.5,16.2,11,23.5,27,23.5v4h-65.2v-4c6.8,0,9.6-0.4,12.4-2.2
	c2.9-1.8,5.1-5.9,4.1-12.4c-0.7-4.5-2.8-10.7-6.3-20.1l-9.3-24.7h-72.9l-11.6,32.7c-1.2,3.6-3.1,8.1-3.8,12.4
	c-0.7,4.6-0.3,11.4,7.5,13.4c3.2,0.8,7.4,0.9,13.2,0.9v4h-56.1v-4c11.7,0,19.8-1.8,26.1-19.2L459.9,59.9 M502,155.8l-33.9-90h-0.6
	l-32,90H502z M624.8,143v0.5l75,84.6h39.8v-4c-7.8,0-19.6-4.2-31.5-17.5l-51.8-58.2c33-3.7,60.9-21,60.9-56.1
	c0-29.7-23.7-50.5-68.2-50.5h-69.9v4c7.4,0,18.4-0.5,18.4,12l-0.1,154.3c0,12.4-11,12-18.3,12v4h59.2v-4c-7.4,0-18.4,0.4-18.4-12
	l0-161.9h14.5c17.8,0,60.8-0.9,60.8,43.9c0,46.5-43,49-60.8,49L624.8,143L624.8,143z M1261.1,57.8c0-12.4,11-12,18.3-12v-4h-59.2v4
	c7.3,0,18.4-0.4,18.4,12l0,154.3c0,12.4-11,12-18.3,12v4h59.2v-4c-7.3,0-18.4,0.5-18.4-12L1261.1,57.8z M1359.2,209.1l-73.3-83.4
	c0,0,53.4-58.4,59.1-64.5c8.2-8.9,16.5-15.4,33.4-15.4v-4h-61.4v4c1.8,0,11.4-0.2,14.6,1c6.1,2.1,6.9,8.3-0.6,16.5l-65.6,71.5v0.2
	l81,93.2h39.4v-4C1377.1,224.1,1365.9,216.7,1359.2,209.1 M368.9,41.8v4c5.8,0,10.1,0.1,13.3,0.9c7.8,2,8.6,8.7,8,13.3
	c-0.6,4.4-2.3,8.9-3.5,12.4l-45.1,131.6H341L299.5,80.5c-3.1-9.4-4.9-15.6-5.5-20.1c-0.8-6.5,1.6-10.6,4.6-12.4
	c2.9-1.8,5.7-2.1,12.4-2.1v-4h-64.6v4c15.2,0,20.3,6.5,26.1,23.5l15.6,46.7l-29.7,88.2h-0.5L215.7,80.5c-3.2-9.4-5-15.6-5.6-20.1
	c-0.8-6.5,1.6-10.6,4.5-12.4c2.8-1.7,5.6-2.1,12.5-2.1v-4h-65v4c15.2,0,20.4,6.5,26.2,23.5l54,158.9h17.3l33.1-98.4l32.9,98.4h17.3
	L399,65c6-17.4,14.2-19.2,25.9-19.2v-4L368.9,41.8L368.9,41.8z M824.8,38.5c60.9,0,85.1,51.7,85.1,93.8c0,49.7-34.8,98.4-89.1,98.4
	c-55.2,0-85.9-43.3-85.9-95.6C734.9,78.7,776.5,38.5,824.8,38.5 M767.3,175.3c9.9,18.2,24.1,31.8,40.1,38.5
	c13.4,5.6,30.1,6.3,44.8,0.4c35.4-14.2,36.5-59.7,36.8-64.6c1.8-36.7-14.1-74.9-43.3-90.8c-15.5-8.4-39.5-12-60.8,0.3
	c-15.3,8.7-29.4,26-31.2,58.9C752.3,139.5,758.6,159.3,767.3,175.3"/>
</svg>
