<?xml version="1.0" encoding="utf-8"?>
<!-- Generator: Adobe Illustrator 23.0.1, SVG Export Plug-In . SVG Version: 6.00 Build 0)  -->
<svg version="1.1" id="Layer_2" xmlns="http://www.w3.org/2000/svg" xmlns:xlink="http://www.w3.org/1999/xlink" x="0px" y="0px"
	 viewBox="0 0 112.6 15.48" style="enable-background:new 0 0 112.6 15.48;" xml:space="preserve">
<g>
	<path d="M12.78,1.46l0.02,3.4c-0.03,0.03-0.22,0.06-0.23,0.03c-0.82-2.03-1.45-3.07-3.94-3.07H8.35V12.6
		c0,0.54,0.06,0.91,0.33,1.16c0.19,0.17,0.88,0.25,1.44,0.25c0.03,0,0.03,0.27,0,0.27h-5.3c-0.03,0-0.03-0.27,0-0.27
		c0.56,0,1.25-0.08,1.44-0.25c0.27-0.25,0.33-0.63,0.33-1.16V1.81H6.32c-2.48,0-3.12,1.04-3.94,3.07c-0.01,0.03-0.2,0-0.23-0.03
		l0.02-3.4H12.78z"/>
	<path d="M15.95,12.72c0,0.49-0.06,0.88-0.31,1.09c-0.21,0.17-0.63,0.22-1.25,0.22c-0.03,0-0.04,0.25,0,0.25h4.8
		c0.04,0,0.03-0.25,0-0.25c-0.62,0-1.04-0.05-1.25-0.22c-0.25-0.21-0.31-0.6-0.31-1.09V5.76c0-0.49,0.06-0.88,0.31-1.09
		c0.21-0.17,0.63-0.22,1.25-0.22c0.03,0,0.04-0.25,0-0.25h-4.8c-0.04,0-0.03,0.25,0,0.25c0.62,0,1.04,0.05,1.25,0.22
		c0.25,0.21,0.31,0.6,0.31,1.09V12.72z"/>
	<path d="M28.6,4.2h-7.42c-0.03,0-0.03,0.25,0,0.25c0.56,0,0.96,0.05,1.15,0.22c0.23,0.21,0.28,0.6,0.28,1.09v6.96
		c0,0.49-0.06,0.88-0.28,1.09c-0.19,0.17-0.59,0.22-1.15,0.22c-0.03,0-0.03,0.25,0,0.25h4.73c0.04,0,0.03-0.25,0-0.25
		c-0.62,0-1.1-0.05-1.31-0.22c-0.25-0.21-0.31-0.6-0.31-1.09V9.38h0.75c0.78,0,1.16,0.13,1.49,0.38c0.27,0.21,0.49,0.65,0.49,1.06
		c0,0.03,0.14,0.04,0.21,0V7.61c-0.07-0.04-0.21-0.03-0.21,0c0,0.41-0.21,0.88-0.49,1.08c-0.33,0.25-0.71,0.38-1.49,0.38h-0.75V4.53
		h0.91c2.28,0,2.94,1.09,3.28,2.35c0.01,0.03,0.18,0,0.17-0.03L28.6,4.2z"/>
	<path d="M37.58,4.2h-7.42c-0.03,0-0.03,0.25,0,0.25c0.56,0,0.96,0.05,1.15,0.22c0.23,0.21,0.28,0.6,0.28,1.09v6.96
		c0,0.49-0.06,0.88-0.28,1.09c-0.19,0.17-0.59,0.22-1.15,0.22c-0.03,0-0.03,0.25,0,0.25h4.73c0.04,0,0.03-0.25,0-0.25
		c-0.62,0-1.1-0.05-1.31-0.22c-0.25-0.21-0.31-0.6-0.31-1.09V9.38h0.75c0.78,0,1.16,0.13,1.49,0.38c0.27,0.21,0.49,0.65,0.49,1.06
		c0,0.03,0.14,0.04,0.21,0V7.61c-0.07-0.04-0.21-0.03-0.21,0c0,0.41-0.22,0.88-0.49,1.08c-0.33,0.25-0.71,0.38-1.49,0.38h-0.75V4.53
		h0.91c2.28,0,2.94,1.09,3.28,2.35c0.01,0.03,0.18,0,0.17-0.03L37.58,4.2z"/>
	<path d="M40.57,10.34l1.52-4.13l1.54,4.13H40.57 M47.63,14.04c-0.8-0.1-1.05-0.37-1.42-1.32l-3.27-8.77c0-0.04-0.41-0.03-0.41,0
		l-3.2,8.58c-0.43,1.13-0.77,1.31-1.74,1.51c-0.03,0.01-0.03,0.24,0,0.24h3.05c0.03,0,0.03-0.24,0-0.24
		c-0.89-0.06-1.29-0.4-0.86-1.51l0.68-1.86h3.3l0.73,1.91c0.36,0.95,0.02,1.39-0.92,1.46c-0.03,0-0.03,0.24,0,0.24h4.07
		C47.66,14.28,47.66,14.05,47.63,14.04z"/>
	<path d="M58.42,4.2h-3.49c-0.03,0-0.03,0.25,0,0.25c0.76,0.07,1.13,0.14,1.33,0.48c0.23,0.39,0.33,1.05,0.33,1.92v4.82l-5.7-7.47
		h-2.87c-0.03,0-0.03,0.25,0,0.25c1.06,0,1.57,0.59,1.57,1.46v5.76c0,0.87-0.06,1.5-0.28,1.89c-0.2,0.34-0.4,0.41-1.11,0.48
		c-0.03,0-0.03,0.25,0,0.25h3.46c0.03,0,0.03-0.25,0-0.25c-0.76-0.07-1.13-0.14-1.33-0.48c-0.23-0.39-0.33-1.01-0.33-1.89V5.8
		l6.68,8.58c0.06,0.08,0.32,0.07,0.32,0V6.85c0-0.88,0.05-1.54,0.28-1.92c0.2-0.34,0.39-0.41,1.15-0.48
		C58.45,4.45,58.45,4.2,58.42,4.2z"/>
	<path d="M68.62,4.2h-3c-0.04,0-0.03,0.25,0,0.25c0.93,0.03,1.25,0.37,0.92,1.04l-2.02,3.79l-2.21-3.86
		c-0.33-0.64,0.04-0.98,0.96-0.98c0.03,0,0.03-0.25,0-0.25h-4.18c-0.03,0-0.03,0.25,0,0.25c0.8,0.06,1.03,0.25,1.36,0.89l2.6,4.61
		v2.78c0,0.49-0.06,0.88-0.29,1.09c-0.19,0.17-0.61,0.22-1.17,0.22c-0.03,0-0.03,0.25,0,0.25h4.6c0.03,0,0.03-0.25,0-0.25
		c-0.56,0-0.99-0.05-1.18-0.22c-0.23-0.21-0.29-0.6-0.29-1.09V9.65l2.31-4.18c0.39-0.73,0.78-0.95,1.6-1.01
		C68.65,4.45,68.66,4.2,68.62,4.2z"/>
	<path d="M72.75,10.75c0-1.28,0.6-2.19,1.71-2.71l3.29,4.34c-0.77,0.73-1.66,1.17-2.48,1.17C73.85,13.55,72.75,12.46,72.75,10.75
		 M76.07,2.74c0.93,0,1.49,0.7,1.49,1.83c0,1.02-0.8,2.15-1.94,2.59c-0.86-1.17-1.06-1.93-1.06-2.62
		C74.55,3.28,75.17,2.74,76.07,2.74 M82.69,8.11h-4.03c-0.03,0.07-0.03,0.23,0,0.24c1.01,0.02,1.51,0.41,1.13,1.2
		c-0.28,0.6-0.6,1.15-0.98,1.67l-2.94-3.76c1.74-0.84,2.65-1.7,2.65-3.06c0-0.98-1.02-2.05-2.52-2.05c-1.53,0-2.87,1.25-2.87,2.63
		c0,0.89,0.26,1.54,1.13,2.76c-1.74,0.6-3.22,2-3.22,3.61c0,1.81,1.44,3.1,3.37,3.1c1.41,0,2.62-0.75,3.6-1.8l1.2,1.62h3.07
		c0.03,0,0.03-0.24,0-0.25c-0.53-0.01-0.73-0.06-1.07-0.23c-0.42-0.21-0.76-0.56-1.21-1.09l-0.96-1.23
		c0.56-0.73,1.04-1.51,1.54-2.22c0.39-0.54,0.81-0.8,2.12-0.91C82.72,8.36,82.72,8.18,82.69,8.11z"/>
	<path d="M96.71,10.45c0-0.04-0.21-0.07-0.23,0.02c-0.47,2.25-2.13,3.62-3.65,3.62c-2.9,0-4.76-2.56-4.76-6.18
		c0-3.62,1.62-6.25,4.47-6.25c1.68,0,3.37,1.34,3.85,3.46c0.01,0.03,0.23,0,0.23-0.03l-0.11-3.84c-0.01-0.03-0.24-0.04-0.24,0
		c-0.07,0.56-0.42,0.87-0.98,0.65c-0.82-0.32-1.75-0.62-2.71-0.62c-3.64,0-6.74,2.97-6.74,6.62c0,3.65,3.05,6.56,6.74,6.56
		c1.6,0,2.88-0.34,3.95-1.08L96.71,10.45z"/>
	<path d="M106.45,9.24c0,2.84-1.05,4.87-3.08,4.87c-2.03,0-3.08-2.02-3.08-4.87c0-2.84,1.05-4.87,3.08-4.87
		C105.4,4.37,106.45,6.4,106.45,9.24 M98.32,9.24c0,2.85,2.23,5.18,5.05,5.18c2.82,0,5.05-2.34,5.05-5.18
		c0-2.85-2.23-5.18-5.05-5.18C100.55,4.06,98.32,6.39,98.32,9.24z"/>
	<path d="M110.14,12.3c0.58,0,1.04,0.47,1.04,1.06c0,0.59-0.46,1.06-1.04,1.06c-0.58,0-1.04-0.47-1.04-1.06
		C109.1,12.77,109.56,12.3,110.14,12.3z"/>
</g>
</svg>
