<?xml version="1.0" encoding="utf-8"?>
<!-- Generator: Adobe Illustrator 24.1.2, SVG Export Plug-In . SVG Version: 6.00 Build 0)  -->
<svg version="1.1" id="Capa_1" xmlns="http://www.w3.org/2000/svg" xmlns:xlink="http://www.w3.org/1999/xlink" x="0px" y="0px"
	 viewBox="0 0 402.17 66.06" style="enable-background:new 0 0 402.17 66.06;" xml:space="preserve">
<style type="text/css">
	.Arqueado:_x0020_verde{fill:url(#SVGID_1_);stroke:#FFFFFF;stroke-width:0.25;stroke-miterlimit:1;}
</style>
<linearGradient id="SVGID_1_" gradientUnits="userSpaceOnUse" x1="-109.5" y1="614.4487" x2="-108.7929" y2="613.7416">
	<stop  offset="0" style="stop-color:#259E2E"/>
	<stop  offset="0.9831" style="stop-color:#1C381D"/>
</linearGradient>
<g>
	<g>
		<g>
			<g>
				<polygon points="49.02,4.33 0,4.33 0,14.94 17.81,14.94 17.81,63.68 31.42,63.68 31.42,14.94 49.02,14.94 				"/>
			</g>
		</g>
		<path d="M74.72,1.82c-16.43,0-29.75,14.38-29.75,32.12c0,17.74,13.32,32.12,29.75,32.12c16.43,0,29.75-14.38,29.75-32.12
			C104.47,16.2,91.15,1.82,74.72,1.82z M74.72,54.05c-9.33,0-16.9-9-16.9-20.11c0-11.11,7.57-20.11,16.9-20.11
			c9.33,0,16.9,9,16.9,20.11C91.62,45.04,84.05,54.05,74.72,54.05z"/>
		<path d="M105.3,63.13V3.77h18.44l14.25,40.36l13.27-40.36h18.02v59.36h-11.17V19.55l-15.22,43.57h-9.78c0,0-15.5-42.74-15.36-41.9
			c0.14,0.84,0,41.9,0,41.9H105.3z"/>
	</g>
	<g>
		<path d="M266.56,0c-16.43,0-29.75,14.38-29.75,32.12c0,17.74,13.32,32.12,29.75,32.12c16.43,0,29.75-14.38,29.75-32.12
			C296.31,14.38,282.99,0,266.56,0z M266.56,52.23c-9.33,0-16.9-9-16.9-20.11c0-11.11,7.57-20.11,16.9-20.11
			c9.33,0,16.9,9,16.9,20.11C283.46,43.23,275.9,52.23,266.56,52.23z"/>
		<polygon points="240.87,13.7 240.87,3.37 196.87,3.37 196.87,8.53 196.87,13.7 196.87,27.53 196.87,37.86 196.87,63 209.86,63 
			209.86,37.86 235,37.86 235,27.53 209.86,27.53 209.86,13.7 		"/>
		<path d="M377.78,1.55l-28.4,0.56v59.77h28.21c0,0,24.58,0.19,24.58-30.73S377.78,1.55,377.78,1.55z M377.5,50.71h-15.18V12.82
			h12.29c0,0,14.99,1.3,14.99,19.31C389.6,50.12,377.5,50.71,377.5,50.71z"/>
		<path d="M346.68,49.5c-0.84-15.36-8.01-15.55-8.01-15.55l-0.09-0.77c0,0,9.22-0.72,9.22-15.06c0-14.34-16.01-16.01-16.01-16.01
			h-34.64v59.77h13.5l-0.09-23.46c0,0,6.24,0,14.71,0c8.47,0,8.72,6.28,8.94,12.2c0.28,7.45,1.96,11.27,1.96,11.27h12.85
			C346.5,59,346.68,49.5,346.68,49.5z M327.04,29.3c0,0-15.73,0-16.2,0c-0.47,0,0-16.76,0-16.76h16.11c0,0,7.44-0.75,7.44,8.38
			C334.38,30.51,327.04,29.3,327.04,29.3z"/>
	</g>
</g>
</svg>
