<svg width="200" height="100" viewBox="0 0 200 100" fill="none" xmlns="http://www.w3.org/2000/svg">
<path d="M182 64.9492H170.579V52.1061H179.567V48.7285H170.579V36.0212H182V32.6141H163.814V68.3564H182V64.9492ZM162.097 42.5343C161.887 35.4012 156.945 32 150.413 32C139.656 32 136.669 40.6861 136.669 50.4469C136.669 60.7155 139.894 69 150.652 69C156.258 69 161.858 66.1834 162.044 58.5188H156.386C156.305 62.5696 154.512 66.7739 150.675 66.7739C144.516 66.7739 143.882 57.6331 143.882 50.7657V50.311C143.882 45.0262 144.016 34.1966 150.25 34.1966C154.453 34.1966 155.484 39.1862 155.641 42.5343H162.091H162.097ZM126.942 32.6141H121.708L109.711 68.3564H113.07L116.981 56.5879H127.134L130.598 68.3564H137.997L126.948 32.6141H126.942ZM118.088 53.2044L122.186 40.8455H122.477L126.127 53.2044H118.093H118.088ZM110.502 57.3851C110.502 52.1829 107.859 48.6695 102.125 47.1165L99.2439 46.3371C95.8617 45.4277 93.1664 44.0578 93.1664 40.1724C93.1664 36.7121 95.3319 34.9997 97.9515 34.9997C100.571 34.9997 103.557 36.718 105.327 40.0956L109.03 36.2869C106.358 33.4172 102.818 32.0531 99.3836 32.0531C93.5157 32.0531 88.0203 36.0744 88.0203 43.5559C88.0203 50.2048 92.6192 52.5136 97.1132 53.7418L99.174 54.3027C103.086 55.3774 104.832 58.0287 104.832 60.6564C104.832 64.4119 102.271 66.396 99.3603 66.396C95.6055 66.396 92.7007 63.3136 91.0882 60.1486C87.2577 63.8746 87.2053 63.9572 87.2053 63.9572C90.1684 67.9253 95.0816 69 98.7316 69C106.264 69 110.52 63.8273 110.52 57.391M79.5968 51.6278C83.7184 50.1811 85.8897 46.4788 85.8897 42.6465C85.8897 37.6569 82.426 32.62 74.8408 32.62H63.2913V68.3623H70.0557V53.2162H72.9605L79.9927 68.3623H87.444L79.591 51.6337L79.5968 51.6278ZM78.9623 42.9418C78.9623 47.4472 77.3207 50.689 73.042 50.689H70.0557V35.2182H73.042C77.3265 35.2182 78.9623 38.4363 78.9623 42.9418ZM61.7021 64.9552H50.2806V52.112H59.2687V48.7344H50.2806V36.0271H61.7021V32.62H43.5162V68.3623H61.7021V64.9552ZM39.1269 32.62L31.7513 60.184H31.4602L24.428 32.62H17L26.9661 68.3623H32.3858L42.4567 32.62H39.1269Z" fill="black"/>
</svg>
