<svg xmlns="http://www.w3.org/2000/svg" id="svg8" version="1.1" viewBox="0 0 198.397 83.739" height="316.492" width="749.845" fill="#231F20">
  <defs id="defs2"/>
  <g transform="translate(-2.855 -45.821)" id="layer1">
    <g transform="matrix(.26458 0 0 .26458 -55.467 -44.93)" id="g76">
      <path class="cls-1" d="M268.79 411.87l29.31-66.15h18.84L268.79 450.6l-48.36-104.88h19z" id="path34"/>
      <path class="cls-1" d="M375.58 395.12c0-28.88 22.81-52.12 51.7-52.12 28.89 0 51.72 23.24 51.72 52.12a51.71 51.71 0 11-103.41 0zm16.74-.2c0 20.09 14.24 36.42 35 36.42 20.76 0 35-16.33 35-36.42 0-19.89-14.23-36.43-35-36.43s-35 16.51-35 36.43z" id="path36"/>
      <path class="cls-1" d="M642.08 439.29c0 15.7 0 29.31-10 42.29-9.25 11.72-23.49 17.42-38.14 17.42-27.42 0-47.73-17.37-48.36-45.21h16.75c.21 18.21 13.4 29.72 31.4 29.72 25.95 0 31.61-19 31.61-41.24V430.5h-.42c-8 10.26-20.93 16.33-34.12 16.33-28.68 0-46.89-24.07-46.89-51.5 0-27.63 18.42-52.33 47.51-52.33a41 41 0 0133.5 16.75h.42v-14h16.74zm-81-45.42c0 19.26 11.31 37.47 32.24 37.47 21.56 0 32.86-17.38 32.86-37.26 0-19.68-12.35-35.59-33.07-35.59-19.48 0-32.04 16.96-32.04 35.38z" id="path38"/>
      <path class="cls-1" d="M741.54 400.57c0 16.53 1.89 30.77 22.19 30.77s22.19-14.24 22.19-30.77v-54.85h16.75v56.73c0 26.17-9.84 44.38-38.94 44.38-29.1 0-38.93-18.21-38.93-44.38v-56.73h16.74z" id="path40"/>
      <path class="cls-1" d="M892.92 398.47c.2 18.22 13.18 32.87 32.23 32.87 14.24 0 23.45-8.58 29.94-20.31l14.23 8.17c-9.42 17.58-25.33 27.63-45.42 27.63-29.31 0-48.15-22.4-48.15-50.66 0-29.1 17-53.17 47.73-53.17 31.61 0 48.36 26.17 46.68 55.47zm59.66-14.23c-2.31-14.24-14.24-25.75-28.89-25.75-14.45 0-27.84 11.51-29.94 25.75z" id="path42"/>
      <path class="cls-1" d="M341 609.52c.11 9 6.38 16.28 15.59 16.28 6.89 0 11.34-4.25 14.48-10.06l6.89 4c-4.56 8.71-12.25 13.68-22 13.68-14.18 0-23.29-11.09-23.29-25.09 0-14.41 8.2-26.33 23.09-26.33 15.28 0 23.38 13 22.57 27.47zm28.86-7c-1.12-7.05-6.89-12.75-14-12.75a15.16 15.16 0 00-14.48 12.75z" id="path44"/>
      <path class="cls-1" d="M407 583.4h9.42l16.8 34.93 15.39-34.93h9.21l-35.13 76.09h-9.21l15.39-31.93z" id="path46"/>
      <path class="cls-1" d="M494.62 609.52c.1 9 6.38 16.28 15.59 16.28 6.89 0 11.34-4.25 14.48-10.06l6.88 4c-4.55 8.71-12.25 13.68-22 13.68-14.17 0-23.28-11.09-23.28-25.09 0-14.41 8.2-26.33 23.08-26.33 15.29 0 23.39 13 22.58 27.47zm28.85-7c-1.11-7.05-6.88-12.75-14-12.75a15.15 15.15 0 00-14.47 12.7z" id="path48"/>
      <path class="cls-1" d="M584.32 616.37l14.78-36.7 14.9 36.7 14.18-33h9.21l-23.59 52.14-14.7-36.25-14.68 36.28L561 583.4h9.22z" id="path50"/>
      <path class="cls-1" d="M674.72 609.52c.11 9 6.38 16.28 15.59 16.28 6.89 0 11.34-4.25 14.48-10.06l6.89 4c-4.56 8.71-12.25 13.68-22 13.68-14.18 0-23.29-11.09-23.29-25.09 0-14.41 8.2-26.33 23.08-26.33 15.29 0 23.39 13 22.58 27.47zm28.86-7c-1.12-7.05-6.89-12.75-14-12.75a15.16 15.16 0 00-14.48 12.75z" id="path52"/>
      <path class="cls-1" d="M792 632.12h-8.1v-6.74h-.2a19.81 19.81 0 01-16.4 8.09c-14 0-22.78-12.13-22.78-25.61 0-13.89 8.6-25.81 22.88-25.81a20.42 20.42 0 0116.3 8.29h.2v-6.94h8.1zm-39.18-24.88c0 9.54 5.47 18.56 15.59 18.56 10.43 0 15.89-8.6 15.89-18.45s-6-17.63-16-17.63c-9.45 0-15.52 8.4-15.52 17.52z" id="path54"/>
      <path class="cls-1" d="M839.94 588.69h.21c2.83-3.84 5.26-6.64 10.53-6.64a14.08 14.08 0 017.29 2.28l-3.85 7.57c-1.62-1.14-2.74-2.18-4.86-2.18-8.91 0-9.32 11.72-9.32 18v24.36h-8.1V583.4h8.1z" id="path56"/>
    </g>
  </g>
</svg>
